{
  "accessors": [
    {
      "bufferView": 2,
      "componentType": 5126,
      "count": 201,
      "max": [
        47.1993293762207,
        152.80770874023438,
        45.32413864135742
      ],
      "min": [
        -20.063472747802734,
        -45.08292007446289,
        37.832366943359375
      ],
      "type": "VEC3"
    },
    {
      "bufferView": 2,
      "byteOffset": 2412,
      "componentType": 5126,
      "count": 201,
      "max": [
        1.0,
        1.0,
        1.0
      ],
      "min": [
        -1.4380600532604149e-06,
        -3.798074430960696e-06,
        -0.0
      ],
      "type": "VEC3"
    },
    {
      "bufferView": 1,
      "componentType": 5126,
      "count": 201,
      "max": [
        4.350062847137451,
        0.6657947897911072
      ],
      "min": [
        -5.684136390686035,
        0.08021754026412964
      ],
      "type": "VEC2"
    },
    {
      "bufferView": 1,
      "byteOffset": 1608,
      "componentType": 5126,
      "count": 201,
      "max": [
        4.350062847137451,
        0.6657947897911072
      ],
      "min": [
        -5.684136390686035,
        0.08021754026412964
      ],
      "type": "VEC2"
    },
    {
      "bufferView": 1,
      "byteOffset": 3216,
      "componentType": 5126,
      "count": 201,
      "max": [
        4.350062847137451,
        0.6657947897911072
      ],
      "min": [
        -5.684136390686035,
        0.08021754026412964
      ],
      "type": "VEC2"
    },
    {
      "bufferView": 0,
      "componentType": 5125,
      "count": 708,
      "type": "SCALAR"
    },
    {
      "bufferView": 2,
      "byteOffset": 4824,
      "componentType": 5126,
      "count": 7381,
      "max": [
        45.88046646118164,
        47.104122161865234,
        44.8367919921875
      ],
      "min": [
        -9.276033401489258,
        -30.70688247680664,
        -26.540241241455078
      ],
      "type": "VEC3"
    },
    {
      "bufferView": 2,
      "byteOffset": 93396,
      "componentType": 5126,
      "count": 7381,
      "max": [
        1.0,
        1.0,
        1.0
      ],
      "min": [
        -1.0,
        -1.0,
        -1.0
      ],
      "type": "VEC3"
    },
    {
      "bufferView": 1,
      "byteOffset": 4824,
      "componentType": 5126,
      "count": 7381,
      "max": [
        0.9514179825782776,
        0.9980679750442505
      ],
      "min": [
        0.0019529999699443579,
        0.0
      ],
      "type": "VEC2"
    },
    {
      "bufferView": 0,
      "byteOffset": 2832,
      "componentType": 5125,
      "count": 16983,
      "type": "SCALAR"
    },
    {
      "bufferView": 2,
      "byteOffset": 181968,
      "componentType": 5126,
      "count": 9,
      "max": [
        45.88046646118164,
        47.104122161865234,
        44.83445739746094
      ],
      "min": [
        -5.100034713745117,
        -29.945880889892578,
        -22.387340545654297
      ],
      "type": "VEC3"
    },
    {
      "bufferView": 2,
      "byteOffset": 182076,
      "componentType": 5126,
      "count": 9,
      "max": [
        1.0,
        1.0,
        -0.0
      ],
      "min": [
        0.0,
        0.0,
        -0.0
      ],
      "type": "VEC3"
    },
    {
      "bufferView": 1,
      "byteOffset": 63872,
      "componentType": 5126,
      "count": 9,
      "max": [
        2.3925044536590576,
        1.618320107460022
      ],
      "min": [
        -1.867389440536499,
        -0.6183202266693115
      ],
      "type": "VEC2"
    },
    {
      "bufferView": 0,
      "byteOffset": 70764,
      "componentType": 5125,
      "count": 15,
      "type": "SCALAR"
    },
    {
      "bufferView": 2,
      "byteOffset": 182184,
      "componentType": 5126,
      "count": 2813,
      "max": [
        -4.406761169433594,
        29.876636505126953,
        28.554346084594727
      ],
      "min": [
        -8.526115417480469,
        16.91715431213379,
        28.337512969970703
      ],
      "type": "VEC3"
    },
    {
      "bufferView": 2,
      "byteOffset": 215940,
      "componentType": 5126,
      "count": 2813,
      "max": [
        1.0,
        1.0,
        1.0
      ],
      "min": [
        -1.0,
        -1.0,
        -0.19514904916286469
      ],
      "type": "VEC3"
    },
    {
      "bufferView": 1,
      "byteOffset": 63944,
      "componentType": 5126,
      "count": 2813,
      "max": [
        0.7963261604309082,
        0.970268726348877
      ],
      "min": [
        0.402712881565094,
        0.5072482228279114
      ],
      "type": "VEC2"
    },
    {
      "bufferView": 0,
      "byteOffset": 70824,
      "componentType": 5125,
      "count": 12528,
      "type": "SCALAR"
    },
    {
      "bufferView": 2,
      "byteOffset": 249696,
      "componentType": 5126,
      "count": 2478,
      "max": [
        47.1993293762207,
        135.69586181640625,
        44.80229187011719
      ],
      "min": [
        -5.667682647705078,
        45.97679138183594,
        -17.230731964111328
      ],
      "type": "VEC3"
    },
    {
      "bufferView": 2,
      "byteOffset": 279432,
      "componentType": 5126,
      "count": 2478,
      "max": [
        1.0,
        1.0,
        1.0
      ],
      "min": [
        -1.0,
        -1.0,
        -1.0
      ],
      "type": "VEC3"
    },
    {
      "bufferView": 1,
      "byteOffset": 86448,
      "componentType": 5126,
      "count": 2478,
      "max": [
        0.906121015548706,
        1.0
      ],
      "min": [
        0.0,
        0.0
      ],
      "type": "VEC2"
    },
    {
      "bufferView": 0,
      "byteOffset": 120936,
      "componentType": 5125,
      "count": 4695,
      "type": "SCALAR"
    }
  ],
  "asset": {
    "extras": {
      "author": "99.Miles (https://sketchfab.com/Mazen220)",
      "license": "CC-BY-4.0 (http://creativecommons.org/licenses/by/4.0/)",
      "source": "https://sketchfab.com/3d-models/realistic-chicago-buildings-c4a3993ef1e84e6d9d5a15c78da88aae",
      "title": "Realistic chicago buildings"
    },
    "generator": "Sketchfab-14.6.0",
    "version": "2.0"
  },
  "bufferViews": [
    {
      "buffer": 0,
      "byteLength": 139716,
      "name": "floatBufferViews",
      "target": 34963
    },
    {
      "buffer": 0,
      "byteLength": 106272,
      "byteOffset": 139716,
      "byteStride": 8,
      "name": "floatBufferViews",
      "target": 34962
    },
    {
      "buffer": 0,
      "byteLength": 309168,
      "byteOffset": 245988,
      "byteStride": 12,
      "name": "floatBufferViews",
      "target": 34962
    }
  ],
  "buffers": [
    {
      "byteLength": 555156,
      "uri": "scene.bin"
    }
  ],
  "images": [
    {
      "uri": "textures/Sidewalks_baseColor.jpeg"
    },
    {
      "uri": "textures/Sidewalks_metallicRoughness.png"
    },
    {
      "uri": "textures/BLACK_BUILD_baseColor.jpeg"
    },
    {
      "uri": "textures/BLACK_BUILD_metallicRoughness.png"
    },
    {
      "uri": "textures/Bricks_baseColor.png"
    },
    {
      "uri": "textures/Bulbs_baseColor.png"
    },
    {
      "uri": "textures/Building_baseColor.jpeg"
    },
    {
      "uri": "textures/Building_metallicRoughness.png"
    }
  ],
  "materials": [
    {
      "doubleSided": true,
      "name": "Sidewalks",
      "pbrMetallicRoughness": {
        "baseColorTexture": {
          "index": 0
        },
        "metallicFactor": 0.0,
        "metallicRoughnessTexture": {
          "index": 1
        }
      }
    },
    {
      "doubleSided": true,
      "name": "BLACK_BUILD",
      "pbrMetallicRoughness": {
        "baseColorTexture": {
          "index": 2
        },
        "metallicFactor": 0.0,
        "metallicRoughnessTexture": {
          "index": 3
        }
      }
    },
    {
      "doubleSided": true,
      "name": "Bricks",
      "pbrMetallicRoughness": {
        "baseColorTexture": {
          "index": 4
        },
        "metallicFactor": 0.0
      }
    },
    {
      "doubleSided": true,
      "emissiveFactor": [
        1.0,
        1.0,
        1.0
      ],
      "emissiveTexture": {
        "index": 5
      },
      "name": "Bulbs",
      "pbrMetallicRoughness": {
        "baseColorTexture": {
          "index": 5
        }
      }
    },
    {
      "doubleSided": true,
      "name": "Building",
      "pbrMetallicRoughness": {
        "baseColorTexture": {
          "index": 6
        },
        "metallicFactor": 0.0,
        "metallicRoughnessTexture": {
          "index": 7
        }
      }
    }
  ],
  "meshes": [
    {
      "name": "Object_0",
      "primitives": [
        {
          "attributes": {
            "NORMAL": 1,
            "POSITION": 0,
            "TEXCOORD_0": 2,
            "TEXCOORD_1": 3,
            "TEXCOORD_2": 4
          },
          "indices": 5,
          "material": 0,
          "mode": 4
        }
      ]
    },
    {
      "name": "Object_1",
      "primitives": [
        {
          "attributes": {
            "NORMAL": 7,
            "POSITION": 6,
            "TEXCOORD_0": 8
          },
          "indices": 9,
          "material": 1,
          "mode": 4
        }
      ]
    },
    {
      "name": "Object_2",
      "primitives": [
        {
          "attributes": {
            "NORMAL": 11,
            "POSITION": 10,
            "TEXCOORD_0": 12
          },
          "indices": 13,
          "material": 2,
          "mode": 4
        }
      ]
    },
    {
      "name": "Object_3",
      "primitives": [
        {
          "attributes": {
            "NORMAL": 15,
            "POSITION": 14,
            "TEXCOORD_0": 16
          },
          "indices": 17,
          "material": 3,
          "mode": 4
        }
      ]
    },
    {
      "name": "Object_4",
      "primitives": [
        {
          "attributes": {
            "NORMAL": 19,
            "POSITION": 18,
            "TEXCOORD_0": 20
          },
          "indices": 21,
          "material": 4,
          "mode": 4
        }
      ]
    }
  ],
  "nodes": [
    {
      "children": [
        1
      ],
      "matrix": [
        1.0,
        0.0,
        0.0,
        0.0,
        0.0,
        2.220446049250313e-16,
        -1.0,
        0.0,
        0.0,
        1.0,
        2.220446049250313e-16,
        0.0,
        0.0,
        0.0,
        0.0,
        1.0
      ],
      "name": "Sketchfab_model"
    },
    {
      "children": [
        2
      ],
      "name": "root"
    },
    {
      "children": [
        3,
        5,
        7,
        9,
        11
      ],
      "matrix": [
        1.0,
        0.0,
        0.0,
        0.0,
        0.0,
        2.220446049250313e-16,
        1.0,
        0.0,
        0.0,
        -1.0,
        2.220446049250313e-16,
        0.0,
        0.0,
        0.0,
        0.0,
        1.0
      ],
      "name": "GLTF_SceneRootNode"
    },
    {
      "children": [
        4
      ],
      "matrix": [
        -8.940697071579962e-08,
        -2.9802316170446375e-08,
        -0.9999999999999956,
        0.0,
        0.9999999999999849,
        -1.4901161549119024e-07,
        -8.940696627490752e-08,
        0.0,
        -1.4901161282665498e-07,
        -0.9999999999999885,
        2.980232949312267e-08,
        0.0,
        0.0,
        56.51502227783203,
        0.0,
        1.0
      ],
      "name": "Sidewalks_2"
    },
    {
      "mesh": 0,
      "name": "Object_4"
    },
    {
      "children": [
        6
      ],
      "matrix": [
        -8.940697071579962e-08,
        -2.9802316170446375e-08,
        -0.9999999999999956,
        0.0,
        0.9999999999999849,
        -1.4901161549119024e-07,
        -8.940696627490752e-08,
        0.0,
        -1.4901161282665498e-07,
        -0.9999999999999885,
        2.980232949312267e-08,
        0.0,
        0.0,
        56.51502227783203,
        0.0,
        1.0
      ],
      "name": "Building black_3"
    },
    {
      "mesh": 1,
      "name": "Object_6"
    },
    {
      "children": [
        8
      ],
      "matrix": [
        -8.940697071579962e-08,
        -2.9802316170446375e-08,
        -0.9999999999999956,
        0.0,
        0.9999999999999849,
        -1.4901161549119024e-07,
        -8.940696627490752e-08,
        0.0,
        -1.4901161282665498e-07,
        -0.9999999999999885,
        2.980232949312267e-08,
        0.0,
        0.0,
        56.51502227783203,
        0.0,
        1.0
      ],
      "name": "Bricks_4"
    },
    {
      "mesh": 2,
      "name": "Object_8"
    },
    {
      "children": [
        10
      ],
      "matrix": [
        -8.940697071579962e-08,
        -2.9802316170446375e-08,
        -0.9999999999999956,
        0.0,
        0.9999999999999849,
        -1.4901161549119024e-07,
        -8.940696627490752e-08,
        0.0,
        -1.4901161282665498e-07,
        -0.9999999999999885,
        2.980232949312267e-08,
        0.0,
        0.0,
        56.51502227783203,
        0.0,
        1.0
      ],
      "name": "Bulbs_5"
    },
    {
      "mesh": 3,
      "name": "Object_10"
    },
    {
      "children": [
        12
      ],
      "matrix": [
        -8.940697071579962e-08,
        -2.9802316170446375e-08,
        -0.9999999999999956,
        0.0,
        0.9999999999999849,
        -1.4901161549119024e-07,
        -8.940696627490752e-08,
        0.0,
        -1.4901161282665498e-07,
        -0.9999999999999885,
        2.980232949312267e-08,
        0.0,
        0.0,
        56.51502227783203,
        0.0,
        1.0
      ],
      "name": "Building_6"
    },
    {
      "mesh": 4,
      "name": "Object_12"
    }
  ],
  "samplers": [
    {
      "magFilter": 9729,
      "minFilter": 9987,
      "wrapS": 10497,
      "wrapT": 10497
    }
  ],
  "scene": 0,
  "scenes": [
    {
      "name": "Sketchfab_Scene",
      "nodes": [
        0
      ]
    }
  ],
  "textures": [
    {
      "sampler": 0,
      "source": 0
    },
    {
      "sampler": 0,
      "source": 1
    },
    {
      "sampler": 0,
      "source": 2
    },
    {
      "sampler": 0,
      "source": 3
    },
    {
      "sampler": 0,
      "source": 4
    },
    {
      "sampler": 0,
      "source": 5
    },
    {
      "sampler": 0,
      "source": 6
    },
    {
      "sampler": 0,
      "source": 7
    }
  ]
}
