{
  "accessors": [
    {
      "bufferView": 2,
      "componentType": 5126,
      "count": 186,
      "max": [
        0.48904991149902344,
        -0.28592777252197266,
        0.4942185878753662
      ],
      "min": [
        -0.48904991149902344,
        -0.4999985694885254,
        -0.6973557472229004
      ],
      "type": "VEC3"
    },
    {
      "bufferView": 2,
      "byteOffset": 2232,
      "componentType": 5126,
      "count": 186,
      "max": [
        0.9079319834709167,
        0.9999980330467224,
        0.9832499027252197
      ],
      "min": [
        -0.9079856276512146,
        -0.9999973177909851,
        -0.9832327365875244
      ],
      "type": "VEC3"
    },
    {
      "bufferView": 3,
      "componentType": 5126,
      "count": 186,
      "max": [
        0.9999997019767761,
        0.9831458330154419,
        0.5602038502693176,
        1.0
      ],
      "min": [
        -0.9999977946281433,
        -0.9999118447303772,
        -0.5665935277938843,
        1.0
      ],
      "type": "VEC4"
    },
    {
      "bufferView": 1,
      "componentType": 5126,
      "count": 186,
      "max": [
        0.9364411234855652,
        0.957607090473175
      ],
      "min": [
        0.19263628125190735,
        0.06145165488123894
      ],
      "type": "VEC2"
    },
    {
      "bufferView": 0,
      "componentType": 5125,
      "count": 900,
      "type": "SCALAR"
    }
  ],
  "asset": {
    "extras": {
      "author": "ArpitSaini_003 (https://sketchfab.com/arpitsaini003)",
      "license": "CC-BY-4.0 (http://creativecommons.org/licenses/by/4.0/)",
      "source": "https://sketchfab.com/3d-models/gold-bar-single-07cee58f90b64f8195f0279e97dea53e",
      "title": "Gold Bar Single"
    },
    "generator": "Sketchfab-16.12.0",
    "version": "2.0"
  },
  "bufferViews": [
    {
      "buffer": 0,
      "byteLength": 3600,
      "name": "floatBufferViews",
      "target": 34963
    },
    {
      "buffer": 0,
      "byteLength": 1488,
      "byteOffset": 3600,
      "byteStride": 8,
      "name": "floatBufferViews",
      "target": 34962
    },
    {
      "buffer": 0,
      "byteLength": 4464,
      "byteOffset": 5088,
      "byteStride": 12,
      "name": "floatBufferViews",
      "target": 34962
    },
    {
      "buffer": 0,
      "byteLength": 2976,
      "byteOffset": 9552,
      "byteStride": 16,
      "name": "floatBufferViews",
      "target": 34962
    }
  ],
  "buffers": [
    {
      "byteLength": 12528,
      "uri": "scene.bin"
    }
  ],
  "extensionsUsed": [
    "KHR_materials_specular"
  ],
  "images": [
    {
      "uri": "textures/standardSurface1_baseColor.png"
    },
    {
      "uri": "textures/standardSurface1_metallicRoughness.png"
    },
    {
      "uri": "textures/standardSurface1_normal.png"
    }
  ],
  "materials": [
    {
      "doubleSided": true,
      "extensions": {
        "KHR_materials_specular": {
          "specularColorFactor": [
            1.0,
            1.0,
            1.0
          ],
          "specularFactor": 1.0
        }
      },
      "name": "standardSurface1",
      "normalTexture": {
        "index": 2
      },
      "occlusionTexture": {
        "index": 1
      },
      "pbrMetallicRoughness": {
        "baseColorTexture": {
          "index": 0
        },
        "metallicRoughnessTexture": {
          "index": 1
        }
      }
    }
  ],
  "meshes": [
    {
      "name": "pCube1_standardSurface1_0",
      "primitives": [
        {
          "attributes": {
            "NORMAL": 1,
            "POSITION": 0,
            "TANGENT": 2,
            "TEXCOORD_0": 3
          },
          "indices": 4,
          "material": 0,
          "mode": 4
        }
      ]
    }
  ],
  "nodes": [
    {
      "children": [
        1
      ],
      "matrix": [
        1.0,
        0.0,
        0.0,
        0.0,
        0.0,
        2.220446049250313e-16,
        -1.0,
        0.0,
        0.0,
        1.0,
        2.220446049250313e-16,
        0.0,
        0.0,
        0.0,
        0.0,
        1.0
      ],
      "name": "Sketchfab_model"
    },
    {
      "children": [
        2
      ],
      "matrix": [
        0.009999999776482582,
        0.0,
        0.0,
        0.0,
        0.0,
        0.0,
        0.009999999776482582,
        0.0,
        0.0,
        -0.009999999776482582,
        0.0,
        0.0,
        0.0,
        0.0,
        0.0,
        1.0
      ],
      "name": "4bb1c21db1ec4c03a3af4b77aefb5a95.fbx"
    },
    {
      "children": [
        3
      ],
      "name": "RootNode"
    },
    {
      "children": [
        4
      ],
      "matrix": [
        3.441934900773944,
        0.0,
        1.5897702031533731,
        0.0,
        0.0,
        8.203012466430664,
        0.0,
        0.0,
        -3.4396527155428687,
        0.0,
        7.447026434817823,
        0.0,
        43.20815658569336,
        47.819400787353516,
        34.60349655151367,
        1.0
      ],
      "name": "pCube1"
    },
    {
      "mesh": 0,
      "name": "pCube1_standardSurface1_0"
    }
  ],
  "samplers": [
    {
      "magFilter": 9729,
      "minFilter": 9987,
      "wrapS": 10497,
      "wrapT": 10497
    }
  ],
  "scene": 0,
  "scenes": [
    {
      "name": "Sketchfab_Scene",
      "nodes": [
        0
      ]
    }
  ],
  "textures": [
    {
      "sampler": 0,
      "source": 0
    },
    {
      "sampler": 0,
      "source": 1
    },
    {
      "sampler": 0,
      "source": 2
    }
  ]
}
