{
  "accessors": [
    {
      "bufferView": 2,
      "componentType": 5126,
      "count": 372,
      "max": [
        1.2237403392791748,
        0.6055104732513428,
        0.01659105345606804
      ],
      "min": [
        -1.2240018844604492,
        -0.6054081916809082,
        -0.005930742248892784
      ],
      "type": "VEC3"
    },
    {
      "bufferView": 2,
      "byteOffset": 4464,
      "componentType": 5126,
      "count": 372,
      "max": [
        0.9998447299003601,
        1.0,
        1.0
      ],
      "min": [
        -0.9997349977493286,
        -1.0,
        -1.0
      ],
      "type": "VEC3"
    },
    {
      "bufferView": 3,
      "componentType": 5126,
      "count": 372,
      "max": [
        0.0013603223487734795,
        0.9659762978553772,
        1.0,
        1.0
      ],
      "min": [
        -0.9567219018936157,
        -0.9999997019767761,
        -1.0,
        1.0
      ],
      "type": "VEC4"
    },
    {
      "bufferView": 1,
      "componentType": 5126,
      "count": 372,
      "max": [
        0.9826722741127014,
        0.9795318245887756
      ],
      "min": [
        0.01656746119260788,
        0.008937006816267967
      ],
      "type": "VEC2"
    },
    {
      "bufferView": 1,
      "byteOffset": 2976,
      "componentType": 5126,
      "count": 372,
      "max": [
        0.9826722741127014,
        0.9795318245887756
      ],
      "min": [
        0.01656746119260788,
        0.008937006816267967
      ],
      "type": "VEC2"
    },
    {
      "bufferView": 0,
      "componentType": 5125,
      "count": 576,
      "type": "SCALAR"
    },
    {
      "bufferView": 2,
      "byteOffset": 8928,
      "componentType": 5126,
      "count": 374,
      "max": [
        1.220232605934143,
        0.6067013144493103,
        0.014376549050211906
      ],
      "min": [
        -1.227509617805481,
        -0.6042173504829407,
        -0.008145246654748917
      ],
      "type": "VEC3"
    },
    {
      "bufferView": 2,
      "byteOffset": 13416,
      "componentType": 5126,
      "count": 374,
      "max": [
        0.9998446702957153,
        1.0,
        1.0
      ],
      "min": [
        -0.9997349977493286,
        -1.0,
        -1.0
      ],
      "type": "VEC3"
    },
    {
      "bufferView": 3,
      "byteOffset": 5952,
      "componentType": 5126,
      "count": 374,
      "max": [
        0.0013603223487734795,
        0.9659762978553772,
        1.0,
        1.0
      ],
      "min": [
        -0.956721842288971,
        -0.9999997019767761,
        -1.0,
        1.0
      ],
      "type": "VEC4"
    },
    {
      "bufferView": 1,
      "byteOffset": 5952,
      "componentType": 5126,
      "count": 374,
      "max": [
        0.9826722741127014,
        0.9795318245887756
      ],
      "min": [
        0.01656746119260788,
        0.007894044741988182
      ],
      "type": "VEC2"
    },
    {
      "bufferView": 0,
      "byteOffset": 2304,
      "componentType": 5125,
      "count": 576,
      "type": "SCALAR"
    }
  ],
  "asset": {
    "extras": {
      "author": "janexx (https://sketchfab.com/janexx)",
      "license": "CC-BY-4.0 (http://creativecommons.org/licenses/by/4.0/)",
      "source": "https://sketchfab.com/3d-models/carpets-white-and-blue-patterned-a3ebf266cbe343449cd9c2e8eb27cbbf",
      "title": "Carpets white and blue patterned"
    },
    "generator": "Sketchfab-12.67.0",
    "version": "2.0"
  },
  "bufferViews": [
    {
      "buffer": 0,
      "byteLength": 4608,
      "name": "floatBufferViews",
      "target": 34963
    },
    {
      "buffer": 0,
      "byteLength": 8944,
      "byteOffset": 4608,
      "byteStride": 8,
      "name": "floatBufferViews",
      "target": 34962
    },
    {
      "buffer": 0,
      "byteLength": 17904,
      "byteOffset": 13552,
      "byteStride": 12,
      "name": "floatBufferViews",
      "target": 34962
    },
    {
      "buffer": 0,
      "byteLength": 11936,
      "byteOffset": 31456,
      "byteStride": 16,
      "name": "floatBufferViews",
      "target": 34962
    }
  ],
  "buffers": [
    {
      "byteLength": 43392,
      "uri": "scene.bin"
    }
  ],
  "images": [
    {
      "uri": "textures/Carpet_white_baseColor.jpeg"
    },
    {
      "uri": "textures/Carpet_white_normal.png"
    },
    {
      "uri": "textures/Carpet_patterned_baseColor.jpeg"
    },
    {
      "uri": "textures/Carpet_patterned_normal.png"
    }
  ],
  "materials": [
    {
      "doubleSided": true,
      "name": "Carpet_white",
      "normalTexture": {
        "index": 1
      },
      "pbrMetallicRoughness": {
        "baseColorTexture": {
          "index": 0
        },
        "metallicFactor": 0.0
      }
    },
    {
      "doubleSided": true,
      "name": "Carpet_patterned",
      "normalTexture": {
        "index": 3
      },
      "pbrMetallicRoughness": {
        "baseColorTexture": {
          "index": 2
        },
        "metallicFactor": 0.0
      }
    }
  ],
  "meshes": [
    {
      "name": "Carpet1_low_Carpet_white_0",
      "primitives": [
        {
          "attributes": {
            "NORMAL": 1,
            "POSITION": 0,
            "TANGENT": 2,
            "TEXCOORD_0": 3,
            "TEXCOORD_1": 4
          },
          "indices": 5,
          "material": 0,
          "mode": 4
        }
      ]
    },
    {
      "name": "Carpet2_low_Carpet_patterned_0",
      "primitives": [
        {
          "attributes": {
            "NORMAL": 7,
            "POSITION": 6,
            "TANGENT": 8,
            "TEXCOORD_0": 9
          },
          "indices": 10,
          "material": 1,
          "mode": 4
        }
      ]
    }
  ],
  "nodes": [
    {
      "children": [
        1
      ],
      "matrix": [
        1.0,
        0.0,
        0.0,
        0.0,
        0.0,
        2.220446049250313e-16,
        -1.0,
        0.0,
        0.0,
        1.0,
        2.220446049250313e-16,
        0.0,
        0.0,
        0.0,
        0.0,
        1.0
      ],
      "name": "Sketchfab_model"
    },
    {
      "children": [
        2
      ],
      "matrix": [
        1.0,
        0.0,
        0.0,
        0.0,
        0.0,
        0.0,
        1.0,
        0.0,
        0.0,
        -1.0,
        0.0,
        0.0,
        0.0,
        0.0,
        0.0,
        1.0
      ],
      "name": "Carpets.fbx"
    },
    {
      "children": [
        3,
        5
      ],
      "name": "RootNode"
    },
    {
      "children": [
        4
      ],
      "matrix": [
        100.0,
        0.0,
        0.0,
        0.0,
        0.0,
        -4.371139006309477e-06,
        -99.9999999999999,
        0.0,
        0.0,
        99.9999999999999,
        -4.371139006309477e-06,
        0.0,
        0.0,
        0.0,
        240.39303588867188,
        1.0
      ],
      "name": "Carpet1_low"
    },
    {
      "mesh": 0,
      "name": "Carpet1_low_Carpet_white_0"
    },
    {
      "children": [
        6
      ],
      "matrix": [
        100.0,
        0.0,
        0.0,
        0.0,
        0.0,
        -4.371139006309477e-06,
        -99.9999999999999,
        0.0,
        0.0,
        99.9999999999999,
        -4.371139006309477e-06,
        0.0,
        0.0,
        0.0,
        83.49346160888672,
        1.0
      ],
      "name": "Carpet2_low"
    },
    {
      "mesh": 1,
      "name": "Carpet2_low_Carpet_patterned_0"
    }
  ],
  "samplers": [
    {
      "magFilter": 9729,
      "minFilter": 9987,
      "wrapS": 10497,
      "wrapT": 10497
    }
  ],
  "scene": 0,
  "scenes": [
    {
      "name": "Sketchfab_Scene",
      "nodes": [
        0
      ]
    }
  ],
  "textures": [
    {
      "sampler": 0,
      "source": 0
    },
    {
      "sampler": 0,
      "source": 1
    },
    {
      "sampler": 0,
      "source": 2
    },
    {
      "sampler": 0,
      "source": 3
    }
  ]
}
