{
  "accessors": [
    {
      "bufferView": 2,
      "componentType": 5126,
      "count": 342,
      "max": [
        0.845300018787384,
        0.845300018787384,
        0.0075610000640153885
      ],
      "min": [
        -0.845300018787384,
        -0.845300018787384,
        -0.18541400134563446
      ],
      "type": "VEC3"
    },
    {
      "bufferView": 2,
      "byteOffset": 4104,
      "componentType": 5126,
      "count": 342,
      "max": [
        1.0,
        1.0,
        1.0
      ],
      "min": [
        -1.0,
        -1.0,
        -1.0
      ],
      "type": "VEC3"
    },
    {
      "bufferView": 3,
      "componentType": 5126,
      "count": 342,
      "max": [
        1.0,
        1.0,
        1.0,
        1.0
      ],
      "min": [
        -1.0,
        -1.0,
        -1.0,
        1.0
      ],
      "type": "VEC4"
    },
    {
      "bufferView": 1,
      "componentType": 5126,
      "count": 342,
      "max": [
        0.9758819937705994,
        0.9729949831962585
      ],
      "min": [
        0.02406499907374382,
        0.02406200021505356
      ],
      "type": "VEC2"
    },
    {
      "bufferView": 0,
      "componentType": 5125,
      "count": 672,
      "type": "SCALAR"
    },
    {
      "bufferView": 2,
      "byteOffset": 8208,
      "componentType": 5126,
      "count": 481,
      "max": [
        0.8351650238037109,
        0.8351650238037109,
        -0.005274999886751175
      ],
      "min": [
        -0.8351640105247498,
        -0.8351650238037109,
        -0.33774399757385254
      ],
      "type": "VEC3"
    },
    {
      "bufferView": 2,
      "byteOffset": 13980,
      "componentType": 5126,
      "count": 481,
      "max": [
        0.7390459775924683,
        0.7390455603599548,
        1.0
      ],
      "min": [
        -0.7390455603599548,
        -0.7390450835227966,
        -0.9992340207099915
      ],
      "type": "VEC3"
    },
    {
      "bufferView": 3,
      "byteOffset": 5472,
      "componentType": 5126,
      "count": 481,
      "max": [
        0.7822535634040833,
        0.9655371308326721,
        0.7367644309997559,
        1.0
      ],
      "min": [
        -0.9531338214874268,
        -0.7752500772476196,
        -0.7367652654647827,
        1.0
      ],
      "type": "VEC4"
    },
    {
      "bufferView": 1,
      "byteOffset": 2736,
      "componentType": 5126,
      "count": 481,
      "max": [
        0.936424970626831,
        0.9350860118865967
      ],
      "min": [
        0.024065999314188957,
        0.02405799925327301
      ],
      "type": "VEC2"
    },
    {
      "bufferView": 0,
      "byteOffset": 2688,
      "componentType": 5125,
      "count": 2400,
      "type": "SCALAR"
    },
    {
      "bufferView": 2,
      "byteOffset": 19752,
      "componentType": 5126,
      "count": 543,
      "max": [
        0.04735799878835678,
        0.04735799878835678,
        -0.33774399757385254
      ],
      "min": [
        -0.04735799878835678,
        -0.04735799878835678,
        -0.397132009267807
      ],
      "type": "VEC3"
    },
    {
      "bufferView": 2,
      "byteOffset": 26268,
      "componentType": 5126,
      "count": 543,
      "max": [
        1.0,
        1.0,
        -0.0
      ],
      "min": [
        -1.0,
        -1.0,
        -1.0
      ],
      "type": "VEC3"
    },
    {
      "bufferView": 3,
      "byteOffset": 13168,
      "componentType": 5126,
      "count": 543,
      "max": [
        1.0,
        1.0,
        0.049087926745414734,
        1.0
      ],
      "min": [
        -1.0,
        -1.0,
        -0.04913825914263725,
        1.0
      ],
      "type": "VEC4"
    },
    {
      "bufferView": 1,
      "byteOffset": 6584,
      "componentType": 5126,
      "count": 543,
      "max": [
        0.697297990322113,
        0.9732699990272522
      ],
      "min": [
        0.11387699842453003,
        0.03573400154709816
      ],
      "type": "VEC2"
    },
    {
      "bufferView": 0,
      "byteOffset": 12288,
      "componentType": 5125,
      "count": 1920,
      "type": "SCALAR"
    }
  ],
  "asset": {
    "extras": {
      "author": "Jimmy Johansson (https://sketchfab.com/Jimmy_Johansson)",
      "license": "CC-BY-4.0 (http://creativecommons.org/licenses/by/4.0/)",
      "source": "https://sketchfab.com/3d-models/ceiling-lamp-15881eb78cc743d482a462478fba0e0b",
      "title": "Ceiling lamp"
    },
    "generator": "Sketchfab-16.72.0",
    "version": "2.0"
  },
  "bufferViews": [
    {
      "buffer": 0,
      "byteLength": 19968,
      "name": "floatBufferViews",
      "target": 34963
    },
    {
      "buffer": 0,
      "byteLength": 10928,
      "byteOffset": 19968,
      "byteStride": 8,
      "name": "floatBufferViews",
      "target": 34962
    },
    {
      "buffer": 0,
      "byteLength": 32784,
      "byteOffset": 30896,
      "byteStride": 12,
      "name": "floatBufferViews",
      "target": 34962
    },
    {
      "buffer": 0,
      "byteLength": 21856,
      "byteOffset": 63680,
      "byteStride": 16,
      "name": "floatBufferViews",
      "target": 34962
    }
  ],
  "buffers": [
    {
      "byteLength": 85536,
      "uri": "scene.bin"
    }
  ],
  "images": [
    {
      "uri": "textures/Lamp_Holder_baseColor.jpeg"
    },
    {
      "uri": "textures/Lamp_Holder_metallicRoughness.png"
    },
    {
      "uri": "textures/Lamp_Holder_emissive.jpeg"
    },
    {
      "uri": "textures/Lamp_Holder_normal.png"
    },
    {
      "uri": "textures/Lamp_Glass_baseColor.jpeg"
    },
    {
      "uri": "textures/Lamp_Glass_metallicRoughness.png"
    },
    {
      "uri": "textures/Lamp_Glass_emissive.jpeg"
    },
    {
      "uri": "textures/Lamp_Glass_normal.png"
    },
    {
      "uri": "textures/Knob_baseColor.jpeg"
    },
    {
      "uri": "textures/Knob_metallicRoughness.png"
    },
    {
      "uri": "textures/Knob_emissive.jpeg"
    },
    {
      "uri": "textures/Knob_normal.png"
    }
  ],
  "materials": [
    {
      "doubleSided": true,
      "emissiveFactor": [
        1.0,
        1.0,
        1.0
      ],
      "emissiveTexture": {
        "index": 2
      },
      "name": "Lamp_Holder",
      "normalTexture": {
        "index": 3
      },
      "occlusionTexture": {
        "index": 1
      },
      "pbrMetallicRoughness": {
        "baseColorTexture": {
          "index": 0
        },
        "metallicFactor": 0.0,
        "metallicRoughnessTexture": {
          "index": 1
        }
      }
    },
    {
      "doubleSided": true,
      "emissiveFactor": [
        1.0,
        1.0,
        1.0
      ],
      "emissiveTexture": {
        "index": 6
      },
      "name": "Lamp_Glass",
      "normalTexture": {
        "index": 7
      },
      "occlusionTexture": {
        "index": 5
      },
      "pbrMetallicRoughness": {
        "baseColorTexture": {
          "index": 4
        },
        "metallicFactor": 0.0,
        "metallicRoughnessTexture": {
          "index": 5
        }
      }
    },
    {
      "doubleSided": true,
      "emissiveFactor": [
        1.0,
        1.0,
        1.0
      ],
      "emissiveTexture": {
        "index": 10
      },
      "name": "Knob",
      "normalTexture": {
        "index": 11
      },
      "occlusionTexture": {
        "index": 9
      },
      "pbrMetallicRoughness": {
        "baseColorTexture": {
          "index": 8
        },
        "metallicRoughnessTexture": {
          "index": 9
        }
      }
    }
  ],
  "meshes": [
    {
      "name": "defaultMaterial",
      "primitives": [
        {
          "attributes": {
            "NORMAL": 1,
            "POSITION": 0,
            "TANGENT": 2,
            "TEXCOORD_0": 3
          },
          "indices": 4,
          "material": 0,
          "mode": 4
        }
      ]
    },
    {
      "name": "defaultMaterial",
      "primitives": [
        {
          "attributes": {
            "NORMAL": 6,
            "POSITION": 5,
            "TANGENT": 7,
            "TEXCOORD_0": 8
          },
          "indices": 9,
          "material": 1,
          "mode": 4
        }
      ]
    },
    {
      "name": "defaultMaterial",
      "primitives": [
        {
          "attributes": {
            "NORMAL": 11,
            "POSITION": 10,
            "TANGENT": 12,
            "TEXCOORD_0": 13
          },
          "indices": 14,
          "material": 2,
          "mode": 4
        }
      ]
    }
  ],
  "nodes": [
    {
      "children": [
        1
      ],
      "matrix": [
        1.0,
        0.0,
        0.0,
        0.0,
        0.0,
        3.828568672208042e-16,
        -1.0,
        0.0,
        0.0,
        1.0,
        3.828568672208042e-16,
        0.0,
        0.0,
        0.0,
        0.0,
        1.0
      ],
      "name": "Sketchfab_model"
    },
    {
      "children": [
        2
      ],
      "matrix": [
        1.0,
        0.0,
        0.0,
        0.0,
        0.0,
        -4.371139006309477e-08,
        0.999999999999999,
        0.0,
        0.0,
        -0.999999999999999,
        -4.371139006309477e-08,
        0.0,
        0.0,
        0.0,
        0.0,
        1.0
      ],
      "name": "Collada visual scene group"
    },
    {
      "children": [
        3,
        4,
        5
      ],
      "matrix": [
        100.0,
        0.0,
        1.6e-05,
        0.0,
        1.6e-05,
        0.0,
        -100.0,
        0.0,
        0.0,
        100.0,
        0.0,
        0.0,
        0.0,
        -51.927464,
        0.0,
        1.0
      ],
      "name": "Lamp_01"
    },
    {
      "mesh": 0,
      "name": "defaultMaterial"
    },
    {
      "mesh": 1,
      "name": "defaultMaterial"
    },
    {
      "mesh": 2,
      "name": "defaultMaterial"
    }
  ],
  "samplers": [
    {
      "magFilter": 9729,
      "minFilter": 9987,
      "wrapS": 10497,
      "wrapT": 10497
    }
  ],
  "scene": 0,
  "scenes": [
    {
      "name": "Sketchfab_Scene",
      "nodes": [
        0
      ]
    }
  ],
  "textures": [
    {
      "sampler": 0,
      "source": 0
    },
    {
      "sampler": 0,
      "source": 1
    },
    {
      "sampler": 0,
      "source": 2
    },
    {
      "sampler": 0,
      "source": 3
    },
    {
      "sampler": 0,
      "source": 4
    },
    {
      "sampler": 0,
      "source": 5
    },
    {
      "sampler": 0,
      "source": 6
    },
    {
      "sampler": 0,
      "source": 7
    },
    {
      "sampler": 0,
      "source": 8
    },
    {
      "sampler": 0,
      "source": 9
    },
    {
      "sampler": 0,
      "source": 10
    },
    {
      "sampler": 0,
      "source": 11
    }
  ]
}
