{
  "accessors": [
    {
      "bufferView": 2,
      "componentType": 5126,
      "count": 20,
      "max": [
        0.4050000309944153,
        1.0,
        0.015000000596046448
      ],
      "min": [
        -0.4050000309944153,
        0.0,
        -0.009999999776482582
      ],
      "type": "VEC3"
    },
    {
      "bufferView": 2,
      "byteOffset": 240,
      "componentType": 5126,
      "count": 20,
      "max": [
        1.0,
        1.0,
        1.0
      ],
      "min": [
        -1.0,
        -1.0,
        0.0
      ],
      "type": "VEC3"
    },
    {
      "bufferView": 1,
      "componentType": 5126,
      "count": 20,
      "max": [
        0.9998661279678345,
        0.9991464018821716
      ],
      "min": [
        -0.0002804696559906006,
        0.0001809321838663891
      ],
      "type": "VEC2"
    },
    {
      "bufferView": 1,
      "byteOffset": 160,
      "componentType": 5126,
      "count": 20,
      "max": [
        0.9998661279678345,
        0.9991464018821716
      ],
      "min": [
        -0.0002804696559906006,
        0.0001809321838663891
      ],
      "type": "VEC2"
    },
    {
      "bufferView": 0,
      "componentType": 5125,
      "count": 30,
      "type": "SCALAR"
    },
    {
      "bufferView": 2,
      "byteOffset": 480,
      "componentType": 5126,
      "count": 4,
      "max": [
        0.4050000309944153,
        1.0,
        -0.009999999776482582
      ],
      "min": [
        -0.4050000309944153,
        0.0,
        -0.009999999776482582
      ],
      "type": "VEC3"
    },
    {
      "bufferView": 2,
      "byteOffset": 528,
      "componentType": 5126,
      "count": 4,
      "max": [
        0.0,
        0.0,
        -1.0
      ],
      "min": [
        0.0,
        0.0,
        -1.0
      ],
      "type": "VEC3"
    },
    {
      "bufferView": 3,
      "componentType": 5126,
      "count": 4,
      "max": [
        1.0,
        0.004158627241849899,
        -0.0,
        -1.0
      ],
      "min": [
        0.9999913573265076,
        0.0,
        -0.0,
        -1.0
      ],
      "type": "VEC4"
    },
    {
      "bufferView": 1,
      "byteOffset": 320,
      "componentType": 5126,
      "count": 4,
      "max": [
        0.9981668591499329,
        0.9948163628578186
      ],
      "min": [
        0.008411754854023457,
        0.006907814182341099
      ],
      "type": "VEC2"
    },
    {
      "bufferView": 1,
      "byteOffset": 352,
      "componentType": 5126,
      "count": 4,
      "max": [
        0.9981668591499329,
        0.9948163628578186
      ],
      "min": [
        0.008411754854023457,
        0.006907814182341099
      ],
      "type": "VEC2"
    },
    {
      "bufferView": 0,
      "byteOffset": 120,
      "componentType": 5125,
      "count": 6,
      "type": "SCALAR"
    },
    {
      "bufferView": 2,
      "byteOffset": 576,
      "componentType": 5126,
      "count": 65532,
      "max": [
        1.011139988899231,
        0.6164210438728333,
        0.008809695951640606
      ],
      "min": [
        -0.03169091045856476,
        -0.6164209246635437,
        -0.054480649530887604
      ],
      "type": "VEC3"
    },
    {
      "bufferView": 2,
      "byteOffset": 786960,
      "componentType": 5126,
      "count": 65532,
      "max": [
        0.9999878406524658,
        1.0,
        1.0
      ],
      "min": [
        -0.9999876022338867,
        -1.0,
        -1.0
      ],
      "type": "VEC3"
    },
    {
      "bufferView": 1,
      "byteOffset": 384,
      "componentType": 5126,
      "count": 65532,
      "max": [
        1.0,
        1.0
      ],
      "min": [
        0.0,
        0.0
      ],
      "type": "VEC2"
    },
    {
      "bufferView": 1,
      "byteOffset": 524640,
      "componentType": 5126,
      "count": 65532,
      "max": [
        0.0,
        0.0
      ],
      "min": [
        0.0,
        0.0
      ],
      "type": "VEC2"
    },
    {
      "bufferView": 0,
      "byteOffset": 144,
      "componentType": 5125,
      "count": 297447,
      "type": "SCALAR"
    },
    {
      "bufferView": 2,
      "byteOffset": 1573344,
      "componentType": 5126,
      "count": 65532,
      "max": [
        0.08471878618001938,
        0.6164209842681885,
        0.008809695951640606
      ],
      "min": [
        -0.03169091045856476,
        -0.6164209246635437,
        -0.024480734020471573
      ],
      "type": "VEC3"
    },
    {
      "bufferView": 2,
      "byteOffset": 2359728,
      "componentType": 5126,
      "count": 65532,
      "max": [
        1.0,
        1.0,
        1.0
      ],
      "min": [
        -1.0,
        -1.0,
        -1.0
      ],
      "type": "VEC3"
    },
    {
      "bufferView": 1,
      "byteOffset": 1048896,
      "componentType": 5126,
      "count": 65532,
      "max": [
        1.0,
        1.0
      ],
      "min": [
        0.0,
        0.0
      ],
      "type": "VEC2"
    },
    {
      "bufferView": 1,
      "byteOffset": 1573152,
      "componentType": 5126,
      "count": 65532,
      "max": [
        0.0,
        0.0
      ],
      "min": [
        0.0,
        0.0
      ],
      "type": "VEC2"
    },
    {
      "bufferView": 0,
      "byteOffset": 1189932,
      "componentType": 5125,
      "count": 297048,
      "type": "SCALAR"
    },
    {
      "bufferView": 2,
      "byteOffset": 3146112,
      "componentType": 5126,
      "count": 65532,
      "max": [
        1.0033948421478271,
        0.5462449193000793,
        0.008809695951640606
      ],
      "min": [
        -0.03169091045856476,
        -0.6164209246635437,
        -0.024480734020471573
      ],
      "type": "VEC3"
    },
    {
      "bufferView": 2,
      "byteOffset": 3932496,
      "componentType": 5126,
      "count": 65532,
      "max": [
        1.0,
        1.0,
        1.0
      ],
      "min": [
        -1.0,
        -1.0,
        -1.0
      ],
      "type": "VEC3"
    },
    {
      "bufferView": 1,
      "byteOffset": 2097408,
      "componentType": 5126,
      "count": 65532,
      "max": [
        1.0,
        0.9507365226745605
      ],
      "min": [
        1.4053544816761132e-07,
        0.0
      ],
      "type": "VEC2"
    },
    {
      "bufferView": 1,
      "byteOffset": 2621664,
      "componentType": 5126,
      "count": 65532,
      "max": [
        0.0,
        0.0
      ],
      "min": [
        0.0,
        0.0
      ],
      "type": "VEC2"
    },
    {
      "bufferView": 0,
      "byteOffset": 2378124,
      "componentType": 5125,
      "count": 257634,
      "type": "SCALAR"
    },
    {
      "bufferView": 2,
      "byteOffset": 4718880,
      "componentType": 5126,
      "count": 65532,
      "max": [
        1.011139988899231,
        0.6046482920646667,
        0.008809695951640606
      ],
      "min": [
        -0.03169091045856476,
        -0.6080657839775085,
        -0.024480734020471573
      ],
      "type": "VEC3"
    },
    {
      "bufferView": 2,
      "byteOffset": 5505264,
      "componentType": 5126,
      "count": 65532,
      "max": [
        0.9977973699569702,
        1.0,
        1.0
      ],
      "min": [
        -0.9998605251312256,
        -1.0,
        -0.9980526566505432
      ],
      "type": "VEC3"
    },
    {
      "bufferView": 1,
      "byteOffset": 3145920,
      "componentType": 5126,
      "count": 65532,
      "max": [
        1.0,
        0.9523963332176208
      ],
      "min": [
        0.17823447287082672,
        0.0
      ],
      "type": "VEC2"
    },
    {
      "bufferView": 1,
      "byteOffset": 3670176,
      "componentType": 5126,
      "count": 65532,
      "max": [
        0.0,
        0.0
      ],
      "min": [
        0.0,
        0.0
      ],
      "type": "VEC2"
    },
    {
      "bufferView": 0,
      "byteOffset": 3408660,
      "componentType": 5125,
      "count": 237903,
      "type": "SCALAR"
    },
    {
      "bufferView": 2,
      "byteOffset": 6291648,
      "componentType": 5126,
      "count": 65532,
      "max": [
        1.011139988899231,
        0.616421103477478,
        0.008809692226350307
      ],
      "min": [
        -0.03169091045856476,
        -0.6164209842681885,
        -0.054480649530887604
      ],
      "type": "VEC3"
    },
    {
      "bufferView": 2,
      "byteOffset": 7078032,
      "componentType": 5126,
      "count": 65532,
      "max": [
        1.0,
        1.0,
        1.0
      ],
      "min": [
        -1.0,
        -1.0,
        -1.0
      ],
      "type": "VEC3"
    },
    {
      "bufferView": 1,
      "byteOffset": 4194432,
      "componentType": 5126,
      "count": 65532,
      "max": [
        1.0,
        1.0
      ],
      "min": [
        0.0,
        0.0
      ],
      "type": "VEC2"
    },
    {
      "bufferView": 1,
      "byteOffset": 4718688,
      "componentType": 5126,
      "count": 65532,
      "max": [
        0.0,
        0.0
      ],
      "min": [
        0.0,
        0.0
      ],
      "type": "VEC2"
    },
    {
      "bufferView": 0,
      "byteOffset": 4360272,
      "componentType": 5125,
      "count": 267699,
      "type": "SCALAR"
    },
    {
      "bufferView": 2,
      "byteOffset": 7864416,
      "componentType": 5126,
      "count": 65532,
      "max": [
        1.011139988899231,
        0.616421103477478,
        0.008070701733231544
      ],
      "min": [
        -0.03169091045856476,
        -0.6164209842681885,
        -0.054480649530887604
      ],
      "type": "VEC3"
    },
    {
      "bufferView": 2,
      "byteOffset": 8650800,
      "componentType": 5126,
      "count": 65532,
      "max": [
        1.0,
        1.0,
        1.0
      ],
      "min": [
        -1.0,
        -1.0,
        -1.0
      ],
      "type": "VEC3"
    },
    {
      "bufferView": 1,
      "byteOffset": 5242944,
      "componentType": 5126,
      "count": 65532,
      "max": [
        1.0,
        1.0
      ],
      "min": [
        0.0,
        0.0
      ],
      "type": "VEC2"
    },
    {
      "bufferView": 1,
      "byteOffset": 5767200,
      "componentType": 5126,
      "count": 65532,
      "max": [
        0.0,
        0.0
      ],
      "min": [
        0.0,
        0.0
      ],
      "type": "VEC2"
    },
    {
      "bufferView": 0,
      "byteOffset": 5431068,
      "componentType": 5125,
      "count": 278610,
      "type": "SCALAR"
    },
    {
      "bufferView": 2,
      "byteOffset": 9437184,
      "componentType": 5126,
      "count": 15526,
      "max": [
        0.8768143653869629,
        0.5190697908401489,
        -0.01220107264816761
      ],
      "min": [
        0.03849145770072937,
        -0.5462271571159363,
        -0.024480734020471573
      ],
      "type": "VEC3"
    },
    {
      "bufferView": 2,
      "byteOffset": 9623496,
      "componentType": 5126,
      "count": 15526,
      "max": [
        0.9953806400299072,
        0.9989432692527771,
        0.9999957084655762
      ],
      "min": [
        -0.9946951270103455,
        -0.9989376664161682,
        -1.0
      ],
      "type": "VEC3"
    },
    {
      "bufferView": 1,
      "byteOffset": 6291456,
      "componentType": 5126,
      "count": 15526,
      "max": [
        0.997189998626709,
        0.9412745237350464
      ],
      "min": [
        4.2052590742969187e-07,
        0.0
      ],
      "type": "VEC2"
    },
    {
      "bufferView": 1,
      "byteOffset": 6415664,
      "componentType": 5126,
      "count": 15526,
      "max": [
        0.0,
        0.0
      ],
      "min": [
        0.0,
        0.0
      ],
      "type": "VEC2"
    },
    {
      "bufferView": 0,
      "byteOffset": 6545508,
      "componentType": 5125,
      "count": 68244,
      "type": "SCALAR"
    },
    {
      "bufferView": 2,
      "byteOffset": 9809808,
      "componentType": 5126,
      "count": 3802,
      "max": [
        0.1001470759510994,
        0.016726894304156303,
        0.0037493095733225346
      ],
      "min": [
        -0.10014703869819641,
        -0.015954921022057533,
        -0.006851091980934143
      ],
      "type": "VEC3"
    },
    {
      "bufferView": 2,
      "byteOffset": 9855432,
      "componentType": 5126,
      "count": 3802,
      "max": [
        1.0,
        1.0,
        1.0
      ],
      "min": [
        -1.0,
        -1.0,
        -1.0
      ],
      "type": "VEC3"
    },
    {
      "bufferView": 1,
      "byteOffset": 6539872,
      "componentType": 5126,
      "count": 3802,
      "max": [
        0.49999991059303284,
        1.0
      ],
      "min": [
        0.0,
        0.0
      ],
      "type": "VEC2"
    },
    {
      "bufferView": 0,
      "byteOffset": 6818484,
      "componentType": 5125,
      "count": 6546,
      "type": "SCALAR"
    },
    {
      "bufferView": 2,
      "byteOffset": 9901056,
      "componentType": 5126,
      "count": 3802,
      "max": [
        0.1001470759510994,
        0.016726894304156303,
        0.0037493095733225346
      ],
      "min": [
        -0.10014703869819641,
        -0.015954921022057533,
        -0.006851091980934143
      ],
      "type": "VEC3"
    },
    {
      "bufferView": 2,
      "byteOffset": 9946680,
      "componentType": 5126,
      "count": 3802,
      "max": [
        1.0,
        1.0,
        1.0
      ],
      "min": [
        -1.0,
        -1.0,
        -1.0
      ],
      "type": "VEC3"
    },
    {
      "bufferView": 1,
      "byteOffset": 6570288,
      "componentType": 5126,
      "count": 3802,
      "max": [
        0.49999991059303284,
        1.0
      ],
      "min": [
        0.0,
        0.0
      ],
      "type": "VEC2"
    },
    {
      "bufferView": 0,
      "byteOffset": 6844668,
      "componentType": 5125,
      "count": 6546,
      "type": "SCALAR"
    }
  ],
  "asset": {
    "extras": {
      "author": "mfb64 (https://sketchfab.com/mfb64)",
      "license": "CC-BY-4.0 (http://creativecommons.org/licenses/by/4.0/)",
      "source": "https://sketchfab.com/3d-models/claude-monet-woman-with-a-parasol-ccb21b2b0a87400baf34cc6104723c12",
      "title": "CLAUDE MONET Woman With A Parasol"
    },
    "generator": "Sketchfab-12.65.0",
    "version": "2.0"
  },
  "bufferViews": [
    {
      "buffer": 0,
      "byteLength": 6870852,
      "name": "floatBufferViews",
      "target": 34963
    },
    {
      "buffer": 0,
      "byteLength": 6600704,
      "byteOffset": 6870852,
      "byteStride": 8,
      "name": "floatBufferViews",
      "target": 34962
    },
    {
      "buffer": 0,
      "byteLength": 9992304,
      "byteOffset": 13471556,
      "byteStride": 12,
      "name": "floatBufferViews",
      "target": 34962
    },
    {
      "buffer": 0,
      "byteLength": 64,
      "byteOffset": 23463860,
      "byteStride": 16,
      "name": "floatBufferViews",
      "target": 34962
    }
  ],
  "buffers": [
    {
      "byteLength": 23463924,
      "uri": "scene.bin"
    }
  ],
  "images": [
    {
      "uri": "textures/paint_baseColor.jpeg"
    },
    {
      "uri": "textures/back_baseColor.jpeg"
    },
    {
      "uri": "textures/back_normal.jpeg"
    },
    {
      "uri": "textures/OldGold_baseColor.jpeg"
    }
  ],
  "materials": [
    {
      "doubleSided": true,
      "name": "paint",
      "pbrMetallicRoughness": {
        "baseColorTexture": {
          "index": 0
        },
        "metallicFactor": 0.0,
        "roughnessFactor": 0.8
      }
    },
    {
      "doubleSided": true,
      "name": "back",
      "normalTexture": {
        "index": 2
      },
      "pbrMetallicRoughness": {
        "baseColorTexture": {
          "index": 1
        },
        "metallicFactor": 0.0,
        "roughnessFactor": 0.5
      }
    },
    {
      "doubleSided": true,
      "name": "OldGold",
      "pbrMetallicRoughness": {
        "baseColorTexture": {
          "index": 3
        },
        "metallicFactor": 0.7,
        "roughnessFactor": 0.5
      }
    },
    {
      "doubleSided": true,
      "name": "metal",
      "pbrMetallicRoughness": {
        "baseColorFactor": [
          0.12217799999999998,
          0.06719779999999996,
          0.012269600000000004,
          1.0
        ],
        "roughnessFactor": 0.2
      }
    }
  ],
  "meshes": [
    {
      "name": "Object_0",
      "primitives": [
        {
          "attributes": {
            "NORMAL": 1,
            "POSITION": 0,
            "TEXCOORD_0": 2,
            "TEXCOORD_1": 3
          },
          "indices": 4,
          "material": 0,
          "mode": 4
        }
      ]
    },
    {
      "name": "Object_1",
      "primitives": [
        {
          "attributes": {
            "NORMAL": 6,
            "POSITION": 5,
            "TANGENT": 7,
            "TEXCOORD_0": 8,
            "TEXCOORD_1": 9
          },
          "indices": 10,
          "material": 1,
          "mode": 4
        }
      ]
    },
    {
      "name": "Object_2",
      "primitives": [
        {
          "attributes": {
            "NORMAL": 12,
            "POSITION": 11,
            "TEXCOORD_0": 13,
            "TEXCOORD_1": 14
          },
          "indices": 15,
          "material": 2,
          "mode": 4
        }
      ]
    },
    {
      "name": "Object_3",
      "primitives": [
        {
          "attributes": {
            "NORMAL": 17,
            "POSITION": 16,
            "TEXCOORD_0": 18,
            "TEXCOORD_1": 19
          },
          "indices": 20,
          "material": 2,
          "mode": 4
        }
      ]
    },
    {
      "name": "Object_4",
      "primitives": [
        {
          "attributes": {
            "NORMAL": 22,
            "POSITION": 21,
            "TEXCOORD_0": 23,
            "TEXCOORD_1": 24
          },
          "indices": 25,
          "material": 2,
          "mode": 4
        }
      ]
    },
    {
      "name": "Object_5",
      "primitives": [
        {
          "attributes": {
            "NORMAL": 27,
            "POSITION": 26,
            "TEXCOORD_0": 28,
            "TEXCOORD_1": 29
          },
          "indices": 30,
          "material": 2,
          "mode": 4
        }
      ]
    },
    {
      "name": "Object_6",
      "primitives": [
        {
          "attributes": {
            "NORMAL": 32,
            "POSITION": 31,
            "TEXCOORD_0": 33,
            "TEXCOORD_1": 34
          },
          "indices": 35,
          "material": 2,
          "mode": 4
        }
      ]
    },
    {
      "name": "Object_7",
      "primitives": [
        {
          "attributes": {
            "NORMAL": 37,
            "POSITION": 36,
            "TEXCOORD_0": 38,
            "TEXCOORD_1": 39
          },
          "indices": 40,
          "material": 2,
          "mode": 4
        }
      ]
    },
    {
      "name": "Object_8",
      "primitives": [
        {
          "attributes": {
            "NORMAL": 42,
            "POSITION": 41,
            "TEXCOORD_0": 43,
            "TEXCOORD_1": 44
          },
          "indices": 45,
          "material": 2,
          "mode": 4
        }
      ]
    },
    {
      "name": "Object_9",
      "primitives": [
        {
          "attributes": {
            "NORMAL": 47,
            "POSITION": 46,
            "TEXCOORD_0": 48
          },
          "indices": 49,
          "material": 3,
          "mode": 4
        }
      ]
    },
    {
      "name": "Object_10",
      "primitives": [
        {
          "attributes": {
            "NORMAL": 51,
            "POSITION": 50,
            "TEXCOORD_0": 52
          },
          "indices": 53,
          "material": 3,
          "mode": 4
        }
      ]
    }
  ],
  "nodes": [
    {
      "children": [
        1
      ],
      "matrix": [
        -0.9996976256370544,
        5.459767582848082e-18,
        -0.024588607251644135,
        0.0,
        -0.024588607251644135,
        -2.219774643290716e-16,
        0.9996976256370544,
        0.0,
        0.0,
        1.0,
        2.220446049250313e-16,
        0.0,
        -0.0003703882684931159,
        -6.530214568927442e-18,
        0.02940947189927101,
        1.0
      ],
      "name": "Sketchfab_model"
    },
    {
      "children": [
        2
      ],
      "name": "root"
    },
    {
      "children": [
        3
      ],
      "matrix": [
        1.0,
        0.0,
        0.0,
        0.0,
        0.0,
        2.220446049250313e-16,
        1.0,
        0.0,
        0.0,
        -1.0,
        2.220446049250313e-16,
        0.0,
        0.0,
        0.0,
        0.0,
        1.0
      ],
      "name": "GLTF_SceneRootNode"
    },
    {
      "children": [
        4,
        5,
        6,
        14,
        16
      ],
      "name": "Woman with a Parasol_3"
    },
    {
      "mesh": 0,
      "name": "Object_4"
    },
    {
      "mesh": 1,
      "name": "Object_5"
    },
    {
      "children": [
        7,
        8,
        9,
        10,
        11,
        12,
        13
      ],
      "matrix": [
        1.0,
        0.0,
        0.0,
        0.0,
        0.0,
        1.0,
        0.0,
        0.0,
        0.0,
        0.0,
        1.0,
        0.0,
        -0.4897301197052002,
        0.5,
        0.03948061540722847,
        1.0
      ],
      "name": "frame_0"
    },
    {
      "mesh": 2,
      "name": "Object_7"
    },
    {
      "mesh": 3,
      "name": "Object_8"
    },
    {
      "mesh": 4,
      "name": "Object_9"
    },
    {
      "mesh": 5,
      "name": "Object_10"
    },
    {
      "mesh": 6,
      "name": "Object_11"
    },
    {
      "mesh": 7,
      "name": "Object_12"
    },
    {
      "mesh": 8,
      "name": "Object_13"
    },
    {
      "children": [
        15
      ],
      "matrix": [
        0.3656681776046753,
        0.0,
        0.0,
        0.0,
        0.0,
        0.3656681776046753,
        0.0,
        0.0,
        0.0,
        0.0,
        0.3656681776046753,
        0.0,
        -0.3683794438838959,
        1.039033055305481,
        -0.016371145844459534,
        1.0
      ],
      "name": "hook1_1"
    },
    {
      "mesh": 9,
      "name": "Object_15"
    },
    {
      "children": [
        17
      ],
      "matrix": [
        0.3656681776046753,
        0.0,
        0.0,
        0.0,
        0.0,
        0.3656681776046753,
        0.0,
        0.0,
        0.0,
        0.0,
        0.3656681776046753,
        0.0,
        0.3683682978153229,
        1.039033055305481,
        -0.016371145844459534,
        1.0
      ],
      "name": "hook2_2"
    },
    {
      "mesh": 10,
      "name": "Object_17"
    }
  ],
  "samplers": [
    {
      "magFilter": 9729,
      "minFilter": 9987,
      "wrapS": 10497,
      "wrapT": 10497
    }
  ],
  "scene": 0,
  "scenes": [
    {
      "name": "Sketchfab_Scene",
      "nodes": [
        0
      ]
    }
  ],
  "textures": [
    {
      "sampler": 0,
      "source": 0
    },
    {
      "sampler": 0,
      "source": 1
    },
    {
      "sampler": 0,
      "source": 2
    },
    {
      "sampler": 0,
      "source": 3
    }
  ]
}
