{
  "accessors": [
    {
      "bufferView": 2,
      "componentType": 5126,
      "count": 9048,
      "max": [
        -24.613296508789063,
        24.44573974609375,
        214.58653259277344
      ],
      "min": [
        -425.52374267578125,
        -24.772308349609375,
        -0.0001373291015625
      ],
      "type": "VEC3"
    },
    {
      "bufferView": 2,
      "byteOffset": 108576,
      "componentType": 5126,
      "count": 9048,
      "max": [
        1.0,
        1.0,
        1.0
      ],
      "min": [
        -1.0,
        -1.0,
        -1.0
      ],
      "type": "VEC3"
    },
    {
      "bufferView": 3,
      "componentType": 5126,
      "count": 9048,
      "max": [
        1.0,
        1.0,
        1.0,
        1.0
      ],
      "min": [
        -1.0,
        -1.0,
        -1.0,
        -1.0
      ],
      "type": "VEC4"
    },
    {
      "bufferView": 1,
      "componentType": 5126,
      "count": 9048,
      "max": [
        0.9951525926589966,
        0.996560275554657
      ],
      "min": [
        0.007786365691572428,
        0.004625558853149414
      ],
      "type": "VEC2"
    },
    {
      "bufferView": 0,
      "componentType": 5125,
      "count": 25764,
      "type": "SCALAR"
    },
    {
      "bufferView": 2,
      "byteOffset": 217152,
      "componentType": 5126,
      "count": 27948,
      "max": [
        478.6531677246094,
        229.36300659179688,
        29.939178466796875
      ],
      "min": [
        -875.0734252929688,
        -0.0001373291015625,
        -30.004119873046875
      ],
      "type": "VEC3"
    },
    {
      "bufferView": 2,
      "byteOffset": 552528,
      "componentType": 5126,
      "count": 27948,
      "max": [
        1.0,
        1.0,
        1.0
      ],
      "min": [
        -1.0,
        -1.0,
        -1.0
      ],
      "type": "VEC3"
    },
    {
      "bufferView": 3,
      "byteOffset": 144768,
      "componentType": 5126,
      "count": 27948,
      "max": [
        1.0,
        1.0,
        1.0,
        1.0
      ],
      "min": [
        -1.0,
        -1.0,
        -1.0,
        -1.0
      ],
      "type": "VEC4"
    },
    {
      "bufferView": 1,
      "byteOffset": 72384,
      "componentType": 5126,
      "count": 27948,
      "max": [
        0.9951525926589966,
        0.996560275554657
      ],
      "min": [
        0.007786365691572428,
        0.004625558853149414
      ],
      "type": "VEC2"
    },
    {
      "bufferView": 0,
      "byteOffset": 103056,
      "componentType": 5125,
      "count": 80208,
      "type": "SCALAR"
    },
    {
      "bufferView": 2,
      "byteOffset": 887904,
      "componentType": 5126,
      "count": 268,
      "max": [
        298.3415222167969,
        30.004119873046875,
        229.36300659179688
      ],
      "min": [
        239.29466247558594,
        -29.939178466796875,
        -0.0001373291015625
      ],
      "type": "VEC3"
    },
    {
      "bufferView": 2,
      "byteOffset": 891120,
      "componentType": 5126,
      "count": 268,
      "max": [
        0.9870875477790833,
        0.9870875477790833,
        0.9885920882225037
      ],
      "min": [
        -0.9870875477790833,
        -0.9870875477790833,
        -0.9934872984886169
      ],
      "type": "VEC3"
    },
    {
      "bufferView": 3,
      "byteOffset": 591936,
      "componentType": 5126,
      "count": 268,
      "max": [
        0.31231898069381714,
        0.31166496872901917,
        0.992570161819458,
        1.0
      ],
      "min": [
        -0.9999999403953552,
        -0.9997337460517883,
        -1.0,
        1.0
      ],
      "type": "VEC4"
    },
    {
      "bufferView": 1,
      "byteOffset": 295968,
      "componentType": 5126,
      "count": 268,
      "max": [
        0.8719889521598816,
        0.5672208070755005
      ],
      "min": [
        0.17139723896980286,
        0.2459564208984375
      ],
      "type": "VEC2"
    },
    {
      "bufferView": 0,
      "byteOffset": 423888,
      "componentType": 5125,
      "count": 972,
      "type": "SCALAR"
    }
  ],
  "asset": {
    "extras": {
      "author": "Mehdi Shahsavan (https://sketchfab.com/ahmagh2e)",
      "license": "CC-BY-4.0 (http://creativecommons.org/licenses/by/4.0/)",
      "source": "https://sketchfab.com/3d-models/fence-retaining-wall-b26ac6fb2f5441e09cc1d66594816bec",
      "title": "Fence_retaining_wall"
    },
    "generator": "Sketchfab-16.59.0",
    "version": "2.0"
  },
  "bufferViews": [
    {
      "buffer": 0,
      "byteLength": 427776,
      "name": "floatBufferViews",
      "target": 34963
    },
    {
      "buffer": 0,
      "byteLength": 298112,
      "byteOffset": 427776,
      "byteStride": 8,
      "name": "floatBufferViews",
      "target": 34962
    },
    {
      "buffer": 0,
      "byteLength": 894336,
      "byteOffset": 725888,
      "byteStride": 12,
      "name": "floatBufferViews",
      "target": 34962
    },
    {
      "buffer": 0,
      "byteLength": 596224,
      "byteOffset": 1620224,
      "byteStride": 16,
      "name": "floatBufferViews",
      "target": 34962
    }
  ],
  "buffers": [
    {
      "byteLength": 2216448,
      "uri": "scene.bin"
    }
  ],
  "images": [
    {
      "uri": "textures/Scene_-_Root_baseColor.png"
    },
    {
      "uri": "textures/Scene_-_Root_metallicRoughness.png"
    },
    {
      "uri": "textures/Scene_-_Root_normal.png"
    }
  ],
  "materials": [
    {
      "doubleSided": true,
      "name": "Scene_-_Root",
      "normalTexture": {
        "index": 2
      },
      "pbrMetallicRoughness": {
        "baseColorTexture": {
          "index": 0
        },
        "metallicRoughnessTexture": {
          "index": 1
        }
      }
    }
  ],
  "meshes": [
    {
      "name": "01_3__0",
      "primitives": [
        {
          "attributes": {
            "NORMAL": 1,
            "POSITION": 0,
            "TANGENT": 2,
            "TEXCOORD_0": 3
          },
          "indices": 4,
          "material": 0,
          "mode": 4
        }
      ]
    },
    {
      "name": "01_2__0",
      "primitives": [
        {
          "attributes": {
            "NORMAL": 6,
            "POSITION": 5,
            "TANGENT": 7,
            "TEXCOORD_0": 8
          },
          "indices": 9,
          "material": 0,
          "mode": 4
        }
      ]
    },
    {
      "name": "02__0",
      "primitives": [
        {
          "attributes": {
            "NORMAL": 11,
            "POSITION": 10,
            "TANGENT": 12,
            "TEXCOORD_0": 13
          },
          "indices": 14,
          "material": 0,
          "mode": 4
        }
      ]
    }
  ],
  "nodes": [
    {
      "children": [
        1
      ],
      "matrix": [
        1.0,
        0.0,
        0.0,
        0.0,
        0.0,
        2.220446049250313e-16,
        -1.0,
        0.0,
        0.0,
        1.0,
        2.220446049250313e-16,
        0.0,
        0.0,
        0.0,
        0.0,
        1.0
      ],
      "name": "Sketchfab_model"
    },
    {
      "children": [
        2
      ],
      "matrix": [
        0.009999999776482582,
        0.0,
        0.0,
        0.0,
        0.0,
        0.0,
        0.009999999776482582,
        0.0,
        0.0,
        -0.009999999776482582,
        0.0,
        0.0,
        0.0,
        0.0,
        0.0,
        1.0
      ],
      "name": "570cc5361282411ba5b57afa279517c9.fbx"
    },
    {
      "children": [
        3,
        5,
        7,
        9
      ],
      "name": "RootNode"
    },
    {
      "children": [
        4
      ],
      "matrix": [
        0.5116714137505162,
        -0.3758831034770318,
        -0.772595791388371,
        0.0,
        0.20754879653259814,
        0.9266670882903283,
        -0.3133873075563131,
        0.0,
        0.8337360861858016,
        -5.551115123125783e-17,
        0.5521631449051827,
        0.0,
        -1500.9490966796875,
        892.2683715820313,
        1493.060546875,
        1.0
      ],
      "name": "CINEMA_4D_Editor"
    },
    {
      "name": "Object_4"
    },
    {
      "children": [
        6
      ],
      "matrix": [
        1.0,
        0.0,
        0.0,
        0.0,
        0.0,
        2.220446049250313e-16,
        -1.0,
        0.0,
        0.0,
        1.0,
        2.220446049250313e-16,
        0.0,
        891.1358032226563,
        0.0001373291015625,
        -146.79782104492188,
        1.0
      ],
      "name": "01_3"
    },
    {
      "mesh": 0,
      "name": "01_3__0"
    },
    {
      "children": [
        8
      ],
      "matrix": [
        1.0,
        0.0,
        0.0,
        0.0,
        0.0,
        1.0,
        0.0,
        0.0,
        0.0,
        0.0,
        1.0,
        0.0,
        -449.5496520996094,
        0.0001373291015625,
        -146.79782104492188,
        1.0
      ],
      "name": "01_2"
    },
    {
      "mesh": 1,
      "name": "01_2__0"
    },
    {
      "children": [
        10
      ],
      "matrix": [
        1.0,
        0.0,
        0.0,
        0.0,
        0.0,
        2.220446049250313e-16,
        -1.0,
        0.0,
        0.0,
        1.0,
        2.220446049250313e-16,
        0.0,
        0.0,
        0.0001373291015625,
        0.0,
        1.0
      ],
      "name": "02"
    },
    {
      "mesh": 2,
      "name": "02__0"
    }
  ],
  "samplers": [
    {
      "magFilter": 9729,
      "minFilter": 9987,
      "wrapS": 10497,
      "wrapT": 10497
    }
  ],
  "scene": 0,
  "scenes": [
    {
      "name": "Sketchfab_Scene",
      "nodes": [
        0
      ]
    }
  ],
  "textures": [
    {
      "sampler": 0,
      "source": 0
    },
    {
      "sampler": 0,
      "source": 1
    },
    {
      "sampler": 0,
      "source": 2
    }
  ]
}
