{
  "accessors": [
    {
      "bufferView": 2,
      "componentType": 5126,
      "count": 256,
      "max": [
        4153.5400390625,
        368.93798828125,
        282.85601806640625
      ],
      "min": [
        3093.578369140625,
        17.439085006713867,
        -1558.7615966796875
      ],
      "type": "VEC3"
    },
    {
      "bufferView": 2,
      "byteOffset": 3072,
      "componentType": 5126,
      "count": 256,
      "max": [
        1.0,
        1.0,
        1.0
      ],
      "min": [
        -1.0,
        -1.0,
        -1.0
      ],
      "type": "VEC3"
    },
    {
      "bufferView": 1,
      "componentType": 5126,
      "count": 256,
      "max": [
        44.66239929199219,
        -46.34270095825195
      ],
      "min": [
        43.33760070800781,
        -47.65729904174805
      ],
      "type": "VEC2"
    },
    {
      "bufferView": 1,
      "byteOffset": 2048,
      "componentType": 5126,
      "count": 256,
      "max": [
        0.9898698925971985,
        0.9890134334564209
      ],
      "min": [
        0.020000001415610313,
        0.020000001415610313
      ],
      "type": "VEC2"
    },
    {
      "bufferView": 0,
      "componentType": 5125,
      "count": 384,
      "type": "SCALAR"
    },
    {
      "bufferView": 2,
      "byteOffset": 6144,
      "componentType": 5126,
      "count": 1056,
      "max": [
        4143.669921875,
        388.88299560546875,
        265.0929870605469
      ],
      "min": [
        3103.445068359375,
        -0.0015893689123913646,
        -1518.7158203125
      ],
      "type": "VEC3"
    },
    {
      "bufferView": 2,
      "byteOffset": 18816,
      "componentType": 5126,
      "count": 1056,
      "max": [
        1.0,
        1.0,
        1.0
      ],
      "min": [
        -1.0,
        -1.0,
        -1.0
      ],
      "type": "VEC3"
    },
    {
      "bufferView": 3,
      "componentType": 5126,
      "count": 1056,
      "max": [
        1.0,
        0.11184565722942352,
        1.0,
        1.0
      ],
      "min": [
        -1.0,
        -0.7071937918663025,
        -1.0,
        -1.0
      ],
      "type": "VEC4"
    },
    {
      "bufferView": 1,
      "byteOffset": 4096,
      "componentType": 5126,
      "count": 1056,
      "max": [
        44.650001525878906,
        -46.364898681640625
      ],
      "min": [
        43.349998474121094,
        -47.6072998046875
      ],
      "type": "VEC2"
    },
    {
      "bufferView": 1,
      "byteOffset": 12544,
      "componentType": 5126,
      "count": 1056,
      "max": [
        0.9889176487922668,
        0.9890134334564209
      ],
      "min": [
        0.020000001415610313,
        0.020000001415610313
      ],
      "type": "VEC2"
    },
    {
      "bufferView": 1,
      "byteOffset": 20992,
      "componentType": 5126,
      "count": 1056,
      "max": [
        44.650001525878906,
        -46.364898681640625
      ],
      "min": [
        43.349998474121094,
        -47.6072998046875
      ],
      "type": "VEC2"
    },
    {
      "bufferView": 0,
      "byteOffset": 1536,
      "componentType": 5125,
      "count": 1584,
      "type": "SCALAR"
    },
    {
      "bufferView": 2,
      "byteOffset": 31488,
      "componentType": 5126,
      "count": 80,
      "max": [
        3833.1298828125,
        368.93798828125,
        202.68699645996094
      ],
      "min": [
        3406.88330078125,
        349.8291015625,
        -1468.9930419921875
      ],
      "type": "VEC3"
    },
    {
      "bufferView": 2,
      "byteOffset": 32448,
      "componentType": 5126,
      "count": 80,
      "max": [
        1.0,
        1.0,
        1.0
      ],
      "min": [
        -1.0,
        -1.0,
        -1.0
      ],
      "type": "VEC3"
    },
    {
      "bufferView": 3,
      "byteOffset": 16896,
      "componentType": 5126,
      "count": 80,
      "max": [
        1.0,
        0.0,
        1.0,
        1.0
      ],
      "min": [
        -1.0,
        0.0,
        -1.0,
        1.0
      ],
      "type": "VEC4"
    },
    {
      "bufferView": 1,
      "byteOffset": 29440,
      "componentType": 5126,
      "count": 80,
      "max": [
        44.55569839477539,
        -46.442901611328125
      ],
      "min": [
        43.44430160522461,
        -47.545101165771484
      ],
      "type": "VEC2"
    },
    {
      "bufferView": 1,
      "byteOffset": 30080,
      "componentType": 5126,
      "count": 80,
      "max": [
        0.9411163926124573,
        0.9692322611808777
      ],
      "min": [
        0.22509893774986267,
        0.33469200134277344
      ],
      "type": "VEC2"
    },
    {
      "bufferView": 1,
      "byteOffset": 30720,
      "componentType": 5126,
      "count": 80,
      "max": [
        44.55569839477539,
        -46.442901611328125
      ],
      "min": [
        43.44430160522461,
        -47.545101165771484
      ],
      "type": "VEC2"
    },
    {
      "bufferView": 0,
      "byteOffset": 7872,
      "componentType": 5125,
      "count": 120,
      "type": "SCALAR"
    }
  ],
  "asset": {
    "extras": {
      "author": "OreoDev (https://sketchfab.com/OreoDev)",
      "license": "CC-BY-4.0 (http://creativecommons.org/licenses/by/4.0/)",
      "source": "https://sketchfab.com/3d-models/scary-baboon-lunch-table-oreodev-c4cfd3345a6a46b8b1da8e207cc35be1",
      "title": "Scary Baboon Lunch Table - OreoDev"
    },
    "generator": "Sketchfab-17.8.0",
    "version": "2.0"
  },
  "bufferViews": [
    {
      "buffer": 0,
      "byteLength": 8352,
      "name": "floatBufferViews",
      "target": 34963
    },
    {
      "buffer": 0,
      "byteLength": 31360,
      "byteOffset": 8352,
      "byteStride": 8,
      "name": "floatBufferViews",
      "target": 34962
    },
    {
      "buffer": 0,
      "byteLength": 33408,
      "byteOffset": 39712,
      "byteStride": 12,
      "name": "floatBufferViews",
      "target": 34962
    },
    {
      "buffer": 0,
      "byteLength": 18176,
      "byteOffset": 73120,
      "byteStride": 16,
      "name": "floatBufferViews",
      "target": 34962
    }
  ],
  "buffers": [
    {
      "byteLength": 91296,
      "uri": "scene.bin"
    }
  ],
  "images": [
    {
      "uri": "textures/ConcreteFloor_AmbientOcclusion_36_baseColor.png"
    },
    {
      "uri": "textures/Metal044A_1K_JPG_Displacement_3_baseColor.png"
    },
    {
      "uri": "textures/Metal044A_1K_JPG_Displacement_3_normal.png"
    }
  ],
  "materials": [
    {
      "doubleSided": true,
      "name": "ConcreteFloor_AmbientOcclusion_36",
      "pbrMetallicRoughness": {
        "baseColorTexture": {
          "index": 0
        },
        "metallicFactor": 0.0,
        "roughnessFactor": 0.6
      }
    },
    {
      "doubleSided": true,
      "name": "Metal044A_1K_JPG_Displacement_3",
      "normalTexture": {
        "index": 2
      },
      "pbrMetallicRoughness": {
        "baseColorTexture": {
          "index": 1
        },
        "metallicFactor": 0.0,
        "roughnessFactor": 0.6
      }
    },
    {
      "doubleSided": true,
      "name": "Metal044A_1K_JPG_Displacement_2",
      "normalTexture": {
        "index": 2
      },
      "pbrMetallicRoughness": {
        "baseColorTexture": {
          "index": 1
        },
        "metallicFactor": 0.0,
        "roughnessFactor": 0.6
      }
    }
  ],
  "meshes": [
    {
      "name": "LongCafeTable__9__ConcreteFloor_AmbientOcclusion_36_0",
      "primitives": [
        {
          "attributes": {
            "NORMAL": 1,
            "POSITION": 0,
            "TEXCOORD_0": 2,
            "TEXCOORD_1": 3
          },
          "indices": 4,
          "material": 0,
          "mode": 4
        }
      ]
    },
    {
      "name": "LongCafeTable__9__Metal044A_1K_JPG_Displacement_3_0",
      "primitives": [
        {
          "attributes": {
            "NORMAL": 6,
            "POSITION": 5,
            "TANGENT": 7,
            "TEXCOORD_0": 8,
            "TEXCOORD_1": 9,
            "TEXCOORD_2": 10
          },
          "indices": 11,
          "material": 1,
          "mode": 4
        }
      ]
    },
    {
      "name": "LongCafeTable__9__Metal044A_1K_JPG_Displacement_2_0",
      "primitives": [
        {
          "attributes": {
            "NORMAL": 13,
            "POSITION": 12,
            "TANGENT": 14,
            "TEXCOORD_0": 15,
            "TEXCOORD_1": 16,
            "TEXCOORD_2": 17
          },
          "indices": 18,
          "material": 2,
          "mode": 4
        }
      ]
    }
  ],
  "nodes": [
    {
      "children": [
        1
      ],
      "matrix": [
        1.0,
        0.0,
        0.0,
        0.0,
        0.0,
        2.220446049250313e-16,
        -1.0,
        0.0,
        0.0,
        1.0,
        2.220446049250313e-16,
        0.0,
        0.0,
        0.0,
        0.0,
        1.0
      ],
      "name": "Sketchfab_model"
    },
    {
      "children": [
        2
      ],
      "matrix": [
        0.009999999776482582,
        0.0,
        0.0,
        0.0,
        0.0,
        0.0,
        0.009999999776482582,
        0.0,
        0.0,
        -0.009999999776482582,
        0.0,
        0.0,
        0.0,
        0.0,
        0.0,
        1.0
      ],
      "name": "9ffc253e588b47ffa012e330210855ca.fbx"
    },
    {
      "children": [
        3
      ],
      "name": "RootNode"
    },
    {
      "children": [
        4,
        5,
        6
      ],
      "matrix": [
        3.9970247318734054e-17,
        0.0,
        0.18000999093055725,
        0.0,
        0.0,
        0.18001000583171844,
        0.0,
        0.0,
        -0.18000999093055725,
        0.0,
        3.9970247318734054e-17,
        0.0,
        0.0,
        0.0,
        0.0,
        1.0
      ],
      "name": "LongCafeTable__9_"
    },
    {
      "mesh": 0,
      "name": "LongCafeTable__9__ConcreteFloor_AmbientOcclusion_36_0"
    },
    {
      "mesh": 1,
      "name": "LongCafeTable__9__Metal044A_1K_JPG_Displacement_3_0"
    },
    {
      "mesh": 2,
      "name": "LongCafeTable__9__Metal044A_1K_JPG_Displacement_2_0"
    }
  ],
  "samplers": [
    {
      "magFilter": 9729,
      "minFilter": 9987,
      "wrapS": 10497,
      "wrapT": 10497
    }
  ],
  "scene": 0,
  "scenes": [
    {
      "name": "Sketchfab_Scene",
      "nodes": [
        0
      ]
    }
  ],
  "textures": [
    {
      "sampler": 0,
      "source": 0
    },
    {
      "sampler": 0,
      "source": 1
    },
    {
      "sampler": 0,
      "source": 2
    }
  ]
}
