{
  "accessors": [
    {
      "bufferView": 2,
      "componentType": 5126,
      "count": 22932,
      "max": [
        0.988166868686676,
        0.8688648343086243,
        2.5433714389801025
      ],
      "min": [
        -0.8344748616218567,
        -0.9763016700744629,
        0.0005535532254725695
      ],
      "type": "VEC3"
    },
    {
      "bufferView": 2,
      "byteOffset": 275184,
      "componentType": 5126,
      "count": 22932,
      "max": [
        1.0,
        1.0,
        0.9999250173568726
      ],
      "min": [
        -1.0,
        -1.0,
        -1.0
      ],
      "type": "VEC3"
    },
    {
      "bufferView": 3,
      "componentType": 5126,
      "count": 22932,
      "max": [
        0.9999459981918335,
        0.9999977350234985,
        0.9999974370002747,
        1.0
      ],
      "min": [
        -0.9999675154685974,
        -0.9999437928199768,
        -0.9999223947525024,
        -1.0
      ],
      "type": "VEC4"
    },
    {
      "bufferView": 1,
      "componentType": 5126,
      "count": 22932,
      "max": [
        0.995786726474762,
        0.9960152506828308
      ],
      "min": [
        0.00398494116961956,
        0.00398494116961956
      ],
      "type": "VEC2"
    },
    {
      "bufferView": 1,
      "byteOffset": 183456,
      "componentType": 5126,
      "count": 22932,
      "max": [
        0.995786726474762,
        0.9960152506828308
      ],
      "min": [
        0.00398494116961956,
        0.00398494116961956
      ],
      "type": "VEC2"
    },
    {
      "bufferView": 1,
      "byteOffset": 366912,
      "componentType": 5126,
      "count": 22932,
      "max": [
        0.995786726474762,
        0.9960152506828308
      ],
      "min": [
        0.00398494116961956,
        0.00398494116961956
      ],
      "type": "VEC2"
    },
    {
      "bufferView": 0,
      "componentType": 5125,
      "count": 114282,
      "type": "SCALAR"
    }
  ],
  "asset": {
    "extras": {
      "author": "SomeKevin (https://sketchfab.com/SomeKevin)",
      "license": "CC-BY-4.0 (http://creativecommons.org/licenses/by/4.0/)",
      "source": "https://sketchfab.com/3d-models/palm-plant-fc5680053bb54ff6bacae64be12200ad",
      "title": "Palm Plant"
    },
    "generator": "Sketchfab-12.67.0",
    "version": "2.0"
  },
  "bufferViews": [
    {
      "buffer": 0,
      "byteLength": 457128,
      "name": "floatBufferViews",
      "target": 34963
    },
    {
      "buffer": 0,
      "byteLength": 550368,
      "byteOffset": 457128,
      "byteStride": 8,
      "name": "floatBufferViews",
      "target": 34962
    },
    {
      "buffer": 0,
      "byteLength": 550368,
      "byteOffset": 1007496,
      "byteStride": 12,
      "name": "floatBufferViews",
      "target": 34962
    },
    {
      "buffer": 0,
      "byteLength": 366912,
      "byteOffset": 1557864,
      "byteStride": 16,
      "name": "floatBufferViews",
      "target": 34962
    }
  ],
  "buffers": [
    {
      "byteLength": 1924776,
      "uri": "scene.bin"
    }
  ],
  "extensionsRequired": [
    "KHR_materials_pbrSpecularGlossiness"
  ],
  "extensionsUsed": [
    "KHR_materials_pbrSpecularGlossiness"
  ],
  "images": [
    {
      "uri": "textures/Pflanzenmaterial_diffuse.png"
    },
    {
      "uri": "textures/Pflanzenmaterial_specularGlossiness.png"
    },
    {
      "uri": "textures/Pflanzenmaterial_normal.png"
    }
  ],
  "materials": [
    {
      "doubleSided": true,
      "extensions": {
        "KHR_materials_pbrSpecularGlossiness": {
          "diffuseFactor": [
            1.0,
            1.0,
            1.0,
            1.0
          ],
          "diffuseTexture": {
            "index": 0
          },
          "glossinessFactor": 1.0,
          "specularFactor": [
            0.0,
            0.0,
            0.0
          ],
          "specularGlossinessTexture": {
            "index": 1
          }
        }
      },
      "name": "Pflanzenmaterial",
      "normalTexture": {
        "index": 2
      }
    }
  ],
  "meshes": [
    {
      "name": "Pflanze_Pflanzenmaterial_0",
      "primitives": [
        {
          "attributes": {
            "NORMAL": 1,
            "POSITION": 0,
            "TANGENT": 2,
            "TEXCOORD_0": 3,
            "TEXCOORD_1": 4,
            "TEXCOORD_2": 5
          },
          "indices": 6,
          "material": 0,
          "mode": 4
        }
      ]
    }
  ],
  "nodes": [
    {
      "children": [
        1
      ],
      "matrix": [
        1.0,
        0.0,
        0.0,
        0.0,
        0.0,
        2.220446049250313e-16,
        -1.0,
        0.0,
        0.0,
        1.0,
        2.220446049250313e-16,
        0.0,
        0.0,
        0.0,
        0.0,
        1.0
      ],
      "name": "Sketchfab_model"
    },
    {
      "children": [
        2
      ],
      "matrix": [
        1.0,
        0.0,
        0.0,
        0.0,
        0.0,
        0.0,
        1.0,
        0.0,
        0.0,
        -1.0,
        0.0,
        0.0,
        0.0,
        0.0,
        0.0,
        1.0
      ],
      "name": "0df639923a714f738de46552ef297b03.fbx"
    },
    {
      "children": [
        3
      ],
      "name": "RootNode"
    },
    {
      "children": [
        4
      ],
      "matrix": [
        30.71553237721869,
        -5.551115123125783e-15,
        -95.16593965691733,
        0.0,
        -95.16593965691607,
        -1.6292067961387602e-05,
        -30.715532377218285,
        0.0,
        -1.5504499562002394e-05,
        99.99999999999866,
        -5.004195413604862e-06,
        0.0,
        0.0,
        0.0,
        0.0,
        1.0
      ],
      "name": "Pflanze"
    },
    {
      "mesh": 0,
      "name": "Pflanze_Pflanzenmaterial_0"
    }
  ],
  "samplers": [
    {
      "magFilter": 9729,
      "minFilter": 9987,
      "wrapS": 10497,
      "wrapT": 10497
    }
  ],
  "scene": 0,
  "scenes": [
    {
      "name": "Sketchfab_Scene",
      "nodes": [
        0
      ]
    }
  ],
  "textures": [
    {
      "sampler": 0,
      "source": 0
    },
    {
      "sampler": 0,
      "source": 1
    },
    {
      "sampler": 0,
      "source": 2
    }
  ]
}
