<svg viewBox="0 0 1072.3333740234375 400" xmlns="http://www.w3.org/2000/svg"><g><g><g><g><g><line x1="41.171875" y1="376.5401906923596" x2="36.171875" y2="376.5401906923596" style="visibility: inherit;" fill="rgb(0, 0, 0)" stroke="rgb(204, 204, 204)" stroke-width="1px"></line><line x1="41.171875" y1="341.11359001875775" x2="36.171875" y2="341.11359001875775" style="visibility: inherit;" fill="rgb(0, 0, 0)" stroke="rgb(204, 204, 204)" stroke-width="1px"></line><line x1="41.171875" y1="315.9780168266382" x2="36.171875" y2="315.9780168266382" style="visibility: inherit;" fill="rgb(0, 0, 0)" stroke="rgb(204, 204, 204)" stroke-width="1px"></line><line x1="41.171875" y1="296.4813515718094" x2="36.171875" y2="296.4813515718094" style="visibility: inherit;" fill="rgb(0, 0, 0)" stroke="rgb(204, 204, 204)" stroke-width="1px"></line><line x1="41.171875" y1="280.5514161530364" x2="36.171875" y2="280.5514161530364" style="visibility: inherit;" fill="rgb(0, 0, 0)" stroke="rgb(204, 204, 204)" stroke-width="1px"></line><line x1="41.171875" y1="267.08284766563975" x2="36.171875" y2="267.08284766563975" style="visibility: inherit;" fill="rgb(0, 0, 0)" stroke="rgb(204, 204, 204)" stroke-width="1px"></line><line x1="41.171875" y1="255.41584296091693" x2="36.171875" y2="255.41584296091693" style="visibility: inherit;" fill="rgb(0, 0, 0)" stroke="rgb(204, 204, 204)" stroke-width="1px"></line><line x1="41.171875" y1="245.12481547943463" x2="36.171875" y2="245.12481547943463" style="visibility: inherit;" fill="rgb(0, 0, 0)" stroke="rgb(204, 204, 204)" stroke-width="1px"></line><line x1="41.171875" y1="235.91917770608802" x2="36.171875" y2="235.91917770608802" style="visibility: inherit;" fill="rgb(0, 0, 0)" stroke="rgb(204, 204, 204)" stroke-width="1px"></line><line x1="41.171875" y1="175.35700384036673" x2="36.171875" y2="175.35700384036673" style="visibility: inherit;" fill="rgb(0, 0, 0)" stroke="rgb(204, 204, 204)" stroke-width="1px"></line><line x1="41.171875" y1="139.93040316676493" x2="36.171875" y2="139.93040316676493" style="visibility: inherit;" fill="rgb(0, 0, 0)" stroke="rgb(204, 204, 204)" stroke-width="1px"></line><line x1="41.171875" y1="114.79482997464542" x2="36.171875" y2="114.79482997464542" style="visibility: inherit;" fill="rgb(0, 0, 0)" stroke="rgb(204, 204, 204)" stroke-width="1px"></line><line x1="41.171875" y1="95.29816471981654" x2="36.171875" y2="95.29816471981654" style="visibility: inherit;" fill="rgb(0, 0, 0)" stroke="rgb(204, 204, 204)" stroke-width="1px"></line><line x1="41.171875" y1="79.36822930104366" x2="36.171875" y2="79.36822930104366" style="visibility: inherit;" fill="rgb(0, 0, 0)" stroke="rgb(204, 204, 204)" stroke-width="1px"></line><line x1="41.171875" y1="65.89966081364686" x2="36.171875" y2="65.89966081364686" style="visibility: inherit;" fill="rgb(0, 0, 0)" stroke="rgb(204, 204, 204)" stroke-width="1px"></line><line x1="41.171875" y1="54.23265610892415" x2="36.171875" y2="54.23265610892415" style="visibility: inherit;" fill="rgb(0, 0, 0)" stroke="rgb(204, 204, 204)" stroke-width="1px"></line><line x1="41.171875" y1="43.941628627441844" x2="36.171875" y2="43.941628627441844" style="visibility: inherit;" fill="rgb(0, 0, 0)" stroke="rgb(204, 204, 204)" stroke-width="1px"></line><line x1="41.171875" y1="34.735990854095185" x2="36.171875" y2="34.735990854095185" style="visibility: inherit;" fill="rgb(0, 0, 0)" stroke="rgb(204, 204, 204)" stroke-width="1px"></line></g><g transform="translate(31.171875, 0)"><text x="0" y="376.5401906923596" dx="0em" dy="0.3em" style="text-anchor: end; visibility: hidden; font-family: Roboto, sans-serif; font-size: 12px; font-weight: 200;" fill="rgb(255, 255, 255)" stroke="none" stroke-width="1px">2</text><text x="0" y="341.11359001875775" dx="0em" dy="0.3em" style="text-anchor: end; visibility: inherit; font-family: Roboto, sans-serif; font-size: 12px; font-weight: 200;" fill="rgb(255, 255, 255)" stroke="none" stroke-width="1px">3</text><text x="0" y="315.9780168266382" dx="0em" dy="0.3em" style="text-anchor: end; visibility: hidden; font-family: Roboto, sans-serif; font-size: 12px; font-weight: 200;" fill="rgb(255, 255, 255)" stroke="none" stroke-width="1px">4</text><text x="0" y="296.4813515718094" dx="0em" dy="0.3em" style="text-anchor: end; visibility: hidden; font-family: Roboto, sans-serif; font-size: 12px; font-weight: 200;" fill="rgb(255, 255, 255)" stroke="none" stroke-width="1px">5</text><text x="0" y="280.5514161530364" dx="0em" dy="0.3em" style="text-anchor: end; visibility: inherit; font-family: Roboto, sans-serif; font-size: 12px; font-weight: 200;" fill="rgb(255, 255, 255)" stroke="none" stroke-width="1px">6</text><text x="0" y="267.08284766563975" dx="0em" dy="0.3em" style="text-anchor: end; visibility: hidden; font-family: Roboto, sans-serif; font-size: 12px; font-weight: 200;" fill="rgb(255, 255, 255)" stroke="none" stroke-width="1px">7</text><text x="0" y="255.41584296091693" dx="0em" dy="0.3em" style="text-anchor: end; visibility: hidden; font-family: Roboto, sans-serif; font-size: 12px; font-weight: 200;" fill="rgb(255, 255, 255)" stroke="none" stroke-width="1px">8</text><text x="0" y="245.12481547943463" dx="0em" dy="0.3em" style="text-anchor: end; visibility: inherit; font-family: Roboto, sans-serif; font-size: 12px; font-weight: 200;" fill="rgb(255, 255, 255)" stroke="none" stroke-width="1px">9</text><text x="0" y="235.91917770608802" dx="0em" dy="0.3em" style="text-anchor: end; visibility: hidden; font-family: Roboto, sans-serif; font-size: 12px; font-weight: 200;" fill="rgb(255, 255, 255)" stroke="none" stroke-width="1px">10</text><text x="0" y="175.35700384036673" dx="0em" dy="0.3em" style="text-anchor: end; visibility: hidden; font-family: Roboto, sans-serif; font-size: 12px; font-weight: 200;" fill="rgb(255, 255, 255)" stroke="none" stroke-width="1px">20</text><text x="0" y="139.93040316676493" dx="0em" dy="0.3em" style="text-anchor: end; visibility: inherit; font-family: Roboto, sans-serif; font-size: 12px; font-weight: 200;" fill="rgb(255, 255, 255)" stroke="none" stroke-width="1px">30</text><text x="0" y="114.79482997464542" dx="0em" dy="0.3em" style="text-anchor: end; visibility: hidden; font-family: Roboto, sans-serif; font-size: 12px; font-weight: 200;" fill="rgb(255, 255, 255)" stroke="none" stroke-width="1px">40</text><text x="0" y="95.29816471981654" dx="0em" dy="0.3em" style="text-anchor: end; visibility: hidden; font-family: Roboto, sans-serif; font-size: 12px; font-weight: 200;" fill="rgb(255, 255, 255)" stroke="none" stroke-width="1px">50</text><text x="0" y="79.36822930104366" dx="0em" dy="0.3em" style="text-anchor: end; visibility: inherit; font-family: Roboto, sans-serif; font-size: 12px; font-weight: 200;" fill="rgb(255, 255, 255)" stroke="none" stroke-width="1px">60</text><text x="0" y="65.89966081364686" dx="0em" dy="0.3em" style="text-anchor: end; visibility: hidden; font-family: Roboto, sans-serif; font-size: 12px; font-weight: 200;" fill="rgb(255, 255, 255)" stroke="none" stroke-width="1px">70</text><text x="0" y="54.23265610892415" dx="0em" dy="0.3em" style="text-anchor: end; visibility: hidden; font-family: Roboto, sans-serif; font-size: 12px; font-weight: 200;" fill="rgb(255, 255, 255)" stroke="none" stroke-width="1px">80</text><text x="0" y="43.941628627441844" dx="0em" dy="0.3em" style="text-anchor: end; visibility: inherit; font-family: Roboto, sans-serif; font-size: 12px; font-weight: 200;" fill="rgb(255, 255, 255)" stroke="none" stroke-width="1px">90</text><text x="0" y="34.735990854095185" dx="0em" dy="0.3em" style="text-anchor: end; visibility: hidden; font-family: Roboto, sans-serif; font-size: 12px; font-weight: 200;" fill="rgb(255, 255, 255)" stroke="none" stroke-width="1px">100</text></g><line x1="41.171875" y1="0" x2="41.171875" y2="377" fill="rgb(0, 0, 0)" stroke="rgb(204, 204, 204)" stroke-width="1px"></line></g></g><g transform="translate(41, 0)" clip-path="url(#clip_0)"><clipPath id="clip_0"><rect width="1031" height="377"></rect></clipPath><g><g><g><line x1="0" y1="0" x2="0" y2="377" fill="rgb(0, 0, 0)" stroke="rgb(189, 189, 189)" stroke-width="1px" opacity="0.25"></line><line x1="128.894765625" y1="0" x2="128.894765625" y2="377" fill="rgb(0, 0, 0)" stroke="rgb(189, 189, 189)" stroke-width="1px" opacity="0.25"></line><line x1="257.78953125" y1="0" x2="257.78953125" y2="377" fill="rgb(0, 0, 0)" stroke="rgb(189, 189, 189)" stroke-width="1px" opacity="0.25"></line><line x1="386.684296875" y1="0" x2="386.684296875" y2="377" fill="rgb(0, 0, 0)" stroke="rgb(189, 189, 189)" stroke-width="1px" opacity="0.25"></line><line x1="515.5790625" y1="0" x2="515.5790625" y2="377" fill="rgb(0, 0, 0)" stroke="rgb(189, 189, 189)" stroke-width="1px" opacity="0.25"></line><line x1="644.473828125" y1="0" x2="644.473828125" y2="377" fill="rgb(0, 0, 0)" stroke="rgb(189, 189, 189)" stroke-width="1px" opacity="0.25"></line><line x1="773.36859375" y1="0" x2="773.36859375" y2="377" fill="rgb(0, 0, 0)" stroke="rgb(189, 189, 189)" stroke-width="1px" opacity="0.25"></line><line x1="902.2633593749999" y1="0" x2="902.2633593749999" y2="377" fill="rgb(0, 0, 0)" stroke="rgb(189, 189, 189)" stroke-width="1px" opacity="0.25"></line><line x1="1031.158125" y1="0" x2="1031.158125" y2="377" fill="rgb(0, 0, 0)" stroke="rgb(189, 189, 189)" stroke-width="1px" opacity="0.25"></line></g><g><line x1="0" y1="376.5401906923596" x2="1031.158125" y2="376.5401906923596" fill="rgb(0, 0, 0)" stroke="rgb(189, 189, 189)" stroke-width="1px" opacity="0.25"></line><line x1="0" y1="341.11359001875775" x2="1031.158125" y2="341.11359001875775" fill="rgb(0, 0, 0)" stroke="rgb(189, 189, 189)" stroke-width="1px" opacity="0.25"></line><line x1="0" y1="315.9780168266382" x2="1031.158125" y2="315.9780168266382" fill="rgb(0, 0, 0)" stroke="rgb(189, 189, 189)" stroke-width="1px" opacity="0.25"></line><line x1="0" y1="296.4813515718094" x2="1031.158125" y2="296.4813515718094" fill="rgb(0, 0, 0)" stroke="rgb(189, 189, 189)" stroke-width="1px" opacity="0.25"></line><line x1="0" y1="280.5514161530364" x2="1031.158125" y2="280.5514161530364" fill="rgb(0, 0, 0)" stroke="rgb(189, 189, 189)" stroke-width="1px" opacity="0.25"></line><line x1="0" y1="267.08284766563975" x2="1031.158125" y2="267.08284766563975" fill="rgb(0, 0, 0)" stroke="rgb(189, 189, 189)" stroke-width="1px" opacity="0.25"></line><line x1="0" y1="255.41584296091693" x2="1031.158125" y2="255.41584296091693" fill="rgb(0, 0, 0)" stroke="rgb(189, 189, 189)" stroke-width="1px" opacity="0.25"></line><line x1="0" y1="245.12481547943463" x2="1031.158125" y2="245.12481547943463" fill="rgb(0, 0, 0)" stroke="rgb(189, 189, 189)" stroke-width="1px" opacity="0.25"></line><line x1="0" y1="235.91917770608802" x2="1031.158125" y2="235.91917770608802" fill="rgb(0, 0, 0)" stroke="rgb(189, 189, 189)" stroke-width="1px" opacity="0.25"></line><line x1="0" y1="175.35700384036673" x2="1031.158125" y2="175.35700384036673" fill="rgb(0, 0, 0)" stroke="rgb(189, 189, 189)" stroke-width="1px" opacity="0.25"></line><line x1="0" y1="139.93040316676493" x2="1031.158125" y2="139.93040316676493" fill="rgb(0, 0, 0)" stroke="rgb(189, 189, 189)" stroke-width="1px" opacity="0.25"></line><line x1="0" y1="114.79482997464542" x2="1031.158125" y2="114.79482997464542" fill="rgb(0, 0, 0)" stroke="rgb(189, 189, 189)" stroke-width="1px" opacity="0.25"></line><line x1="0" y1="95.29816471981654" x2="1031.158125" y2="95.29816471981654" fill="rgb(0, 0, 0)" stroke="rgb(189, 189, 189)" stroke-width="1px" opacity="0.25"></line><line x1="0" y1="79.36822930104366" x2="1031.158125" y2="79.36822930104366" fill="rgb(0, 0, 0)" stroke="rgb(189, 189, 189)" stroke-width="1px" opacity="0.25"></line><line x1="0" y1="65.89966081364686" x2="1031.158125" y2="65.89966081364686" fill="rgb(0, 0, 0)" stroke="rgb(189, 189, 189)" stroke-width="1px" opacity="0.25"></line><line x1="0" y1="54.23265610892415" x2="1031.158125" y2="54.23265610892415" fill="rgb(0, 0, 0)" stroke="rgb(189, 189, 189)" stroke-width="1px" opacity="0.25"></line><line x1="0" y1="43.941628627441844" x2="1031.158125" y2="43.941628627441844" fill="rgb(0, 0, 0)" stroke="rgb(189, 189, 189)" stroke-width="1px" opacity="0.25"></line><line x1="0" y1="34.735990854095185" x2="1031.158125" y2="34.735990854095185" fill="rgb(0, 0, 0)" stroke="rgb(189, 189, 189)" stroke-width="1px" opacity="0.25"></line></g></g></g><g><g><line x1="128.894765625" y1="0" x2="128.894765625" y2="377" fill="rgb(0, 0, 0)" stroke="rgb(153, 153, 153)" stroke-width="1.5px"></line></g></g><g><g><g><g><g><path stroke="rgb(255, 112, 67)" stroke-width="2px" d="M130.18371328125,414.5785526562523L131.4726609375,315.97830846513466L132.76160859375,327.72845792455416L134.05055625,324.6589677533636L135.33950390625,365.06462416529115L136.6284515625,313.01410606256087L137.91739921875,294.43355794074074L139.206346875,289.5853399701957L140.49529453125,287.39207815872544L141.7842421875,276.9852995922046M144.36213750000002,358.14688012319465L145.65108515624996,271.64294358738823L146.94003281249996,346.46912660540335M149.51792812499997,337.837039717423L150.80687578124997,343.5321906691867L152.09582343749997,464.86334008268545L153.38477109374998,311.45343458694555L154.67371874999998,350.0406473278276L155.96266640624998,223.31141342345668L157.25161406249998,259.2669664399847L158.54056171874998,330.264355123291L159.829509375,269.541554354702L161.11845703125,267.57225114285956L162.4074046875,328.02508947090377L163.69635234375,348.515429941571M166.27424765625,279.3396995082512L167.5631953125,306.27848461478163L168.85214296875,359.5024745447066L170.141090625,333.0635626155331L171.43003828125,312.257081649474L172.7189859375,284.1716113744952L174.00793359375,339.1972965496465L175.29688125,282.1573451017288L176.58582890625001,228.51427010338827L177.87477656249996,368.31818434602917L179.16372421874996,333.2492730822046L180.45267187499996,286.4682420654342L181.74161953124997,288.5718420357564L183.03056718749997,246.47222404978183L184.31951484374997,240.10606857661244L185.60846249999997,290.7983315033818L186.89741015624998,267.07830061172785L188.18635781249998,287.82933818389876L189.47530546874998,288.7075205135712L190.76425312499998,258.442185600696L192.05320078124998,315.5421798511761L193.3421484375,247.30821430664753L194.63109609375,282.02138177004855L195.92004375,367.4584587764723L197.20899140625,263.31815792182095L198.4979390625,861.5204232878185L199.78688671875,230.51520812994804L201.075834375,296.2601286357869L202.36478203125,380.9907016035466L203.6537296875,300.3454465807153L204.94267734375,256.3623535691162L206.231625,253.0612069260818L207.52057265625,269.9553837758412L208.8095203125,312.21096983655735L210.09846796874996,282.2804308245356L211.38741562499996,309.24271246847877L212.67636328124996,319.0285430897318L213.96531093749996,214.17437531173115L215.25425859374997,339.5759154590434L216.54320624999997,268.1493873162996L217.83215390624997,257.45310880274405L219.12110156249997,258.8157312422897L220.41004921874998,268.40077580844695L221.69899687499998,321.3529609872014L222.98794453124998,305.8017293105429L224.27689218749998,252.13769419741632L225.56583984374998,240.477260763699L226.8547875,296.32476570265607L228.14373515625,327.19980876589136L229.4326828125,237.0040120538931L230.72163046875,317.45086361283813L232.010578125,244.88806722236052L233.29952578125,259.63557427918613L234.5884734375,268.04924472218744L235.87742109375,328.50142479518075L237.16636875,306.29852757786716L238.45531640625,269.00682020501534L239.7442640625,275.6308633714103L241.03321171875,189.52184753181913L242.32215937499996,273.38951803776774L243.61110703124996,253.7831058804772L244.90005468749996,168.90814992300022L246.18900234374996,280.2150835472869L247.47794999999996,219.7858048805945L248.76689765624997,268.230773322643L250.05584531249997,265.4459631423236L251.34479296874997,268.289222463207L252.63374062499997,210.22824259377347L253.92268828124998,241.11328138655233L255.21163593749998,298.18429930059574L256.50058359375,323.93185364337495L257.78953125,214.52531518949814L259.0784789062499,248.92990269745496L260.3674265625,324.1187675690519L261.65637421874993,239.4188270460679L262.945321875,243.84246384173042L264.23426953124994,323.1181745113335L265.5232171875,348.04826592399473L266.81216484374994,373.04687781506624L268.1011125,219.96991993400405L269.39006015624994,258.1414235318064L270.6790078125,247.07327471314056L271.96795546874995,248.2566157544742L273.256903125,151.06164003349696L274.54585078124995,164.80194243098467L275.8347984375,261.44025118056544L277.12374609374996,376.66123657425373L278.41269375,323.14285714285717L279.70164140624996,237.31523568704748L280.9905890625,244.54081065660918L282.27953671874997,215.9739434182404L283.568484375,276.5409387910253L284.85743203124997,143.4725115771551L286.14637968750003,212.85024306849243L287.43532734375,278.6739200502618L288.72427500000003,245.09057555448643L290.01322265625,163.48358636971923L291.3021703124999,226.6571669970199L292.59111796875,200.20587614900842L293.88006562499993,178.47475636947618L295.16901328125,289.59283253084084L296.45796093749993,280.43671802633946L297.74690859375,281.11092678461955L299.03585624999994,233.57349865547974L300.32480390625,219.21836104385432L301.61375156249994,253.05207243738369L302.90269921875,271.20627436103206L304.19164687499995,265.8325845630222L305.48059453125,250.9416746958799L306.76954218749995,269.9431016428103L308.05848984375,210.5705250944888L309.34743749999996,260.644024913332L310.63638515625,160.27081064964838L311.92533281249996,277.9310202472377L313.21428046875,189.0637301890323L314.50322812499996,218.58950728284483L315.79217578125,261.4288919077532L317.08112343749997,285.3905633982144L318.37007109375,162.99025064586846L319.65901875,287.5189339787258L320.94796640625003,201.16900582421962L322.2369140625,268.26362767752505L323.5258617187499,251.41405426822573L324.814809375,217.0083748911606L326.1037570312499,264.40416495680006L327.3927046875,243.151265658792L328.68165234374993,264.0942056052082L329.9706,287.12401132565134L331.25954765624994,298.7402237319801L332.5484953125,259.37088200373705L333.83744296874994,234.79049433904848L335.126390625,186.24033474665458L336.41533828124994,211.92303661289898L337.7042859375,248.09836384502432L338.99323359374995,211.88644234880215L340.28218125,354.46310668179177L341.57112890624995,278.55863160319336L342.8600765625,229.83640897665381L344.14902421874996,311.93456023277236L345.437971875,233.89359957421968L346.72691953124996,258.4917355194956L348.0158671875,259.70871153924514L349.30481484374997,251.2113228546706L350.5937625,303.05632890281765L351.88271015624997,233.3904614147667L353.17165781250003,211.98643077010266L354.46060546875,196.42315361973974L355.7495531249999,315.26797977957597L357.03850078125,244.94391881495017L358.3274484374999,262.5055831604826L359.61639609375,265.6044769896956L360.90534374999993,225.96533732267415L362.19429140625,248.96950253175436L363.48323906249993,179.5448388011553L364.77218671875,178.16993024795346L366.06113437499994,285.713533613379L367.35008203125,268.36927113780723L368.63902968749994,221.92586603708122L369.92797734375,168.72768520058068L371.21692499999995,226.23131646521475L372.50587265625,273.4309183020973L373.79482031249995,232.65173585310228L375.08376796875,238.2567436087664L376.37271562499996,225.06670223287423L377.66166328125,223.72120550378455L378.95061093749996,239.20993523591022L380.23955859375,242.90979602910693L381.52850624999996,200.85171780757895L382.81745390625,261.2446106165432L384.10640156249997,189.49906772095355L385.39534921875,248.86938658228655L386.684296875,260.5118225508414L387.9732445312499,189.28757274786165L389.2621921875,242.30630030430714L390.5511398437499,202.68949250578956L391.8400875,249.61874946171577L393.1290351562499,232.4289912036453L394.4179828125,225.85869816974565L395.70693046874993,200.4563714266902L396.995878125,254.29414337952497L398.28482578124994,238.03975698970297L399.5737734375,163.75504195065238L400.86272109374994,258.8049625347255L402.15166875,243.4774678131418L403.44061640624994,263.5596920317788L404.7295640625,233.85339764794008L406.01851171874995,193.22422382258296L407.307459375,185.28475045374387L408.59640703124995,215.8268727730992L409.8853546875,210.09238493533502L411.17430234374996,162.0778409566924L412.46325,201.64563399864676L413.75219765624996,236.42639743115154L415.0411453125,200.11644152444524L416.33009296874997,189.61085839001285L417.619040625,208.75640215550422L418.90798828124997,168.2078628499011L420.1969359374999,195.2990241726266L421.48588359375,226.97875185150593L422.7748312499999,125.53557711414027L424.06377890625,135.77869631464984L425.3527265624999,272.4769420377181L426.64167421875,203.97431837736428L427.93062187499993,152.06494087229603L429.21956953125,209.3734437183788L430.50851718749993,203.7330299761599L431.79746484375,184.03744170590335L433.08641249999994,159.93216358202102L434.37536015625,275.0086440919047L435.66430781249994,169.32159587505888L436.95325546875,174.96208657573789L438.24220312499995,240.29566811777968L439.53115078125,230.64934533123676L440.82009843749995,189.47098569462196L442.10904609375,176.40211075354532L443.39799374999996,176.29548428108055L444.68694140625,233.57998021554852L445.97588906249996,161.25673436726592L447.26483671875,239.7463182891403L448.55378437499996,222.16474597973118L449.84273203125,201.4603165127847L451.13167968749997,234.67786024812602L452.4206273437499,226.6081222511767L453.709575,148.4739177269733L454.9985226562499,183.58230517675614L456.2874703125,216.60784401284658L458.865365625,173.3930139045042L460.1543132812499,163.33614834948375L461.4432609375,147.69207689267162L462.73220859374993,187.54800151334243L464.02115625,243.13822332164042L465.31010390624994,174.43911616986153L466.5990515625,229.9234148553023L467.88799921874994,235.16414891411495L469.176946875,160.2113203375942L470.46589453124994,241.9457865371608L471.7548421875,200.91286171843518L473.04378984374995,241.03335176985766L474.3327375,176.619085577117L475.62168515624995,210.22095260524435L476.9106328125,229.7186392911599L478.19958046874996,248.53224102141144L479.488528125,246.05252140280902L480.77747578124996,123.88768129481015L482.0664234375,204.04264574266168L483.35537109374997,305.82396283601065L484.6443187499999,157.99248998737406L485.93326640624997,161.38328158295496L487.2222140624999,192.43901231573264L488.51116171875,142.33062798253917L489.8001093749999,195.28949802098438L491.08905703125,157.24917644398874L492.3780046874999,205.67935027071965L493.66695234375,196.26882056284853L494.95589999999993,208.51178206481086L496.24484765625,232.30374356766114L497.53379531249993,251.00676320598544L498.82274296875,184.45998980919651L500.11169062499994,193.05304059977448L501.40063828125,145.18696876325393L502.68958593749994,169.84624496021823L503.97853359375,148.8019233665133L505.26748124999995,163.22249296714295L506.55642890625,131.7228907315281L507.84537656249995,163.54102419716102L509.13432421875,123.62691532380953L510.42327187499995,169.01611509226785L511.71221953125,206.20989466328297L513.0011671875,202.049639702805L514.29011484375,192.72500227854007L515.5790625,189.06932560600262L516.86801015625,235.58632031255297L518.1569578124999,162.31616487589994L519.44590546875,187.3022141785183L520.734853125,176.00094961717153L522.02380078125,198.92379546363858L523.3127484374999,223.73188790640572L524.60169609375,148.83940142983477L525.89064375,180.81872232876657L527.17959140625,131.8253236361312L528.4685390624999,138.05960016282384L529.75748671875,164.04131692126307L531.046434375,134.19180151222443L532.33538203125,122.50103783759407L533.6243296874999,218.00261392865744L534.91327734375,196.8678028531238L536.202225,220.52242470517828L537.49117265625,129.09284614185398L538.7801203124999,142.12594010843063L540.06906796875,192.03501273002078L541.358015625,194.19317455063552L542.64696328125,154.40377822704713L543.9359109374999,153.41225469201532L545.22485859375,86.4353543618217L546.51380625,86.89090271482216L547.80275390625,251.9027476482114L549.0917015624999,220.24207599927374L550.3806492187499,126.61528762333423L551.669596875,232.3657969114596L552.9585445312499,181.56667608802465L554.2474921874999,127.6016786229476L555.5364398437499,163.35477603724485L556.8253875,191.8201037921657L558.1143351562499,144.59196109542364L559.4032828124999,182.10238029057007L560.6922304687499,225.04538512202737L561.981178125,157.95708007259688L563.2701257812499,172.42953361911773L564.5590734374999,188.87260953268938L565.8480210937499,175.86726593137456L567.13696875,154.2084174357123L568.4259164062499,131.78512348092582L569.7148640624999,140.7590615247506L571.00381171875,151.91966506339017L572.2927593750001,215.21785459432695L573.58170703125,112.26153213888674L574.8706546875,198.03817574371578L576.15960234375,109.79312809398188L577.4485500000001,155.6892630043598L578.73749765625,163.60759714735383L580.0264453125,89.4696895582818L581.31539296875,133.7173486461068L582.6043406249998,162.7967347762016L583.89328828125,146.01229692239644L585.1822359375,159.42310362337298L586.47118359375,105.862994736045L587.7601312499999,157.47756287575635L589.04907890625,163.19222093376817L590.3380265625,225.37645638513007L591.62697421875,93.0744390177806L592.9159218749999,127.64111857553216L594.20486953125,162.02864593202807L595.4938171875,182.73545145491772L596.78276484375,216.69739744013418L598.0717124999999,147.83831154511142L599.36066015625,142.40737757760832L600.6496078125,191.4409331008668L601.93855546875,197.9968128460289L603.2275031249999,160.30550866689808L604.51645078125,129.38061432877575L605.8053984375,157.18148803383727L607.09434609375,179.33037298562127L608.3832937499999,129.34700529064278L609.67224140625,122.08963159446472L610.9611890625,197.8348976501891L612.2501367187499,199.3642884935639L613.5390843749999,121.90217683025685L614.8280320312499,161.69428223291223L616.1169796875,227.38003363452304L617.4059273437499,111.66198648503797L618.6948749999999,98.75215895793806L619.9838226562499,133.81958925386547L621.2727703125,136.3719982426457L622.5617179687499,91.82187492622351L623.8506656249999,145.5386232136241L625.1396132812499,140.78273586774563L626.4285609375,161.36814360199344L627.7175085937499,156.71891933173845L629.0064562499999,144.61664451026334L630.2954039062499,181.69974573238684L631.5843515625,147.84313409800058L632.8732992187499,202.69615191740803L634.1622468749999,101.29725962755985L635.4511945312499,97.57907835332371L636.7401421875,169.99447158697643L638.02908984375,93.88644446730983L639.3180375,112.42064263598562L640.60698515625,138.02616153565899L641.8959328125001,172.9453440794694L643.18488046875,111.58356873102295L644.473828125,149.71387855466867L645.76277578125,119.3267387338395L647.0517234374998,193.55439165938154L648.34067109375,185.12784562347105L649.62961875,145.1988452056948L650.91856640625,91.09191983776232L652.2075140624999,113.18308898571328L653.49646171875,133.69973910516148L654.785409375,124.14451672905192L656.07435703125,180.84429830812945L657.3633046874999,72.38001095419898L658.65225234375,103.72333866863173L659.9412,68.5218891943744L661.23014765625,90.80951627740473L662.5190953124999,80.93611045035246L663.80804296875,98.30556329051505L665.096990625,117.6144772559368L666.38593828125,139.23532167448496L667.6748859374999,151.87573451275912L668.96383359375,183.81160105290473L670.25278125,122.18979875854609L671.54172890625,113.1729624651761L672.8306765624999,109.17813882475475L674.11962421875,135.95360551544107L675.408571875,159.38234815252707L676.69751953125,124.22391648730678L677.9864671874999,117.55064551950522L679.2754148437499,146.45375117449478L680.5643625,107.80710391855645L681.8533101562499,109.0612612866516L683.1422578124999,167.44269168081328L684.4312054687499,156.40944666821233L685.720153125,105.3778521308496L687.0091007812499,82.95207371497551L688.2980484374999,118.53856709864387L689.5869960937499,188.56112949349344L690.87594375,81.30846955468617L692.1648914062499,92.66601586256473L693.4538390624999,80.86602618379897L694.7427867187499,90.47366300972047L696.031734375,133.18387390923556L697.3206820312499,61.648911157709975L698.6096296874999,128.89026520611952L699.8985773437499,86.47124072261299L701.187525,99.21753593608503L702.4764726562499,99.98627694256876L703.7654203124999,100.80256902160808L705.05436796875,108.29012909966694L706.3433156250001,58.689280682926956L707.63226328125,146.89157570515533L708.9212109375,79.40104334949645L710.21015859375,95.99138631469489L711.4991062499998,80.7055987441361L712.78805390625,56.78061933934259L714.0770015625,59.690693621064646L715.36594921875,70.18322526997058L716.6548968749998,56.45881923722889L717.94384453125,95.8752296657048L719.2327921875,82.91716408701187L720.52173984375,69.74515475164553L721.8106874999999,46.618844586221L723.09963515625,69.77390896038699L724.3885828125,69.63606641748373L725.67753046875,70.20378052173561L726.9664781249999,114.78751433313391L728.25542578125,80.710258079496L729.5443734375,90.81398059445537L730.83332109375,53.08812351150354L732.1222687499999,103.81235465778158L733.41121640625,104.65911780152885L734.7001640625,81.12438423296146L735.98911171875,64.55365349376937L737.2780593749999,74.54866997752764L738.56700703125,84.59336227076614L739.8559546875,53.71174668177258L741.1449023437499,73.72838396089327L742.4338499999999,100.72895009265078L743.7227976562499,55.49400237255847L745.0117453125,80.38402877912695L746.3006929687499,47.813171367467454L747.5896406249999,78.8841261646535L748.8785882812499,60.75685407999591L750.1675359375,70.6824272861198L751.4564835937499,69.6446938456393L752.7454312499999,54.33324577786975L754.0343789062499,97.15923791823562L755.3233265625,85.06273464737963L756.6122742187499,95.77485601955685L757.9012218749999,59.004349927880135L759.1901695312499,57.64774086679901L760.4791171875,82.61847159377379L761.7680648437499,75.94846189699183L763.0570124999999,62.28653262176188L764.3459601562499,37.88166722260663L765.6349078125,64.57393893721033L766.9238554687499,92.82354824327285L768.2128031249999,51.08434688242395L769.5017507812499,92.88599106121231L770.7906984375,116.41697075779702L772.07964609375,68.51483392796398L773.36859375,54.994367238456384L774.65754140625,56.35325246698649L775.9464890624998,136.07263523812406L777.23543671875,73.51383766815678L778.524384375,78.38745708479654L779.81333203125,92.7125345253614L781.1022796874998,72.30139285244303L782.39122734375,71.6637305100583L783.680175,73.698715149602L784.96912265625,50.293761997416674L786.2580703124999,48.696616309918255L787.54701796875,59.552162229312394L788.835965625,98.24726856964485L790.12491328125,105.22893225095632L791.4138609374999,53.85714285714279L792.70280859375,117.0585590936782L793.99175625,88.58942248619613L795.28070390625,74.23208563868216L796.5696515624999,82.28072227015794L797.85859921875,74.41071203576651L799.147546875,50.907834444347834L800.43649453125,60.38670923030948L801.7254421874999,85.51864964487925L803.01438984375,103.43384198658181L804.3033375,92.58081961393789L805.59228515625,64.60439939264296L806.8812328124999,71.31861605022874L808.1701804687499,88.62161616951856L809.459128125,71.778019737213L810.7480757812499,41.2863777336307L812.0370234374999,55.26062085760249L813.3259710937499,63.250033884994956L814.61491875,70.39725668240382L815.9038664062499,61.930391519456215L817.1928140624999,70.98939367560013L818.4817617187499,96.85577478543865L819.770709375,55.92523021076886L821.0596570312499,41.60965957636805L822.3486046874999,51.13569820655673L823.6375523437499,86.288252129012L824.9265,92.1304066336635L826.2154476562499,83.31295730778876L827.5043953124999,78.90871283151293L828.7933429687499,46.98444236468354L830.082290625,52.2125492782723L831.3712382812499,66.89618672554391L832.6601859374999,55.25177705204298L833.9491335937499,55.88048735059831L835.23808125,49.90394710371453L836.5270289062499,59.06273258316361L837.8159765624999,47.99424114608642L839.1049242187499,52.18524503484285L840.3938718749998,78.10390747836286L841.68281953125,71.81051787036193L842.9717671875,81.2765324967647L844.26071484375,34.40274664268264L845.5496624999998,84.0759483097844L846.83861015625,54.24032235863759L848.1275578125,58.84125789197353L849.41650546875,79.0746851863859L850.7054531249998,38.471185903103255L851.99440078125,63.707236544350444L853.2833484375,58.333887030354425L854.57229609375,65.62140793117344L855.8612437499999,68.31860412044358L857.15019140625,77.92414990342606L858.4391390625,50.74891485516544L859.72808671875,67.94712255445519L861.0170343749999,58.16437882016625L862.30598203125,64.03773120868144L863.5949296875,78.61204675554696L864.88387734375,97.32187121969429L866.1728249999999,66.73966077480156L867.46177265625,63.71232590917443L868.7507203125,45.46386410236709L870.0396679687499,69.89736393085094L871.3286156249999,68.64175874679286L872.6175632812499,60.15746101656309L873.9065109375,53.76748409333546L875.1954585937499,48.4615071348064L876.4844062499999,79.02819751697189L877.7733539062499,70.282945897825L879.0623015625,35.79449342535949L880.3512492187499,68.39127762806683L881.6401968749999,57.020355884846815L882.9291445312499,49.360123413352284L884.2180921875,53.916734052201534L885.5070398437499,69.83864802138947L886.7959874999999,69.70258325701997L888.0849351562499,62.08814476152123L889.3738828125,97.14655269728544L890.6628304687499,45.08057531899294L891.9517781249999,66.33869995146432L893.2407257812499,33.946678127016725L894.5296734375,111.07788943932886L895.8186210937499,64.51146585363563L897.1075687499999,74.63905107629778L898.3965164062499,48.59999517696458L899.6854640625,44.640794597729325L900.9744117187499,61.14044962551339L902.2633593749999,48.98717738741635" style="fill: none;" fill="none"></path></g></g></g></g></g></g><g transform="translate(41, 377)" clip-path="url(#clip_1)"><clipPath id="clip_1"><rect width="1031" height="23"></rect></clipPath><g><g><line x1="0" y1="0" x2="0" y2="5" style="visibility: inherit;" fill="rgb(0, 0, 0)" stroke="rgb(204, 204, 204)" stroke-width="1px"></line><line x1="128.894765625" y1="0" x2="128.894765625" y2="5" style="visibility: inherit;" fill="rgb(0, 0, 0)" stroke="rgb(204, 204, 204)" stroke-width="1px"></line><line x1="257.78953125" y1="0" x2="257.78953125" y2="5" style="visibility: inherit;" fill="rgb(0, 0, 0)" stroke="rgb(204, 204, 204)" stroke-width="1px"></line><line x1="386.684296875" y1="0" x2="386.684296875" y2="5" style="visibility: inherit;" fill="rgb(0, 0, 0)" stroke="rgb(204, 204, 204)" stroke-width="1px"></line><line x1="515.5790625" y1="0" x2="515.5790625" y2="5" style="visibility: inherit;" fill="rgb(0, 0, 0)" stroke="rgb(204, 204, 204)" stroke-width="1px"></line><line x1="644.473828125" y1="0" x2="644.473828125" y2="5" style="visibility: inherit;" fill="rgb(0, 0, 0)" stroke="rgb(204, 204, 204)" stroke-width="1px"></line><line x1="773.36859375" y1="0" x2="773.36859375" y2="5" style="visibility: inherit;" fill="rgb(0, 0, 0)" stroke="rgb(204, 204, 204)" stroke-width="1px"></line><line x1="902.2633593749999" y1="0" x2="902.2633593749999" y2="5" style="visibility: inherit;" fill="rgb(0, 0, 0)" stroke="rgb(204, 204, 204)" stroke-width="1px"></line><line x1="1031.158125" y1="0" x2="1031.158125" y2="5" style="visibility: inherit;" fill="rgb(0, 0, 0)" stroke="rgb(204, 204, 204)" stroke-width="1px"></line></g><g transform="translate(0, 8)"><text x="0" y="0" dx="0em" dy="0.95em" style="text-anchor: middle; visibility: hidden; font-family: Roboto, sans-serif; font-size: 12px; font-weight: 200;" fill="rgb(255, 255, 255)" stroke="none" stroke-width="1px">-500k</text><text x="128.894765625" y="0" dx="0em" dy="0.95em" style="text-anchor: middle; visibility: inherit; font-family: Roboto, sans-serif; font-size: 12px; font-weight: 200;" fill="rgb(255, 255, 255)" stroke="none" stroke-width="1px">0</text><text x="257.78953125" y="0" dx="0em" dy="0.95em" style="text-anchor: middle; visibility: inherit; font-family: Roboto, sans-serif; font-size: 12px; font-weight: 200;" fill="rgb(255, 255, 255)" stroke="none" stroke-width="1px">500k</text><text x="386.684296875" y="0" dx="0em" dy="0.95em" style="text-anchor: middle; visibility: inherit; font-family: Roboto, sans-serif; font-size: 12px; font-weight: 200;" fill="rgb(255, 255, 255)" stroke="none" stroke-width="1px">1M</text><text x="515.5790625" y="0" dx="0em" dy="0.95em" style="text-anchor: middle; visibility: inherit; font-family: Roboto, sans-serif; font-size: 12px; font-weight: 200;" fill="rgb(255, 255, 255)" stroke="none" stroke-width="1px">1.5M</text><text x="644.473828125" y="0" dx="0em" dy="0.95em" style="text-anchor: middle; visibility: inherit; font-family: Roboto, sans-serif; font-size: 12px; font-weight: 200;" fill="rgb(255, 255, 255)" stroke="none" stroke-width="1px">2M</text><text x="773.36859375" y="0" dx="0em" dy="0.95em" style="text-anchor: middle; visibility: inherit; font-family: Roboto, sans-serif; font-size: 12px; font-weight: 200;" fill="rgb(255, 255, 255)" stroke="none" stroke-width="1px">2.5M</text><text x="902.2633593749999" y="0" dx="0em" dy="0.95em" style="text-anchor: middle; visibility: inherit; font-family: Roboto, sans-serif; font-size: 12px; font-weight: 200;" fill="rgb(255, 255, 255)" stroke="none" stroke-width="1px">3M</text><text x="1031.158125" y="0" dx="0em" dy="0.95em" style="text-anchor: middle; visibility: hidden; font-family: Roboto, sans-serif; font-size: 12px; font-weight: 200;" fill="rgb(255, 255, 255)" stroke="none" stroke-width="1px">3.5M</text></g><line x1="0" y1="0" x2="1031.158125" y2="0" fill="rgb(0, 0, 0)" stroke="rgb(204, 204, 204)" stroke-width="1px"></line></g></g></g></g></svg>