<svg viewBox="0 0 1072.3333740234375 400" xmlns="http://www.w3.org/2000/svg"><g><g><g><g><g><line x1="41.171875" y1="272.10312224387053" x2="36.171875" y2="272.10312224387053" style="visibility: inherit;" fill="rgb(0, 0, 0)" stroke="rgb(204, 204, 204)" stroke-width="1px"></line><line x1="41.171875" y1="145.00886516768762" x2="36.171875" y2="145.00886516768762" style="visibility: inherit;" fill="rgb(0, 0, 0)" stroke="rgb(204, 204, 204)" stroke-width="1px"></line><line x1="41.171875" y1="41.165295979922305" x2="36.171875" y2="41.165295979922305" style="visibility: inherit;" fill="rgb(0, 0, 0)" stroke="rgb(204, 204, 204)" stroke-width="1px"></line></g><g transform="translate(31.171875, 0)"><text x="0" y="272.10312224387053" dx="0em" dy="0.3em" style="text-anchor: end; visibility: inherit; font-family: Roboto, sans-serif; font-size: 12px; font-weight: 200;" fill="rgb(255, 255, 255)" stroke="none" stroke-width="1px">400</text><text x="0" y="145.00886516768762" dx="0em" dy="0.3em" style="text-anchor: end; visibility: inherit; font-family: Roboto, sans-serif; font-size: 12px; font-weight: 200;" fill="rgb(255, 255, 255)" stroke="none" stroke-width="1px">500</text><text x="0" y="41.165295979922305" dx="0em" dy="0.3em" style="text-anchor: end; visibility: inherit; font-family: Roboto, sans-serif; font-size: 12px; font-weight: 200;" fill="rgb(255, 255, 255)" stroke="none" stroke-width="1px">600</text></g><line x1="41.171875" y1="0" x2="41.171875" y2="377" fill="rgb(0, 0, 0)" stroke="rgb(204, 204, 204)" stroke-width="1px"></line></g></g><g transform="translate(41, 0)" clip-path="url(#clip_0)"><clipPath id="clip_0"><rect width="1031" height="377"></rect></clipPath><g><g><g><line x1="0" y1="0" x2="0" y2="377" fill="rgb(0, 0, 0)" stroke="rgb(189, 189, 189)" stroke-width="1px" opacity="0.25"></line><line x1="128.894765625" y1="0" x2="128.894765625" y2="377" fill="rgb(0, 0, 0)" stroke="rgb(189, 189, 189)" stroke-width="1px" opacity="0.25"></line><line x1="257.78953125" y1="0" x2="257.78953125" y2="377" fill="rgb(0, 0, 0)" stroke="rgb(189, 189, 189)" stroke-width="1px" opacity="0.25"></line><line x1="386.684296875" y1="0" x2="386.684296875" y2="377" fill="rgb(0, 0, 0)" stroke="rgb(189, 189, 189)" stroke-width="1px" opacity="0.25"></line><line x1="515.5790625" y1="0" x2="515.5790625" y2="377" fill="rgb(0, 0, 0)" stroke="rgb(189, 189, 189)" stroke-width="1px" opacity="0.25"></line><line x1="644.473828125" y1="0" x2="644.473828125" y2="377" fill="rgb(0, 0, 0)" stroke="rgb(189, 189, 189)" stroke-width="1px" opacity="0.25"></line><line x1="773.36859375" y1="0" x2="773.36859375" y2="377" fill="rgb(0, 0, 0)" stroke="rgb(189, 189, 189)" stroke-width="1px" opacity="0.25"></line><line x1="902.2633593749999" y1="0" x2="902.2633593749999" y2="377" fill="rgb(0, 0, 0)" stroke="rgb(189, 189, 189)" stroke-width="1px" opacity="0.25"></line><line x1="1031.158125" y1="0" x2="1031.158125" y2="377" fill="rgb(0, 0, 0)" stroke="rgb(189, 189, 189)" stroke-width="1px" opacity="0.25"></line></g><g><line x1="0" y1="272.10312224387053" x2="1031.158125" y2="272.10312224387053" fill="rgb(0, 0, 0)" stroke="rgb(189, 189, 189)" stroke-width="1px" opacity="0.25"></line><line x1="0" y1="145.00886516768762" x2="1031.158125" y2="145.00886516768762" fill="rgb(0, 0, 0)" stroke="rgb(189, 189, 189)" stroke-width="1px" opacity="0.25"></line><line x1="0" y1="41.165295979922305" x2="1031.158125" y2="41.165295979922305" fill="rgb(0, 0, 0)" stroke="rgb(189, 189, 189)" stroke-width="1px" opacity="0.25"></line></g></g></g><g><g><line x1="128.894765625" y1="0" x2="128.894765625" y2="377" fill="rgb(0, 0, 0)" stroke="rgb(153, 153, 153)" stroke-width="1.5px"></line></g></g><g><g><g><g><g><path stroke="rgb(255, 112, 67)" stroke-width="2px" d="M130.18371328125,138.5525672432275L131.4726609375,42.11535918688109L132.76160859375,121.69739749653522L134.05055625,42.11535918688109L135.33950390625,140.47049246610243L136.6284515625,88.31254126202633L137.91739921875,84.5439709755504L139.206346875,153.03908745747657L140.49529453125,100.23791249451945L141.7842421875,88.65635534288546L143.07318984375001,240.03586094330927L144.36213750000002,108.60621492385616L145.65108515624996,163.06235256983135L146.94003281249996,62.98945671355692L148.22898046874997,146.14913133534125L149.51792812499997,146.83439537375193L150.80687578124997,66.28685912995643L152.09582343749997,125.35396712213563L153.38477109374998,59.602105821465145L154.67371874999998,57.86165965566456L155.96266640624998,120.48378348450998L157.25161406249998,165.56911422543124L158.54056171874998,88.65635534288546L159.829509375,111.17666787998058L161.11845703125,125.19500182206477L162.4074046875,96.3899375180323L163.69635234375,70.26905836810269L164.9853,129.52659933229882L166.27424765625,156.62125821721335L167.5631953125,75.90251388887219L168.85214296875,164.06803285214744L170.141090625,156.166983908439L171.43003828125,127.84159812444905L172.7189859375,106.47301857066996L174.00793359375,42.11535918688109L175.29688125,42.11535918688109L176.58582890625001,94.88114692499119L177.87477656249996,136.9654759933312L179.16372421874996,147.4996747298617L180.45267187499996,119.75681448844459L181.74161953124997,112.41838949358923L183.03056718749997,42.855387975465746L184.31951484374997,56.194209097228025L185.60846249999997,48.81054849465764L186.89741015624998,42.11535918688109L188.18635781249998,150.00142495351577L189.47530546874998,128.66503144481612L190.76425312499998,183.8979501914514L192.05320078124998,82.61225725430556L193.3421484375,70.60214816067283L194.63109609375,117.21980457768478L195.92004375,118.54732401952589L197.20899140625,97.28545880369815L198.4979390625,93.05854453607591L199.78688671875,58.187629499876664L201.075834375,130.38947247353545L202.36478203125,130.72263397947387L203.6537296875,180.25079091693684L204.94267734375,125.30507066184266L206.231625,140.01864470490543L207.52057265625,167.54803697259095L208.8095203125,170.99525295855318L210.09846796874996,94.88114692499119L211.38741562499996,98.64891514218291L212.67636328124996,181.46391759602318L213.96531093749996,52.77961674628236L215.25425859374997,199.86383853366704L216.54320624999997,145.3506914726276L217.83215390624997,180.25079091693684L219.12110156249997,117.54534878678564L220.41004921874998,95.22895028635934L221.69899687499998,74.72657812872673L222.98794453124998,67.26597208218222L224.27689218749998,42.11535918688109L225.56583984374998,176.62683747887132L226.8547875,102.23044580328893L228.14373515625,117.54534878678564L229.4326828125,118.1849904166461L230.72163046875,118.95823875876019L232.010578125,124.53530338737814L233.29952578125,148.4365350543746L234.5884734375,128.9479752672405L235.87742109375,185.48565278770428L237.16636875,146.14913133534125L238.45531640625,84.5439709755504L239.7442640625,112.05993275658639L241.03321171875,165.4617576836532L242.32215937499996,108.60621492385616L243.61110703124996,127.39962136212614L244.90005468749996,72.15922960699444L246.18900234374996,112.41838949358923L247.47794999999996,92.56772174954169L248.76689765624997,72.15922960699444L250.05584531249997,161.93040383182517L251.34479296874997,226.59343046014445L252.63374062499997,71.38015678666135L253.92268828124998,139.34152725898429L255.21163593749998,119.39371088285688L256.50058359375,90.95391595010027L257.78953125,129.28029440048462L259.0784789062499,47.729213955201864L260.3674265625,191.36606823218128L261.65637421874993,42.11535918688109L262.945321875,129.9455149215855L264.23426953124994,74.39106825927962L265.5232171875,131.05599047982625L266.81216484374994,153.03908745747657L268.1011125,95.22895028635934L269.39006015624994,59.27538548711837L270.6790078125,44.975094536098275L271.96795546874995,134.40050123031864L273.256903125,142.73515851340136L274.54585078124995,118.74069388234284L275.8347984375,141.94148688067963L277.12374609374996,107.30163859314196L278.41269375,148.4365350543746L279.70164140624996,140.13158166060393L280.9905890625,122.91366985932905L282.27953671874997,87.1678862431647L283.568484375,111.49877530939693L284.85743203124997,60.597121162116174L286.14637968750003,96.6572900801632L287.43532734375,81.86126601123615L288.72427500000003,140.67600578073342L290.01322265625,120.96894548112661L291.3021703124999,113.61498687875209L292.59111796875,133.83156458698554L293.88006562499993,121.33305503057103L295.16901328125,140.92269897355698L296.45796093749993,114.45407041222981L297.74690859375,101.87834192320292L299.03585624999994,174.44167836014267L300.32480390625,147.749341867165L301.61375156249994,115.29439191298782L302.90269921875,178.8204123797249L304.19164687499995,173.46108889344433L305.48059453125,89.8039455783087L306.76954218749995,71.04661182407777L308.05848984375,141.94148688067963L309.34743749999996,42.11535918688109L310.63638515625,87.96887169671982L311.92533281249996,143.87087725563222L313.21428046875,181.1327984293681L314.50322812499996,47.60919230045216L315.79217578125,52.914218261472996L317.08112343749997,182.8824931441136L318.37007109375,105.52746097187512L319.65901875,96.97128784130652L320.94796640625003,115.65489070769328L322.2369140625,81.4790518639039L323.5258617187499,164.06803285214744L324.814809375,61.45720962748058L326.1037570312499,203.63920055044068L327.3927046875,98.01924169813873L328.68165234374993,73.51124036203312L329.9706,138.21479541674117L331.25954765624994,160.7155722918736L332.5484953125,120.48378348450998L333.83744296874994,45.333573155196795L335.126390625,135.5604258271362L336.41533828124994,49.65300809327496L337.7042859375,106.94638668385808L338.99323359374995,157.6791356089144L340.28218125,148.4365350543746L341.57112890624995,91.41455500168857L342.8600765625,97.55323215275224L344.14902421874996,204.3283478204752L345.437971875,144.2120210681666L346.72691953124996,68.13619801237118L348.0158671875,142.01361831358335L349.30481484374997,82.75409775235816L350.5937625,189.2076575945793L351.88271015624997,130.38947247353545L353.17165781250003,70.26905836810269L354.46060546875,109.67581666638235L355.7495531249999,136.75338211143887L357.03850078125,83.2933017254842L358.3274484374999,49.23832181458693L359.61639609375,182.67963366166035L360.90534374999993,126.73736595618776L362.19429140625,42.11535918688109L363.48323906249993,159.89646401505107L364.77218671875,113.4353204845234L366.06113437499994,82.15874186408352L367.35008203125,133.97826325579328L368.63902968749994,91.76024727797956L369.92797734375,108.60621492385616L371.21692499999995,65.5157116510928L372.50587265625,140.8096050560792L373.79482031249995,138.08973665231835L375.08376796875,84.20262963625169L376.37271562499996,98.64891514218291L377.66166328125,121.33305503057103L378.95061093749996,83.74778420895231L380.23955859375,113.6509137991493L381.52850624999996,101.05756880421262L382.81745390625,181.8283451935209L384.10640156249997,156.30426712810782L385.39534921875,115.65489070769328L386.684296875,124.53530338737814L387.9732445312499,96.73866372590807L389.2621921875,138.21479541674117L390.5511398437499,120.48378348450998L391.8400875,63.551419173749586L393.1290351562499,100.23791249451945L394.4179828125,116.56927384085944L395.70693046874993,122.06203995844751L396.995878125,42.11535918688109L398.28482578124994,100.70612470399485L399.5737734375,159.07856766802578L400.86272109374994,84.65777605101798L402.15166875,118.54732401952589L403.44061640624994,68.71706791035304L404.7295640625,42.11535918688109L406.01851171874995,112.89672681743042L407.307459375,153.84838606104273L408.59640703124995,119.39371088285688L409.8853546875,116.49698705534993L411.17430234374996,211.3821872470131L412.46325,86.49367682342405L413.75219765624996,155.61223166954326L415.0411453125,96.97128784130652L416.33009296874997,118.90988827164261L417.619040625,87.1678862431647L418.90798828124997,132.61432983582685L420.1969359374999,207.78653108936132L421.48588359375,113.97442394219617L422.7748312499999,140.21941018813123L424.06377890625,209.4655412638831L425.3527265624999,143.52993765139198L426.64167421875,90.95391595010027L427.93062187499993,179.52414584618262L429.21956953125,161.93040383182517L430.50851718749993,112.89672681743042L431.79746484375,195.43409021913646L433.08641249999994,149.35406092765862L434.37536015625,70.26905836810269L435.66430781249994,148.09285229712992L436.95325546875,160.7155722918736L438.24220312499995,70.71320105236036L439.53115078125,60.228909042509414L440.82009843749995,213.9477896054532L442.10904609375,109.03384072240519L443.39799374999996,126.62702000176355L444.68694140625,146.60587078739195L445.97588906249996,144.37638441097874L447.26483671875,42.11535918688109L448.55378437499996,141.979280399226L449.84273203125,96.6572900801632L451.13167968749997,78.7684359419209L452.4206273437499,115.77515172786362L453.709575,172.26487069495286L454.9985226562499,133.60594808135593L456.2874703125,130.83377634740745L458.865365625,87.85440316681151L460.1543132812499,140.72168547834062L461.4432609375,186.1383339838924L462.73220859374993,42.11535918688109L464.02115625,73.60893874273506L465.31010390624994,207.43975473530134L466.5990515625,42.11535918688109L467.88799921874994,167.28954050055077L469.176946875,212.27884972951583L470.46589453124994,138.21479541674117L471.7548421875,99.06912726824213L473.04378984374995,140.13158166060393L474.3327375,229.34871202708322L475.62168515624995,118.30572056060271L476.9106328125,150.7331622004449L478.19958046874996,107.42014854429655L479.488528125,142.73515851340136L480.77747578124996,181.79522937302798L482.0664234375,130.26615385428704L483.35537109374997,213.09131714901858L484.6443187499999,135.18369259419322L485.93326640624997,209.17571279709085L487.2222140624999,198.09916661494017L488.51116171875,201.34812335683594L489.8001093749999,112.89672681743042L491.08905703125,158.02865361793704L492.3780046874999,107.30163859314196L493.66695234375,120.48378348450998L494.95589999999993,57.78022616290353L496.24484765625,154.51137979493546L497.53379531249993,112.89672681743042L498.82274296875,59.711094165612295L500.11169062499994,42.11535918688109L501.40063828125,101.40916549098642L502.68958593749994,74.39106825927962L503.97853359375,117.87107917316418L505.26748124999995,125.23166668729058L506.55642890625,219.11392716006318L507.84537656249995,158.61168442560333L509.13432421875,164.357222456368L510.42327187499995,189.2449643019957L511.71221953125,162.00511184592287L513.0011671875,63.64742383197911L514.29011484375,177.39361704463917L515.5790625,42.11535918688109L516.86801015625,110.15185526446461L518.1569578124999,150.31489147424685L519.44590546875,118.42647630113727L520.734853125,227.07166738037893L522.02380078125,86.36802564687314L523.3127484374999,160.22610111521738L524.60169609375,113.61498687875209L525.89064375,140.47049246610243L527.17959140625,153.154636200623L528.4685390624999,212.43034827265848L529.75748671875,240.7092357301668L531.046434375,208.3649224247037L532.33538203125,136.97795254767138L533.6243296874999,122.67020751499402L534.91327734375,127.0683974050151L536.202225,194.86863782745215L537.49117265625,137.09028812054913L538.7801203124999,99.69996311501588L540.06906796875,120.12021627889918L541.358015625,46.170901736868345L542.64696328125,179.92037605483696L543.9359109374999,152.6926170471235L545.22485859375,187.01091326922756L546.51380625,299.0166197988165L547.80275390625,153.45936428790736L549.0917015624999,65.901154880678L550.3806492187499,195.66039045705918L551.669596875,134.51232954796427L552.9585445312499,122.23222401744471L554.2474921874999,63.551419173749586L555.5364398437499,144.66724388869187L556.8253875,133.73002609955523L558.1143351562499,175.423958973679L559.4032828124999,143.87087725563222L560.6922304687499,102.54753196448407L561.981178125,127.0683974050151L563.2701257812499,72.49342696435296L564.5590734374999,189.2449643019957L565.8480210937499,42.11535918688109L567.13696875,134.06514795572068L568.4259164062499,133.39510130792556L569.7148640624999,147.9783257994395L571.00381171875,153.84838606104273L572.2927593750001,127.0683974050151L573.58170703125,229.8292690201004L574.8706546875,162.6776742949162L576.15960234375,198.22422919699443L577.4485500000001,146.94869206006427L578.73749765625,168.69121669842036L580.0264453125,101.05756880421262L581.31539296875,212.02250520147857L582.6043406249998,160.59847957331286L583.89328828125,96.97128784130652L585.1822359375,133.97826325579328L586.47118359375,205.65149066862952L587.7601312499999,108.84373792388237L589.04907890625,203.9836699555195L590.3380265625,79.2193206901259L591.62697421875,173.02579643906847L592.9159218749999,119.39371088285688L594.20486953125,98.36896721510337L595.4938171875,53.85714285714308L596.78276484375,195.54724809329946L598.0717124999999,280.71128751628646L599.36066015625,56.45149369653698L600.6496078125,114.45407041222981L601.93855546875,99.06912726824213L603.2275031249999,162.35729546557795L604.51645078125,262.10536351558005L605.8053984375,135.71889091927994L607.09434609375,91.76024727797956L608.3832937499999,172.5473805576677L609.67224140625,115.65489070769328L610.9611890625,82.27207129306066L612.2501367187499,94.5682990229726L613.5390843749999,215.5864941610947L614.8280320312499,148.4365350543746L616.1169796875,54.126828386334935L617.4059273437499,100.1209516862987L618.6948749999999,158.9618109730283L619.9838226562499,228.86860043020766L621.2727703125,175.64248195564983L622.5617179687499,235.38485213777682L623.8506656249999,58.62244679247777L625.1396132812499,119.75681448844459L626.4285609375,230.36034537590777L627.7175085937499,135.18369259419322L629.0064562499999,142.73515851340136L630.2954039062499,84.20262963625169L631.5843515625,107.30163859314196L632.8732992187499,42.94796648218328L634.1622468749999,198.9333726422155L635.4511945312499,183.4103182495156L636.7401421875,155.58644897419043L638.02908984375,210.74258834711122L639.3180375,184.63020042060484L640.60698515625,142.73515851340136L641.8959328125001,131.72335730143072L643.18488046875,279.9334374599016L644.473828125,183.16664016072494L645.76277578125,259.3228766499526L647.0517234374998,132.28006028202336L648.34067109375,210.56829104920504L649.62961875,100.82327008959237L650.91856640625,150.38809124656316L652.2075140624999,235.26349703874607L653.49646171875,250.185875397193L654.785409375,147.29168489904671L656.07435703125,81.93208839532349L657.3633046874999,205.70907158944107L658.65225234375,223.23726677679758L659.9412,290.92139273944673L661.23014765625,49.773461252338215L662.5190953124999,163.65056161487024L663.80804296875,263.62312301178906L665.096990625,94.07038835698619L666.38593828125,131.1301489803691L667.6748859374999,156.30426712810782L668.96383359375,105.76370324691327L670.25278125,148.09285229712992L671.54172890625,242.95957169206756L672.8306765624999,106.11828295784375L674.11962421875,139.34152725898429L675.408571875,168.9719591002339L676.69751953125,161.29070147603767L677.9864671874999,252.16551561676403L679.2754148437499,249.87858505518255L680.5643625,187.93697030319174L681.8533101562499,182.23724130121792L683.1422578124999,84.88551700481553L684.4312054687499,165.7838880347749L685.720153125,201.34812335683594L687.0091007812499,305.2031369337845L688.2980484374999,110.53293355218649L689.5869960937499,185.45232364414431L690.87594375,338.96891013573793L692.1648914062499,148.32193943576806L693.4538390624999,351.5385484866852L694.7427867187499,206.60261155846973L696.031734375,108.60621492385616L697.3206820312499,260.8242831757382L698.6096296874999,147.6348844140756L699.8985773437499,237.93921858933584L701.187525,167.93601988225535L702.4764726562499,82.37128418770018L703.7654203124999,264.4253425894055L705.05436796875,321.9802733952645L706.3433156250001,143.30273480402536L707.63226328125,251.24964956750443L708.9212109375,140.47049246610243L710.21015859375,160.36436632845633L711.4991062499998,244.54010967836993L712.78805390625,203.86882367073844L714.0770015625,243.52353732709824L715.36594921875,142.84863545915428L716.6548968749998,202.7216711629222L717.94384453125,186.67659191770232L719.2327921875,239.52626298638037L720.52173984375,165.7838880347749L721.8106874999999,260.7079485934664L723.09963515625,219.82202704419137L724.3885828125,146.49164286894978L725.67753046875,142.39489786889172L726.9664781249999,200.89099641520485L728.25542578125,298.9017826501269L729.5443734375,240.1480074147889L730.83332109375,297.06780263535205L732.1222687499999,221.2803781462553L733.41121640625,236.23502179104375L734.7001640625,191.93737620481932L735.98911171875,191.63384229633996L737.2780593749999,325.14878830393627L738.56700703125,241.38340756767815L739.8559546875,239.36328132467742L741.1449023437499,290.43100946791225L742.4338499999999,279.3705514115666L743.7227976562499,174.1037128681115L745.0117453125,201.80561747995174L746.3006929687499,211.26583955170327L747.5896406249999,221.71467487759702L748.8785882812499,214.41552122633735L750.1675359375,179.70020592115327L751.4564835937499,217.3474601540017L752.7454312499999,242.46781242587792L754.0343789062499,240.03586094330927L755.3233265625,296.73274952831053L756.6122742187499,285.737380344793L757.9012218749999,282.76288360607424L759.1901695312499,179.59018970136438L760.4791171875,202.87064846270997L761.7680648437499,220.41281657249604L763.0570124999999,247.37349296987594L764.3459601562499,206.1700834572918L765.6349078125,265.67717517665756L766.9238554687499,215.93822844244988L768.2128031249999,305.4837230370126L769.5017507812499,251.24964956750443L770.7906984375,170.31280263967847L772.07964609375,260.01052473532184L773.36859375,301.9427205388846L774.65754140625,226.62331853606335L775.9464890624998,119.7205003600969L777.23543671875,196.56664385227893L778.524384375,164.82880524502582L779.81333203125,180.47117402881702L781.1022796874998,307.34504799311975L782.39122734375,204.51224590253855L783.680175,264.92725594213465L784.96912265625,323.99638666645603L786.2580703124999,215.23493763462696L787.54701796875,231.27333711206046L788.835965625,160.97110165063555L790.12491328125,342.55225079159896L791.4138609374999,217.9258882517535L792.70280859375,197.133747257188L793.99175625,219.2318892903359L795.28070390625,323.14285714285694L796.5696515624999,295.1066727863848L797.85859921875,305.2282831599971L799.147546875,239.15961980974228L800.43649453125,288.6616822130768L801.7254421874999,301.08733759747685L803.01438984375,246.29001576649847L804.3033375,288.7744282201968L805.59228515625,243.2718668756946L806.8812328124999,292.8871138051413L808.1701804687499,209.2916342698764L809.459128125,190.95429872321608L810.7480757812499,261.4062274871839L812.0370234374999,396.4072413052964L813.3259710937499,250.50215916221413L814.61491875,377.65793044923157L815.9038664062499,267.37641883879616L817.1928140624999,199.40790084131967L818.4817617187499,216.75987947781962L819.770709375,438.9794427533862L821.0596570312499,328.28318258773515L822.3486046874999,276.1518960631093L823.6375523437499,237.9087307841965L824.9265,98.36896721510337L826.2154476562499,227.17133055609273L827.5043953124999,283.05127621077423L828.7933429687499,437.85783140015405L830.082290625,336.4231554405732L831.3712382812499,214.9128778236662L832.6601859374999,368.1485132144051L833.9491335937499,306.76273602546604L835.23808125,386.060244643135L836.5270289062499,187.34546842144462L837.8159765624999,324.3678775036004L839.1049242187499,324.25638576026137L840.3938718749998,313.69190843434683L841.68281953125,272.9800507233237L842.9717671875,290.0164234424196L844.26071484375,205.01829131435395L845.5496624999998,318.880280104097L846.83861015625,318.52366462955126L848.1275578125,338.3621566229225L849.41650546875,271.8841117843337L850.7054531249998,397.5470467828921L851.99440078125,371.726243806968L853.2833484375,339.50587126269556L854.57229609375,287.0851755466779L855.8612437499999,266.78834563426676L857.15019140625,289.112889756133L858.4391390625,230.80158343567155L859.72808671875,309.368379121463L861.0170343749999,330.5326229377636L862.30598203125,220.7675846609503L863.5949296875,178.71052907007552L864.88387734375,319.35613073881507L866.1728249999999,279.9334374599016L867.46177265625,301.89464153368755L868.7507203125,333.0173552640943L870.0396679687499,241.15856750665196L871.3286156249999,142.39489786889172L872.6175632812499,242.7136389859875L873.9065109375,274.73796860007343L875.1954585937499,294.4892303723235L876.4844062499999,357.1238779055108L877.7733539062499,373.5595304356935L879.0623015625,276.7221224276257L880.3512492187499,244.3140616538677L881.6401968749999,335.96783470391506L882.9291445312499,353.52978818532955L884.2180921875,257.46061374496634L885.5070398437499,205.13336963456362L886.7959874999999,285.06465465028316L888.0849351562499,229.25866278889893L889.3738828125,250.44944694734968L890.6628304687499,371.8605252375052L891.9517781249999,412.1361515210444L893.2407257812499,313.7901299923305L894.5296734375,295.1256760642608L895.8186210937499,402.4325892827706L897.1075687499999,252.7386754197579L898.3965164062499,287.1320204891543L899.6854640625,469.6057796512401L900.9744117187499,223.01951567855698L902.2633593749999,440.8912950050201" style="fill: none;" fill="none"></path></g></g></g></g></g></g><g transform="translate(41, 377)" clip-path="url(#clip_1)"><clipPath id="clip_1"><rect width="1031" height="23"></rect></clipPath><g><g><line x1="0" y1="0" x2="0" y2="5" style="visibility: inherit;" fill="rgb(0, 0, 0)" stroke="rgb(204, 204, 204)" stroke-width="1px"></line><line x1="128.894765625" y1="0" x2="128.894765625" y2="5" style="visibility: inherit;" fill="rgb(0, 0, 0)" stroke="rgb(204, 204, 204)" stroke-width="1px"></line><line x1="257.78953125" y1="0" x2="257.78953125" y2="5" style="visibility: inherit;" fill="rgb(0, 0, 0)" stroke="rgb(204, 204, 204)" stroke-width="1px"></line><line x1="386.684296875" y1="0" x2="386.684296875" y2="5" style="visibility: inherit;" fill="rgb(0, 0, 0)" stroke="rgb(204, 204, 204)" stroke-width="1px"></line><line x1="515.5790625" y1="0" x2="515.5790625" y2="5" style="visibility: inherit;" fill="rgb(0, 0, 0)" stroke="rgb(204, 204, 204)" stroke-width="1px"></line><line x1="644.473828125" y1="0" x2="644.473828125" y2="5" style="visibility: inherit;" fill="rgb(0, 0, 0)" stroke="rgb(204, 204, 204)" stroke-width="1px"></line><line x1="773.36859375" y1="0" x2="773.36859375" y2="5" style="visibility: inherit;" fill="rgb(0, 0, 0)" stroke="rgb(204, 204, 204)" stroke-width="1px"></line><line x1="902.2633593749999" y1="0" x2="902.2633593749999" y2="5" style="visibility: inherit;" fill="rgb(0, 0, 0)" stroke="rgb(204, 204, 204)" stroke-width="1px"></line><line x1="1031.158125" y1="0" x2="1031.158125" y2="5" style="visibility: inherit;" fill="rgb(0, 0, 0)" stroke="rgb(204, 204, 204)" stroke-width="1px"></line></g><g transform="translate(0, 8)"><text x="0" y="0" dx="0em" dy="0.95em" style="text-anchor: middle; visibility: hidden; font-family: Roboto, sans-serif; font-size: 12px; font-weight: 200;" fill="rgb(255, 255, 255)" stroke="none" stroke-width="1px">-500k</text><text x="128.894765625" y="0" dx="0em" dy="0.95em" style="text-anchor: middle; visibility: inherit; font-family: Roboto, sans-serif; font-size: 12px; font-weight: 200;" fill="rgb(255, 255, 255)" stroke="none" stroke-width="1px">0</text><text x="257.78953125" y="0" dx="0em" dy="0.95em" style="text-anchor: middle; visibility: inherit; font-family: Roboto, sans-serif; font-size: 12px; font-weight: 200;" fill="rgb(255, 255, 255)" stroke="none" stroke-width="1px">500k</text><text x="386.684296875" y="0" dx="0em" dy="0.95em" style="text-anchor: middle; visibility: inherit; font-family: Roboto, sans-serif; font-size: 12px; font-weight: 200;" fill="rgb(255, 255, 255)" stroke="none" stroke-width="1px">1M</text><text x="515.5790625" y="0" dx="0em" dy="0.95em" style="text-anchor: middle; visibility: inherit; font-family: Roboto, sans-serif; font-size: 12px; font-weight: 200;" fill="rgb(255, 255, 255)" stroke="none" stroke-width="1px">1.5M</text><text x="644.473828125" y="0" dx="0em" dy="0.95em" style="text-anchor: middle; visibility: inherit; font-family: Roboto, sans-serif; font-size: 12px; font-weight: 200;" fill="rgb(255, 255, 255)" stroke="none" stroke-width="1px">2M</text><text x="773.36859375" y="0" dx="0em" dy="0.95em" style="text-anchor: middle; visibility: inherit; font-family: Roboto, sans-serif; font-size: 12px; font-weight: 200;" fill="rgb(255, 255, 255)" stroke="none" stroke-width="1px">2.5M</text><text x="902.2633593749999" y="0" dx="0em" dy="0.95em" style="text-anchor: middle; visibility: inherit; font-family: Roboto, sans-serif; font-size: 12px; font-weight: 200;" fill="rgb(255, 255, 255)" stroke="none" stroke-width="1px">3M</text><text x="1031.158125" y="0" dx="0em" dy="0.95em" style="text-anchor: middle; visibility: hidden; font-family: Roboto, sans-serif; font-size: 12px; font-weight: 200;" fill="rgb(255, 255, 255)" stroke="none" stroke-width="1px">3.5M</text></g><line x1="0" y1="0" x2="1031.158125" y2="0" fill="rgb(0, 0, 0)" stroke="rgb(204, 204, 204)" stroke-width="1px"></line></g></g></g></g></svg>