<svg viewBox="0 0 1072.3333740234375 400" xmlns="http://www.w3.org/2000/svg"><g><g><g><g><g><line x1="51.5625" y1="375.4350484487719" x2="46.5625" y2="375.4350484487719" style="visibility: inherit;" fill="rgb(0, 0, 0)" stroke="rgb(204, 204, 204)" stroke-width="1px"></line><line x1="51.5625" y1="367.2732031106" x2="46.5625" y2="367.2732031106" style="visibility: inherit;" fill="rgb(0, 0, 0)" stroke="rgb(204, 204, 204)" stroke-width="1px"></line><line x1="51.5625" y1="360.2030910902485" x2="46.5625" y2="360.2030910902485" style="visibility: inherit;" fill="rgb(0, 0, 0)" stroke="rgb(204, 204, 204)" stroke-width="1px"></line><line x1="51.5625" y1="353.96681031896" x2="46.5625" y2="353.96681031896" style="visibility: inherit;" fill="rgb(0, 0, 0)" stroke="rgb(204, 204, 204)" stroke-width="1px"></line><line x1="51.5625" y1="348.38826707469497" x2="46.5625" y2="348.38826707469497" style="visibility: inherit;" fill="rgb(0, 0, 0)" stroke="rgb(204, 204, 204)" stroke-width="1px"></line><line x1="51.5625" y1="311.6880715863597" x2="46.5625" y2="311.6880715863597" style="visibility: inherit;" fill="rgb(0, 0, 0)" stroke="rgb(204, 204, 204)" stroke-width="1px"></line><line x1="51.5625" y1="290.21983345654786" x2="46.5625" y2="290.21983345654786" style="visibility: inherit;" fill="rgb(0, 0, 0)" stroke="rgb(204, 204, 204)" stroke-width="1px"></line><line x1="51.5625" y1="274.98787609802446" x2="46.5625" y2="274.98787609802446" style="visibility: inherit;" fill="rgb(0, 0, 0)" stroke="rgb(204, 204, 204)" stroke-width="1px"></line><line x1="51.5625" y1="263.1730520824709" x2="46.5625" y2="263.1730520824709" style="visibility: inherit;" fill="rgb(0, 0, 0)" stroke="rgb(204, 204, 204)" stroke-width="1px"></line><line x1="51.5625" y1="253.51963796821255" x2="46.5625" y2="253.51963796821255" style="visibility: inherit;" fill="rgb(0, 0, 0)" stroke="rgb(204, 204, 204)" stroke-width="1px"></line><line x1="51.5625" y1="245.3577926300407" x2="46.5625" y2="245.3577926300407" style="visibility: inherit;" fill="rgb(0, 0, 0)" stroke="rgb(204, 204, 204)" stroke-width="1px"></line><line x1="51.5625" y1="238.2876806096892" x2="46.5625" y2="238.2876806096892" style="visibility: inherit;" fill="rgb(0, 0, 0)" stroke="rgb(204, 204, 204)" stroke-width="1px"></line><line x1="51.5625" y1="232.05139983840073" x2="46.5625" y2="232.05139983840073" style="visibility: inherit;" fill="rgb(0, 0, 0)" stroke="rgb(204, 204, 204)" stroke-width="1px"></line><line x1="51.5625" y1="226.47285659413566" x2="46.5625" y2="226.47285659413566" style="visibility: inherit;" fill="rgb(0, 0, 0)" stroke="rgb(204, 204, 204)" stroke-width="1px"></line><line x1="51.5625" y1="189.7726611058004" x2="46.5625" y2="189.7726611058004" style="visibility: inherit;" fill="rgb(0, 0, 0)" stroke="rgb(204, 204, 204)" stroke-width="1px"></line><line x1="51.5625" y1="168.30442297598856" x2="46.5625" y2="168.30442297598856" style="visibility: inherit;" fill="rgb(0, 0, 0)" stroke="rgb(204, 204, 204)" stroke-width="1px"></line><line x1="51.5625" y1="153.07246561746516" x2="46.5625" y2="153.07246561746516" style="visibility: inherit;" fill="rgb(0, 0, 0)" stroke="rgb(204, 204, 204)" stroke-width="1px"></line><line x1="51.5625" y1="141.25764160191162" x2="46.5625" y2="141.25764160191162" style="visibility: inherit;" fill="rgb(0, 0, 0)" stroke="rgb(204, 204, 204)" stroke-width="1px"></line><line x1="51.5625" y1="131.60422748765333" x2="46.5625" y2="131.60422748765333" style="visibility: inherit;" fill="rgb(0, 0, 0)" stroke="rgb(204, 204, 204)" stroke-width="1px"></line><line x1="51.5625" y1="123.44238214948145" x2="46.5625" y2="123.44238214948145" style="visibility: inherit;" fill="rgb(0, 0, 0)" stroke="rgb(204, 204, 204)" stroke-width="1px"></line><line x1="51.5625" y1="116.3722701291299" x2="46.5625" y2="116.3722701291299" style="visibility: inherit;" fill="rgb(0, 0, 0)" stroke="rgb(204, 204, 204)" stroke-width="1px"></line><line x1="51.5625" y1="110.13598935784138" x2="46.5625" y2="110.13598935784138" style="visibility: inherit;" fill="rgb(0, 0, 0)" stroke="rgb(204, 204, 204)" stroke-width="1px"></line><line x1="51.5625" y1="104.55744611357636" x2="46.5625" y2="104.55744611357636" style="visibility: inherit;" fill="rgb(0, 0, 0)" stroke="rgb(204, 204, 204)" stroke-width="1px"></line><line x1="51.5625" y1="67.85725062524115" x2="46.5625" y2="67.85725062524115" style="visibility: inherit;" fill="rgb(0, 0, 0)" stroke="rgb(204, 204, 204)" stroke-width="1px"></line><line x1="51.5625" y1="46.389012495429206" x2="46.5625" y2="46.389012495429206" style="visibility: inherit;" fill="rgb(0, 0, 0)" stroke="rgb(204, 204, 204)" stroke-width="1px"></line><line x1="51.5625" y1="31.1570551369059" x2="46.5625" y2="31.1570551369059" style="visibility: inherit;" fill="rgb(0, 0, 0)" stroke="rgb(204, 204, 204)" stroke-width="1px"></line><line x1="51.5625" y1="19.34223112135232" x2="46.5625" y2="19.34223112135232" style="visibility: inherit;" fill="rgb(0, 0, 0)" stroke="rgb(204, 204, 204)" stroke-width="1px"></line><line x1="51.5625" y1="9.688817007093991" x2="46.5625" y2="9.688817007093991" style="visibility: inherit;" fill="rgb(0, 0, 0)" stroke="rgb(204, 204, 204)" stroke-width="1px"></line><line x1="51.5625" y1="1.5269716689220976" x2="46.5625" y2="1.5269716689220976" style="visibility: inherit;" fill="rgb(0, 0, 0)" stroke="rgb(204, 204, 204)" stroke-width="1px"></line></g><g transform="translate(41.5625, 0)"><text x="0" y="375.4350484487719" dx="0em" dy="0.3em" style="text-anchor: end; visibility: hidden; font-family: Roboto, sans-serif; font-size: 12px; font-weight: 200;" fill="rgb(255, 255, 255)" stroke="none" stroke-width="1px">0.06</text><text x="0" y="367.2732031106" dx="0em" dy="0.3em" style="text-anchor: end; visibility: inherit; font-family: Roboto, sans-serif; font-size: 12px; font-weight: 200;" fill="rgb(255, 255, 255)" stroke="none" stroke-width="1px">0.07</text><text x="0" y="360.2030910902485" dx="0em" dy="0.3em" style="text-anchor: end; visibility: hidden; font-family: Roboto, sans-serif; font-size: 12px; font-weight: 200;" fill="rgb(255, 255, 255)" stroke="none" stroke-width="1px">0.08</text><text x="0" y="353.96681031896" dx="0em" dy="0.3em" style="text-anchor: end; visibility: hidden; font-family: Roboto, sans-serif; font-size: 12px; font-weight: 200;" fill="rgb(255, 255, 255)" stroke="none" stroke-width="1px">0.09</text><text x="0" y="348.38826707469497" dx="0em" dy="0.3em" style="text-anchor: end; visibility: hidden; font-family: Roboto, sans-serif; font-size: 12px; font-weight: 200;" fill="rgb(255, 255, 255)" stroke="none" stroke-width="1px">0.1</text><text x="0" y="311.6880715863597" dx="0em" dy="0.3em" style="text-anchor: end; visibility: inherit; font-family: Roboto, sans-serif; font-size: 12px; font-weight: 200;" fill="rgb(255, 255, 255)" stroke="none" stroke-width="1px">0.2</text><text x="0" y="290.21983345654786" dx="0em" dy="0.3em" style="text-anchor: end; visibility: hidden; font-family: Roboto, sans-serif; font-size: 12px; font-weight: 200;" fill="rgb(255, 255, 255)" stroke="none" stroke-width="1px">0.3</text><text x="0" y="274.98787609802446" dx="0em" dy="0.3em" style="text-anchor: end; visibility: hidden; font-family: Roboto, sans-serif; font-size: 12px; font-weight: 200;" fill="rgb(255, 255, 255)" stroke="none" stroke-width="1px">0.4</text><text x="0" y="263.1730520824709" dx="0em" dy="0.3em" style="text-anchor: end; visibility: hidden; font-family: Roboto, sans-serif; font-size: 12px; font-weight: 200;" fill="rgb(255, 255, 255)" stroke="none" stroke-width="1px">0.5</text><text x="0" y="253.51963796821255" dx="0em" dy="0.3em" style="text-anchor: end; visibility: inherit; font-family: Roboto, sans-serif; font-size: 12px; font-weight: 200;" fill="rgb(255, 255, 255)" stroke="none" stroke-width="1px">0.6</text><text x="0" y="245.3577926300407" dx="0em" dy="0.3em" style="text-anchor: end; visibility: hidden; font-family: Roboto, sans-serif; font-size: 12px; font-weight: 200;" fill="rgb(255, 255, 255)" stroke="none" stroke-width="1px">0.7</text><text x="0" y="238.2876806096892" dx="0em" dy="0.3em" style="text-anchor: end; visibility: hidden; font-family: Roboto, sans-serif; font-size: 12px; font-weight: 200;" fill="rgb(255, 255, 255)" stroke="none" stroke-width="1px">0.8</text><text x="0" y="232.05139983840073" dx="0em" dy="0.3em" style="text-anchor: end; visibility: hidden; font-family: Roboto, sans-serif; font-size: 12px; font-weight: 200;" fill="rgb(255, 255, 255)" stroke="none" stroke-width="1px">0.9</text><text x="0" y="226.47285659413566" dx="0em" dy="0.3em" style="text-anchor: end; visibility: inherit; font-family: Roboto, sans-serif; font-size: 12px; font-weight: 200;" fill="rgb(255, 255, 255)" stroke="none" stroke-width="1px">1</text><text x="0" y="189.7726611058004" dx="0em" dy="0.3em" style="text-anchor: end; visibility: hidden; font-family: Roboto, sans-serif; font-size: 12px; font-weight: 200;" fill="rgb(255, 255, 255)" stroke="none" stroke-width="1px">2</text><text x="0" y="168.30442297598856" dx="0em" dy="0.3em" style="text-anchor: end; visibility: hidden; font-family: Roboto, sans-serif; font-size: 12px; font-weight: 200;" fill="rgb(255, 255, 255)" stroke="none" stroke-width="1px">3</text><text x="0" y="153.07246561746516" dx="0em" dy="0.3em" style="text-anchor: end; visibility: hidden; font-family: Roboto, sans-serif; font-size: 12px; font-weight: 200;" fill="rgb(255, 255, 255)" stroke="none" stroke-width="1px">4</text><text x="0" y="141.25764160191162" dx="0em" dy="0.3em" style="text-anchor: end; visibility: inherit; font-family: Roboto, sans-serif; font-size: 12px; font-weight: 200;" fill="rgb(255, 255, 255)" stroke="none" stroke-width="1px">5</text><text x="0" y="131.60422748765333" dx="0em" dy="0.3em" style="text-anchor: end; visibility: hidden; font-family: Roboto, sans-serif; font-size: 12px; font-weight: 200;" fill="rgb(255, 255, 255)" stroke="none" stroke-width="1px">6</text><text x="0" y="123.44238214948145" dx="0em" dy="0.3em" style="text-anchor: end; visibility: hidden; font-family: Roboto, sans-serif; font-size: 12px; font-weight: 200;" fill="rgb(255, 255, 255)" stroke="none" stroke-width="1px">7</text><text x="0" y="116.3722701291299" dx="0em" dy="0.3em" style="text-anchor: end; visibility: hidden; font-family: Roboto, sans-serif; font-size: 12px; font-weight: 200;" fill="rgb(255, 255, 255)" stroke="none" stroke-width="1px">8</text><text x="0" y="110.13598935784138" dx="0em" dy="0.3em" style="text-anchor: end; visibility: inherit; font-family: Roboto, sans-serif; font-size: 12px; font-weight: 200;" fill="rgb(255, 255, 255)" stroke="none" stroke-width="1px">9</text><text x="0" y="104.55744611357636" dx="0em" dy="0.3em" style="text-anchor: end; visibility: hidden; font-family: Roboto, sans-serif; font-size: 12px; font-weight: 200;" fill="rgb(255, 255, 255)" stroke="none" stroke-width="1px">10</text><text x="0" y="67.85725062524115" dx="0em" dy="0.3em" style="text-anchor: end; visibility: hidden; font-family: Roboto, sans-serif; font-size: 12px; font-weight: 200;" fill="rgb(255, 255, 255)" stroke="none" stroke-width="1px">20</text><text x="0" y="46.389012495429206" dx="0em" dy="0.3em" style="text-anchor: end; visibility: hidden; font-family: Roboto, sans-serif; font-size: 12px; font-weight: 200;" fill="rgb(255, 255, 255)" stroke="none" stroke-width="1px">30</text><text x="0" y="31.1570551369059" dx="0em" dy="0.3em" style="text-anchor: end; visibility: inherit; font-family: Roboto, sans-serif; font-size: 12px; font-weight: 200;" fill="rgb(255, 255, 255)" stroke="none" stroke-width="1px">40</text><text x="0" y="19.34223112135232" dx="0em" dy="0.3em" style="text-anchor: end; visibility: hidden; font-family: Roboto, sans-serif; font-size: 12px; font-weight: 200;" fill="rgb(255, 255, 255)" stroke="none" stroke-width="1px">50</text><text x="0" y="9.688817007093991" dx="0em" dy="0.3em" style="text-anchor: end; visibility: hidden; font-family: Roboto, sans-serif; font-size: 12px; font-weight: 200;" fill="rgb(255, 255, 255)" stroke="none" stroke-width="1px">60</text><text x="0" y="1.5269716689220976" dx="0em" dy="0.3em" style="text-anchor: end; visibility: hidden; font-family: Roboto, sans-serif; font-size: 12px; font-weight: 200;" fill="rgb(255, 255, 255)" stroke="none" stroke-width="1px">70</text></g><line x1="51.5625" y1="0" x2="51.5625" y2="377" fill="rgb(0, 0, 0)" stroke="rgb(204, 204, 204)" stroke-width="1px"></line></g></g><g transform="translate(51, 0)" clip-path="url(#clip_0)"><clipPath id="clip_0"><rect width="1020" height="377"></rect></clipPath><g><g><g><line x1="0" y1="0" x2="0" y2="377" fill="rgb(0, 0, 0)" stroke="rgb(189, 189, 189)" stroke-width="1px" opacity="0.25"></line><line x1="127.59593749999999" y1="0" x2="127.59593749999999" y2="377" fill="rgb(0, 0, 0)" stroke="rgb(189, 189, 189)" stroke-width="1px" opacity="0.25"></line><line x1="255.19187499999998" y1="0" x2="255.19187499999998" y2="377" fill="rgb(0, 0, 0)" stroke="rgb(189, 189, 189)" stroke-width="1px" opacity="0.25"></line><line x1="382.7878125" y1="0" x2="382.7878125" y2="377" fill="rgb(0, 0, 0)" stroke="rgb(189, 189, 189)" stroke-width="1px" opacity="0.25"></line><line x1="510.38374999999996" y1="0" x2="510.38374999999996" y2="377" fill="rgb(0, 0, 0)" stroke="rgb(189, 189, 189)" stroke-width="1px" opacity="0.25"></line><line x1="637.9796875" y1="0" x2="637.9796875" y2="377" fill="rgb(0, 0, 0)" stroke="rgb(189, 189, 189)" stroke-width="1px" opacity="0.25"></line><line x1="765.575625" y1="0" x2="765.575625" y2="377" fill="rgb(0, 0, 0)" stroke="rgb(189, 189, 189)" stroke-width="1px" opacity="0.25"></line><line x1="893.1715624999999" y1="0" x2="893.1715624999999" y2="377" fill="rgb(0, 0, 0)" stroke="rgb(189, 189, 189)" stroke-width="1px" opacity="0.25"></line><line x1="1020.7674999999999" y1="0" x2="1020.7674999999999" y2="377" fill="rgb(0, 0, 0)" stroke="rgb(189, 189, 189)" stroke-width="1px" opacity="0.25"></line></g><g><line x1="0" y1="375.4350484487719" x2="1020.7674999999999" y2="375.4350484487719" fill="rgb(0, 0, 0)" stroke="rgb(189, 189, 189)" stroke-width="1px" opacity="0.25"></line><line x1="0" y1="367.2732031106" x2="1020.7674999999999" y2="367.2732031106" fill="rgb(0, 0, 0)" stroke="rgb(189, 189, 189)" stroke-width="1px" opacity="0.25"></line><line x1="0" y1="360.2030910902485" x2="1020.7674999999999" y2="360.2030910902485" fill="rgb(0, 0, 0)" stroke="rgb(189, 189, 189)" stroke-width="1px" opacity="0.25"></line><line x1="0" y1="353.96681031896" x2="1020.7674999999999" y2="353.96681031896" fill="rgb(0, 0, 0)" stroke="rgb(189, 189, 189)" stroke-width="1px" opacity="0.25"></line><line x1="0" y1="348.38826707469497" x2="1020.7674999999999" y2="348.38826707469497" fill="rgb(0, 0, 0)" stroke="rgb(189, 189, 189)" stroke-width="1px" opacity="0.25"></line><line x1="0" y1="311.6880715863597" x2="1020.7674999999999" y2="311.6880715863597" fill="rgb(0, 0, 0)" stroke="rgb(189, 189, 189)" stroke-width="1px" opacity="0.25"></line><line x1="0" y1="290.21983345654786" x2="1020.7674999999999" y2="290.21983345654786" fill="rgb(0, 0, 0)" stroke="rgb(189, 189, 189)" stroke-width="1px" opacity="0.25"></line><line x1="0" y1="274.98787609802446" x2="1020.7674999999999" y2="274.98787609802446" fill="rgb(0, 0, 0)" stroke="rgb(189, 189, 189)" stroke-width="1px" opacity="0.25"></line><line x1="0" y1="263.1730520824709" x2="1020.7674999999999" y2="263.1730520824709" fill="rgb(0, 0, 0)" stroke="rgb(189, 189, 189)" stroke-width="1px" opacity="0.25"></line><line x1="0" y1="253.51963796821255" x2="1020.7674999999999" y2="253.51963796821255" fill="rgb(0, 0, 0)" stroke="rgb(189, 189, 189)" stroke-width="1px" opacity="0.25"></line><line x1="0" y1="245.3577926300407" x2="1020.7674999999999" y2="245.3577926300407" fill="rgb(0, 0, 0)" stroke="rgb(189, 189, 189)" stroke-width="1px" opacity="0.25"></line><line x1="0" y1="238.2876806096892" x2="1020.7674999999999" y2="238.2876806096892" fill="rgb(0, 0, 0)" stroke="rgb(189, 189, 189)" stroke-width="1px" opacity="0.25"></line><line x1="0" y1="232.05139983840073" x2="1020.7674999999999" y2="232.05139983840073" fill="rgb(0, 0, 0)" stroke="rgb(189, 189, 189)" stroke-width="1px" opacity="0.25"></line><line x1="0" y1="226.47285659413566" x2="1020.7674999999999" y2="226.47285659413566" fill="rgb(0, 0, 0)" stroke="rgb(189, 189, 189)" stroke-width="1px" opacity="0.25"></line><line x1="0" y1="189.7726611058004" x2="1020.7674999999999" y2="189.7726611058004" fill="rgb(0, 0, 0)" stroke="rgb(189, 189, 189)" stroke-width="1px" opacity="0.25"></line><line x1="0" y1="168.30442297598856" x2="1020.7674999999999" y2="168.30442297598856" fill="rgb(0, 0, 0)" stroke="rgb(189, 189, 189)" stroke-width="1px" opacity="0.25"></line><line x1="0" y1="153.07246561746516" x2="1020.7674999999999" y2="153.07246561746516" fill="rgb(0, 0, 0)" stroke="rgb(189, 189, 189)" stroke-width="1px" opacity="0.25"></line><line x1="0" y1="141.25764160191162" x2="1020.7674999999999" y2="141.25764160191162" fill="rgb(0, 0, 0)" stroke="rgb(189, 189, 189)" stroke-width="1px" opacity="0.25"></line><line x1="0" y1="131.60422748765333" x2="1020.7674999999999" y2="131.60422748765333" fill="rgb(0, 0, 0)" stroke="rgb(189, 189, 189)" stroke-width="1px" opacity="0.25"></line><line x1="0" y1="123.44238214948145" x2="1020.7674999999999" y2="123.44238214948145" fill="rgb(0, 0, 0)" stroke="rgb(189, 189, 189)" stroke-width="1px" opacity="0.25"></line><line x1="0" y1="116.3722701291299" x2="1020.7674999999999" y2="116.3722701291299" fill="rgb(0, 0, 0)" stroke="rgb(189, 189, 189)" stroke-width="1px" opacity="0.25"></line><line x1="0" y1="110.13598935784138" x2="1020.7674999999999" y2="110.13598935784138" fill="rgb(0, 0, 0)" stroke="rgb(189, 189, 189)" stroke-width="1px" opacity="0.25"></line><line x1="0" y1="104.55744611357636" x2="1020.7674999999999" y2="104.55744611357636" fill="rgb(0, 0, 0)" stroke="rgb(189, 189, 189)" stroke-width="1px" opacity="0.25"></line><line x1="0" y1="67.85725062524115" x2="1020.7674999999999" y2="67.85725062524115" fill="rgb(0, 0, 0)" stroke="rgb(189, 189, 189)" stroke-width="1px" opacity="0.25"></line><line x1="0" y1="46.389012495429206" x2="1020.7674999999999" y2="46.389012495429206" fill="rgb(0, 0, 0)" stroke="rgb(189, 189, 189)" stroke-width="1px" opacity="0.25"></line><line x1="0" y1="31.1570551369059" x2="1020.7674999999999" y2="31.1570551369059" fill="rgb(0, 0, 0)" stroke="rgb(189, 189, 189)" stroke-width="1px" opacity="0.25"></line><line x1="0" y1="19.34223112135232" x2="1020.7674999999999" y2="19.34223112135232" fill="rgb(0, 0, 0)" stroke="rgb(189, 189, 189)" stroke-width="1px" opacity="0.25"></line><line x1="0" y1="9.688817007093991" x2="1020.7674999999999" y2="9.688817007093991" fill="rgb(0, 0, 0)" stroke="rgb(189, 189, 189)" stroke-width="1px" opacity="0.25"></line><line x1="0" y1="1.5269716689220976" x2="1020.7674999999999" y2="1.5269716689220976" fill="rgb(0, 0, 0)" stroke="rgb(189, 189, 189)" stroke-width="1px" opacity="0.25"></line></g></g></g><g><g><line x1="127.59593749999999" y1="0" x2="127.59593749999999" y2="377" fill="rgb(0, 0, 0)" stroke="rgb(153, 153, 153)" stroke-width="1.5px"></line></g></g><g><g><g><g><g><path stroke="rgb(255, 112, 67)" stroke-width="2px" d="M132.699775,340.04923622048034L137.80361249999999,317.3733852926985L142.90745,309.4475645505838L148.01128749999998,315.5808756866558L153.11512499999998,329.11114010330965L158.21896249999998,299.79395506306605L162.046840625,296.72344878582135L167.15067812499998,306.286144999647L172.254515625,318.88389781660436L177.35835312499998,318.35978073752193L182.46219062499998,289.2210490771454L187.56602812499997,313.97492031295224L192.669865625,301.05699639353793L196.49774374999998,321.8516008734367L201.60158124999998,300.81864939704195L206.70541875,298.0050244826038L211.80925624999998,320.52810290160346L216.91309374999997,293.7008638930181L222.01693124999997,327.24212248034394L225.84480937499998,323.1428571428571L230.94864687499998,302.47798349977L236.052484375,326.15108024929106L241.15632187499997,183.001122326854L246.26015937499997,305.26733253949095L251.36399687499997,295.0997298796155L255.19187499999998,315.63841256522494L260.2957125,324.87562250735664L265.39955,325.5215760749468L270.5033875,181.66080354140743L275.60722499999997,181.89408458865822L280.7110625,303.549430341572L285.8149,186.6210603310583L289.642778125,179.97705237852804L294.746615625,209.43742306791955L299.850453125,280.8433646669834L304.954290625,280.3685444285295L310.058128125,148.84447849799838L315.161965625,311.11938560467706L320.26580312499993,185.5390858238219L324.09368125,301.953985029946L329.19751875,323.99059207025516L334.30135624999997,183.78558897837078L339.40519374999997,313.8407372808786L344.50903125,301.8714710108561L349.61286875,307.1680451058481L353.440746875,315.6953695229561L358.544584375,307.9605499613682L363.648421875,152.34236862333267L368.752259375,200.12422079073121L373.856096875,307.8673394302637L378.959934375,304.1254330186982L384.06377187499993,150.3387922077106L387.89164999999997,309.1308588186518L392.99548749999997,309.3344544669227L398.09932499999996,185.4987508436669L403.20316249999996,328.26665022359765L408.307,146.87792086615642L413.4108375,279.38502609162754L418.51467499999995,134.78097064892157L422.342553125,141.84691094499715L427.446390625,177.0827795098467L432.550228125,116.22947540869784L437.654065625,182.1279172391353L442.757903125,129.45469115511128L447.8617406249999,261.5588562361253L451.68961874999997,150.9224747355739L458.069415625,131.49670797032L463.173253125,183.49096609982928L468.27709062499997,154.96412752223435L473.38092812499997,197.78502654620945L478.48476562499997,155.0639022500314L483.58860312499996,130.81639686702002L487.41648124999995,132.2854684192243L492.52031874999994,275.1085680829149L497.62415624999994,185.73633918819814L502.72799374999994,117.36704609710463L507.83183124999994,117.46466014089255L512.9356687499999,148.35226204994046L516.763546875,181.72538694208916L521.8673843749999,150.07816606934216L526.971221875,85.18050309685282L532.0750593749999,180.3135467011172L537.178896875,150.4047873629364L542.282734375,70.39954823292928L547.386571875,152.98518863233858L551.2144499999999,153.90648281439536L556.3182875,152.3829859958852L561.422125,156.4703338121307L566.5259625,124.40540565557015L571.6298,95.69797436296848L576.7336374999999,102.81234292608393L580.561515625,115.65914618622742L585.6653531249999,97.03287392991255L590.769190625,152.7982602524147L595.8730281249999,152.65696615821892L600.976865625,112.908153686168L606.0807031249999,124.38100457901815L609.90858125,125.97903032798483L615.0124187499999,90.64587541827117L620.11625625,99.3975309637482L625.22009375,124.15009161076249L630.32393125,109.47749712191306L635.42776875,88.91722668845343L639.2556468749999,89.09832539470995L644.359484375,136.823294710207L649.4633218749999,88.57545319773082L654.567159375,65.76593127733689L659.6709968749999,76.27195945349881L664.774834375,126.95184002580112L668.6027124999999,99.00820680367038L673.70655,87.94172785108094L678.8103874999999,104.20221578214604L683.914225,87.06310767012026L689.0180625,57.980705615789454L694.1219,73.76243759793455L697.949778125,71.87080110047263L703.0536156249999,78.6908764852683L708.157453125,50.51754486645196L713.2612906249999,64.64010982490363L718.365128125,54.24832665093776L722.1930062499999,69.26575354005669L727.29684375,57.054225003960916L732.4006812499999,58.99346917018601L737.50451875,59.39490631861873L742.6083562499999,52.152294331275684L747.71219375,60.970343299052296L751.5400718749999,60.72633727403979L756.6439093749999,55.04034097065853L761.747746875,65.57105752524252L766.8515843749999,61.3627461924521L771.955421875,71.46856800077971L775.7832999999999,67.19155927309525L780.8871375,53.85714285714283L785.9909749999999,84.55341068813136L791.0948125,56.0511163948343L796.1986499999999,67.71970602611337L801.3024875,64.25521295365591L805.1303656249999,54.139755081696364L810.2342031249999,66.19518188276601L815.3380406249998,43.94539683485976L820.4418781249999,74.53724976668393L824.2697562499999,50.06179949296489L829.3735937499999,54.30809069894441L834.47743125,56.10885018277532L839.5812687499999,51.533034809998895L844.68510625,50.66990768240549L848.512984375,56.36285397690223L853.616821875,62.269353114437486L858.720659375,65.02724121308272L863.8244968749999,62.358306934840954L868.9283343749998,47.9853600064542L872.7562125,60.38907670359442L877.8600499999999,58.70050285280648L882.9638874999999,58.573798092264695L888.0677249999999,57.624751557282984L893.1715624999999,52.31386913564001" style="fill: none;" fill="none"></path></g></g></g></g></g></g><g transform="translate(51, 377)" clip-path="url(#clip_1)"><clipPath id="clip_1"><rect width="1020" height="23"></rect></clipPath><g><g><line x1="0" y1="0" x2="0" y2="5" style="visibility: inherit;" fill="rgb(0, 0, 0)" stroke="rgb(204, 204, 204)" stroke-width="1px"></line><line x1="127.59593749999999" y1="0" x2="127.59593749999999" y2="5" style="visibility: inherit;" fill="rgb(0, 0, 0)" stroke="rgb(204, 204, 204)" stroke-width="1px"></line><line x1="255.19187499999998" y1="0" x2="255.19187499999998" y2="5" style="visibility: inherit;" fill="rgb(0, 0, 0)" stroke="rgb(204, 204, 204)" stroke-width="1px"></line><line x1="382.7878125" y1="0" x2="382.7878125" y2="5" style="visibility: inherit;" fill="rgb(0, 0, 0)" stroke="rgb(204, 204, 204)" stroke-width="1px"></line><line x1="510.38374999999996" y1="0" x2="510.38374999999996" y2="5" style="visibility: inherit;" fill="rgb(0, 0, 0)" stroke="rgb(204, 204, 204)" stroke-width="1px"></line><line x1="637.9796875" y1="0" x2="637.9796875" y2="5" style="visibility: inherit;" fill="rgb(0, 0, 0)" stroke="rgb(204, 204, 204)" stroke-width="1px"></line><line x1="765.575625" y1="0" x2="765.575625" y2="5" style="visibility: inherit;" fill="rgb(0, 0, 0)" stroke="rgb(204, 204, 204)" stroke-width="1px"></line><line x1="893.1715624999999" y1="0" x2="893.1715624999999" y2="5" style="visibility: inherit;" fill="rgb(0, 0, 0)" stroke="rgb(204, 204, 204)" stroke-width="1px"></line><line x1="1020.7674999999999" y1="0" x2="1020.7674999999999" y2="5" style="visibility: inherit;" fill="rgb(0, 0, 0)" stroke="rgb(204, 204, 204)" stroke-width="1px"></line></g><g transform="translate(0, 8)"><text x="0" y="0" dx="0em" dy="0.95em" style="text-anchor: middle; visibility: hidden; font-family: Roboto, sans-serif; font-size: 12px; font-weight: 200;" fill="rgb(255, 255, 255)" stroke="none" stroke-width="1px">-500k</text><text x="127.59593749999999" y="0" dx="0em" dy="0.95em" style="text-anchor: middle; visibility: inherit; font-family: Roboto, sans-serif; font-size: 12px; font-weight: 200;" fill="rgb(255, 255, 255)" stroke="none" stroke-width="1px">0</text><text x="255.19187499999998" y="0" dx="0em" dy="0.95em" style="text-anchor: middle; visibility: inherit; font-family: Roboto, sans-serif; font-size: 12px; font-weight: 200;" fill="rgb(255, 255, 255)" stroke="none" stroke-width="1px">500k</text><text x="382.7878125" y="0" dx="0em" dy="0.95em" style="text-anchor: middle; visibility: inherit; font-family: Roboto, sans-serif; font-size: 12px; font-weight: 200;" fill="rgb(255, 255, 255)" stroke="none" stroke-width="1px">1M</text><text x="510.38374999999996" y="0" dx="0em" dy="0.95em" style="text-anchor: middle; visibility: inherit; font-family: Roboto, sans-serif; font-size: 12px; font-weight: 200;" fill="rgb(255, 255, 255)" stroke="none" stroke-width="1px">1.5M</text><text x="637.9796875" y="0" dx="0em" dy="0.95em" style="text-anchor: middle; visibility: inherit; font-family: Roboto, sans-serif; font-size: 12px; font-weight: 200;" fill="rgb(255, 255, 255)" stroke="none" stroke-width="1px">2M</text><text x="765.575625" y="0" dx="0em" dy="0.95em" style="text-anchor: middle; visibility: inherit; font-family: Roboto, sans-serif; font-size: 12px; font-weight: 200;" fill="rgb(255, 255, 255)" stroke="none" stroke-width="1px">2.5M</text><text x="893.1715624999999" y="0" dx="0em" dy="0.95em" style="text-anchor: middle; visibility: inherit; font-family: Roboto, sans-serif; font-size: 12px; font-weight: 200;" fill="rgb(255, 255, 255)" stroke="none" stroke-width="1px">3M</text><text x="1020.7674999999999" y="0" dx="0em" dy="0.95em" style="text-anchor: middle; visibility: hidden; font-family: Roboto, sans-serif; font-size: 12px; font-weight: 200;" fill="rgb(255, 255, 255)" stroke="none" stroke-width="1px">3.5M</text></g><line x1="0" y1="0" x2="1020.7674999999999" y2="0" fill="rgb(0, 0, 0)" stroke="rgb(204, 204, 204)" stroke-width="1px"></line></g></g></g></g></svg>