<svg viewBox="0 0 1072.3333740234375 400" xmlns="http://www.w3.org/2000/svg"><g><g><g><g><g><line x1="51.5625" y1="373.53016959560574" x2="46.5625" y2="373.53016959560574" style="visibility: inherit;" fill="rgb(0, 0, 0)" stroke="rgb(204, 204, 204)" stroke-width="1px"></line><line x1="51.5625" y1="294.4993516747132" x2="46.5625" y2="294.4993516747132" style="visibility: inherit;" fill="rgb(0, 0, 0)" stroke="rgb(204, 204, 204)" stroke-width="1px"></line><line x1="51.5625" y1="226.03974326391887" x2="46.5625" y2="226.03974326391887" style="visibility: inherit;" fill="rgb(0, 0, 0)" stroke="rgb(204, 204, 204)" stroke-width="1px"></line><line x1="51.5625" y1="165.6540890743897" x2="46.5625" y2="165.6540890743897" style="visibility: inherit;" fill="rgb(0, 0, 0)" stroke="rgb(204, 204, 204)" stroke-width="1px"></line><line x1="51.5625" y1="111.63728072598687" x2="46.5625" y2="111.63728072598687" style="visibility: inherit;" fill="rgb(0, 0, 0)" stroke="rgb(204, 204, 204)" stroke-width="1px"></line></g><g transform="translate(41.5625, 0)"><text x="0" y="373.53016959560574" dx="0em" dy="0.3em" style="text-anchor: end; visibility: hidden; font-family: Roboto, sans-serif; font-size: 12px; font-weight: 200;" fill="rgb(255, 255, 255)" stroke="none" stroke-width="1px">0.06</text><text x="0" y="294.4993516747132" dx="0em" dy="0.3em" style="text-anchor: end; visibility: inherit; font-family: Roboto, sans-serif; font-size: 12px; font-weight: 200;" fill="rgb(255, 255, 255)" stroke="none" stroke-width="1px">0.07</text><text x="0" y="226.03974326391887" dx="0em" dy="0.3em" style="text-anchor: end; visibility: inherit; font-family: Roboto, sans-serif; font-size: 12px; font-weight: 200;" fill="rgb(255, 255, 255)" stroke="none" stroke-width="1px">0.08</text><text x="0" y="165.6540890743897" dx="0em" dy="0.3em" style="text-anchor: end; visibility: inherit; font-family: Roboto, sans-serif; font-size: 12px; font-weight: 200;" fill="rgb(255, 255, 255)" stroke="none" stroke-width="1px">0.09</text><text x="0" y="111.63728072598687" dx="0em" dy="0.3em" style="text-anchor: end; visibility: inherit; font-family: Roboto, sans-serif; font-size: 12px; font-weight: 200;" fill="rgb(255, 255, 255)" stroke="none" stroke-width="1px">0.1</text></g><line x1="51.5625" y1="0" x2="51.5625" y2="377" fill="rgb(0, 0, 0)" stroke="rgb(204, 204, 204)" stroke-width="1px"></line></g></g><g transform="translate(51, 0)" clip-path="url(#clip_0)"><clipPath id="clip_0"><rect width="1020" height="377"></rect></clipPath><g><g><g><line x1="0" y1="0" x2="0" y2="377" fill="rgb(0, 0, 0)" stroke="rgb(189, 189, 189)" stroke-width="1px" opacity="0.25"></line><line x1="127.59593749999999" y1="0" x2="127.59593749999999" y2="377" fill="rgb(0, 0, 0)" stroke="rgb(189, 189, 189)" stroke-width="1px" opacity="0.25"></line><line x1="255.19187499999998" y1="0" x2="255.19187499999998" y2="377" fill="rgb(0, 0, 0)" stroke="rgb(189, 189, 189)" stroke-width="1px" opacity="0.25"></line><line x1="382.7878125" y1="0" x2="382.7878125" y2="377" fill="rgb(0, 0, 0)" stroke="rgb(189, 189, 189)" stroke-width="1px" opacity="0.25"></line><line x1="510.38374999999996" y1="0" x2="510.38374999999996" y2="377" fill="rgb(0, 0, 0)" stroke="rgb(189, 189, 189)" stroke-width="1px" opacity="0.25"></line><line x1="637.9796875" y1="0" x2="637.9796875" y2="377" fill="rgb(0, 0, 0)" stroke="rgb(189, 189, 189)" stroke-width="1px" opacity="0.25"></line><line x1="765.575625" y1="0" x2="765.575625" y2="377" fill="rgb(0, 0, 0)" stroke="rgb(189, 189, 189)" stroke-width="1px" opacity="0.25"></line><line x1="893.1715624999999" y1="0" x2="893.1715624999999" y2="377" fill="rgb(0, 0, 0)" stroke="rgb(189, 189, 189)" stroke-width="1px" opacity="0.25"></line><line x1="1020.7674999999999" y1="0" x2="1020.7674999999999" y2="377" fill="rgb(0, 0, 0)" stroke="rgb(189, 189, 189)" stroke-width="1px" opacity="0.25"></line></g><g><line x1="0" y1="373.53016959560574" x2="1020.7674999999999" y2="373.53016959560574" fill="rgb(0, 0, 0)" stroke="rgb(189, 189, 189)" stroke-width="1px" opacity="0.25"></line><line x1="0" y1="294.4993516747132" x2="1020.7674999999999" y2="294.4993516747132" fill="rgb(0, 0, 0)" stroke="rgb(189, 189, 189)" stroke-width="1px" opacity="0.25"></line><line x1="0" y1="226.03974326391887" x2="1020.7674999999999" y2="226.03974326391887" fill="rgb(0, 0, 0)" stroke="rgb(189, 189, 189)" stroke-width="1px" opacity="0.25"></line><line x1="0" y1="165.6540890743897" x2="1020.7674999999999" y2="165.6540890743897" fill="rgb(0, 0, 0)" stroke="rgb(189, 189, 189)" stroke-width="1px" opacity="0.25"></line><line x1="0" y1="111.63728072598687" x2="1020.7674999999999" y2="111.63728072598687" fill="rgb(0, 0, 0)" stroke="rgb(189, 189, 189)" stroke-width="1px" opacity="0.25"></line></g></g></g><g><g><line x1="127.59593749999999" y1="0" x2="127.59593749999999" y2="377" fill="rgb(0, 0, 0)" stroke="rgb(153, 153, 153)" stroke-width="1.5px"></line></g></g><g><g><g><g><g><path stroke="rgb(255, 112, 67)" stroke-width="2px" d="M132.699775,77.77877273519961L137.80361249999999,-17.439871355951375L142.90745,53.85714285714275L148.01128749999998,227.9115293955962L153.11512499999998,144.5138644626646L158.21896249999998,125.72980870149179L162.046840625,160.85435770458375L167.15067812499998,94.47089732950758L172.254515625,159.83300813203957L177.35835312499998,129.90288735771253L182.46219062499998,78.93323115724891L187.56602812499997,193.30258091967775L192.669865625,262.1725895673852L196.49774374999998,145.44097428392453L201.60158124999998,146.76109139432793L206.70541875,236.4103811662304L211.80925624999998,331.9345970777961L216.91309374999997,278.0686168741337L222.01693124999997,123.48259975455304L225.84480937499998,323.142857142857L230.94864687499998,224.10433637478107L236.052484375,300.6067254551514L241.15632187499997,354.579731901562L246.26015937499997,275.08529805230137L251.36399687499997,61.68862652919801L255.19187499999998,145.3916068417307L260.2957125,215.4472268586914L265.39955,112.39675411801163L270.5033875,309.6473227638156L275.60722499999997,231.0325986403459L280.7110625,312.53668600648166L285.8149,217.02157401244037L289.642778125,244.74413238384452L294.746615625,348.98407909726205L299.850453125,153.06284645803697L304.954290625,49.2598106904925L310.058128125,222.9417228014117L315.161965625,276.76499456347443L320.26580312499993,232.00992801222694L324.09368125,136.8821940899555L329.19751875,225.61421414225683L334.30135624999997,273.5466895544666L339.40519374999997,265.2054823926432L344.50903125,165.44173155135445L349.61286875,247.3788592072633L353.440746875,250.27813118659017L358.544584375,170.10725470980228L363.648421875,194.4101427840923L368.752259375,283.9452024308901L373.856096875,272.4680448113511L378.959934375,166.5769572084108L384.06377187499993,208.45189740612747L387.89164999999997,236.96242016105606L392.99548749999997,334.1501021834638L398.09932499999996,311.87421660295274L403.20316249999996,160.40658684527267L408.307,172.1477307054034L413.4108375,257.705789961604L418.51467499999995,192.4778260908899L422.342553125,259.9841907271413L427.446390625,245.09060424309172L432.550228125,214.42979476893836L437.654065625,340.3390571030203L442.757903125,195.61292145024458L447.8617406249999,332.21662131641693L451.68961874999997,161.70259608089367L458.069415625,133.4021854668562L463.173253125,407.9180858123686L468.27709062499997,132.42110812919236L473.38092812499997,277.9583359446739L478.48476562499997,239.93095260304278L483.58860312499996,114.46118691368676L487.41648124999995,269.13606633037034L492.52031874999994,94.16914755691771L497.62415624999994,278.1126936072531L502.72799374999994,144.0363906574101L507.83183124999994,206.0456773314412L512.9356687499999,183.74349596827088L516.763546875,278.40414990817953L521.8673843749999,195.14476890065566L526.971221875,77.71537969426775L532.0750593749999,146.5696837786496L537.178896875,124.29265483270652L542.282734375,147.13732559925063L547.386571875,252.76855550073864L551.2144499999999,124.41889861119772L556.3182875,210.07462158744474L561.422125,261.5259107737957L566.5259625,238.35842681880652L571.6298,99.24467491132185L576.7336374999999,136.70619146989037L580.561515625,118.01037707232071L585.6653531249999,345.9389366621152L590.769190625,190.59656379032157L595.8730281249999,152.94384042168045L600.976865625,137.67967657044966L606.0807031249999,242.29820604936626L609.90858125,160.45086738041738L615.0124187499999,166.02179306236624L620.11625625,142.33378622856932L625.22009375,141.0038092717701L630.32393125,238.53134829813223L635.42776875,32.46994806836508L639.2556468749999,228.07420314762388L644.359484375,196.46838424350963L649.4633218749999,118.42770451519777L654.567159375,300.0487289941942L659.6709968749999,85.86843128113654L664.774834375,48.49691092480809L668.6027124999999,211.18834935435135L673.70655,155.5882682739184L678.8103874999999,191.41651018188463L683.914225,236.97695553310734L689.0180625,125.3609124128368L694.1219,118.03099171076128L697.949778125,26.092577713427392L703.0536156249999,232.70471256940664L708.157453125,19.201323068982294L713.2612906249999,62.268094724235006L718.365128125,232.92582180687108L722.1930062499999,60.51785645261797L727.29684375,145.78680203361503L732.4006812499999,121.03468038552681L737.50451875,152.50118507146522L742.6083562499999,148.7356920256148L747.71219375,112.43248522795056L751.5400718749999,212.74914094475858L756.6439093749999,182.0487964934516L761.747746875,164.70186984178105L766.8515843749999,142.36347332547408L771.955421875,167.58696367631345L775.7832999999999,83.38651027164224L780.8871375,296.357226865063L785.9909749999999,179.62786584632008L791.0948125,108.27034705989112L796.1986499999999,74.17022330166449L801.3024875,156.79725467855053L805.1303656249999,154.35721514345028L810.2342031249999,170.23780673783307L815.3380406249998,84.54393343915751L820.4418781249999,177.9607792648725L824.2697562499999,24.339820853562127L829.3735937499999,236.95168961388632L834.47743125,87.94245168579874L839.5812687499999,156.26636790803227L844.68510625,94.8777336597684L848.512984375,95.0386873802622L853.616821875,206.9238014231906L858.720659375,193.39835938385522L863.8244968749999,165.22418144237238L868.9283343749998,214.2076534897292L872.7562125,137.6817663757213L877.8600499999999,0.35130024269874804L882.9638874999999,190.39114722778658L888.0677249999999,180.0999100654475L893.1715624999999,213.56044598441582" style="fill: none;" fill="none"></path></g></g></g></g></g></g><g transform="translate(51, 377)" clip-path="url(#clip_1)"><clipPath id="clip_1"><rect width="1020" height="23"></rect></clipPath><g><g><line x1="0" y1="0" x2="0" y2="5" style="visibility: inherit;" fill="rgb(0, 0, 0)" stroke="rgb(204, 204, 204)" stroke-width="1px"></line><line x1="127.59593749999999" y1="0" x2="127.59593749999999" y2="5" style="visibility: inherit;" fill="rgb(0, 0, 0)" stroke="rgb(204, 204, 204)" stroke-width="1px"></line><line x1="255.19187499999998" y1="0" x2="255.19187499999998" y2="5" style="visibility: inherit;" fill="rgb(0, 0, 0)" stroke="rgb(204, 204, 204)" stroke-width="1px"></line><line x1="382.7878125" y1="0" x2="382.7878125" y2="5" style="visibility: inherit;" fill="rgb(0, 0, 0)" stroke="rgb(204, 204, 204)" stroke-width="1px"></line><line x1="510.38374999999996" y1="0" x2="510.38374999999996" y2="5" style="visibility: inherit;" fill="rgb(0, 0, 0)" stroke="rgb(204, 204, 204)" stroke-width="1px"></line><line x1="637.9796875" y1="0" x2="637.9796875" y2="5" style="visibility: inherit;" fill="rgb(0, 0, 0)" stroke="rgb(204, 204, 204)" stroke-width="1px"></line><line x1="765.575625" y1="0" x2="765.575625" y2="5" style="visibility: inherit;" fill="rgb(0, 0, 0)" stroke="rgb(204, 204, 204)" stroke-width="1px"></line><line x1="893.1715624999999" y1="0" x2="893.1715624999999" y2="5" style="visibility: inherit;" fill="rgb(0, 0, 0)" stroke="rgb(204, 204, 204)" stroke-width="1px"></line><line x1="1020.7674999999999" y1="0" x2="1020.7674999999999" y2="5" style="visibility: inherit;" fill="rgb(0, 0, 0)" stroke="rgb(204, 204, 204)" stroke-width="1px"></line></g><g transform="translate(0, 8)"><text x="0" y="0" dx="0em" dy="0.95em" style="text-anchor: middle; visibility: hidden; font-family: Roboto, sans-serif; font-size: 12px; font-weight: 200;" fill="rgb(255, 255, 255)" stroke="none" stroke-width="1px">-500k</text><text x="127.59593749999999" y="0" dx="0em" dy="0.95em" style="text-anchor: middle; visibility: inherit; font-family: Roboto, sans-serif; font-size: 12px; font-weight: 200;" fill="rgb(255, 255, 255)" stroke="none" stroke-width="1px">0</text><text x="255.19187499999998" y="0" dx="0em" dy="0.95em" style="text-anchor: middle; visibility: inherit; font-family: Roboto, sans-serif; font-size: 12px; font-weight: 200;" fill="rgb(255, 255, 255)" stroke="none" stroke-width="1px">500k</text><text x="382.7878125" y="0" dx="0em" dy="0.95em" style="text-anchor: middle; visibility: inherit; font-family: Roboto, sans-serif; font-size: 12px; font-weight: 200;" fill="rgb(255, 255, 255)" stroke="none" stroke-width="1px">1M</text><text x="510.38374999999996" y="0" dx="0em" dy="0.95em" style="text-anchor: middle; visibility: inherit; font-family: Roboto, sans-serif; font-size: 12px; font-weight: 200;" fill="rgb(255, 255, 255)" stroke="none" stroke-width="1px">1.5M</text><text x="637.9796875" y="0" dx="0em" dy="0.95em" style="text-anchor: middle; visibility: inherit; font-family: Roboto, sans-serif; font-size: 12px; font-weight: 200;" fill="rgb(255, 255, 255)" stroke="none" stroke-width="1px">2M</text><text x="765.575625" y="0" dx="0em" dy="0.95em" style="text-anchor: middle; visibility: inherit; font-family: Roboto, sans-serif; font-size: 12px; font-weight: 200;" fill="rgb(255, 255, 255)" stroke="none" stroke-width="1px">2.5M</text><text x="893.1715624999999" y="0" dx="0em" dy="0.95em" style="text-anchor: middle; visibility: inherit; font-family: Roboto, sans-serif; font-size: 12px; font-weight: 200;" fill="rgb(255, 255, 255)" stroke="none" stroke-width="1px">3M</text><text x="1020.7674999999999" y="0" dx="0em" dy="0.95em" style="text-anchor: middle; visibility: hidden; font-family: Roboto, sans-serif; font-size: 12px; font-weight: 200;" fill="rgb(255, 255, 255)" stroke="none" stroke-width="1px">3.5M</text></g><line x1="0" y1="0" x2="1020.7674999999999" y2="0" fill="rgb(0, 0, 0)" stroke="rgb(204, 204, 204)" stroke-width="1px"></line></g></g></g></g></svg>