<svg viewBox="0 0 1072.3333740234375 400" xmlns="http://www.w3.org/2000/svg"><g><g><g><g><g><line x1="20.390625" y1="141.39523688422796" x2="15.390625" y2="141.39523688422796" style="visibility: inherit;" fill="rgb(0, 0, 0)" stroke="rgb(204, 204, 204)" stroke-width="1px"></line></g><g transform="translate(10.390625, 0)"><text x="0" y="141.39523688422796" dx="0em" dy="0.3em" style="text-anchor: end; visibility: inherit; font-family: Roboto, sans-serif; font-size: 12px; font-weight: 200;" fill="rgb(255, 255, 255)" stroke="none" stroke-width="1px">2</text></g><line x1="20.390625" y1="0" x2="20.390625" y2="377" fill="rgb(0, 0, 0)" stroke="rgb(204, 204, 204)" stroke-width="1px"></line></g></g><g transform="translate(20, 0)" clip-path="url(#clip_0)"><clipPath id="clip_0"><rect width="1051" height="377"></rect></clipPath><g><g><g><line x1="0" y1="0" x2="0" y2="377" fill="rgb(0, 0, 0)" stroke="rgb(189, 189, 189)" stroke-width="1px" opacity="0.25"></line><line x1="131.492421875" y1="0" x2="131.492421875" y2="377" fill="rgb(0, 0, 0)" stroke="rgb(189, 189, 189)" stroke-width="1px" opacity="0.25"></line><line x1="262.98484375" y1="0" x2="262.98484375" y2="377" fill="rgb(0, 0, 0)" stroke="rgb(189, 189, 189)" stroke-width="1px" opacity="0.25"></line><line x1="394.477265625" y1="0" x2="394.477265625" y2="377" fill="rgb(0, 0, 0)" stroke="rgb(189, 189, 189)" stroke-width="1px" opacity="0.25"></line><line x1="525.9696875" y1="0" x2="525.9696875" y2="377" fill="rgb(0, 0, 0)" stroke="rgb(189, 189, 189)" stroke-width="1px" opacity="0.25"></line><line x1="657.462109375" y1="0" x2="657.462109375" y2="377" fill="rgb(0, 0, 0)" stroke="rgb(189, 189, 189)" stroke-width="1px" opacity="0.25"></line><line x1="788.95453125" y1="0" x2="788.95453125" y2="377" fill="rgb(0, 0, 0)" stroke="rgb(189, 189, 189)" stroke-width="1px" opacity="0.25"></line><line x1="920.4469531249999" y1="0" x2="920.4469531249999" y2="377" fill="rgb(0, 0, 0)" stroke="rgb(189, 189, 189)" stroke-width="1px" opacity="0.25"></line><line x1="1051.939375" y1="0" x2="1051.939375" y2="377" fill="rgb(0, 0, 0)" stroke="rgb(189, 189, 189)" stroke-width="1px" opacity="0.25"></line></g><g><line x1="0" y1="141.39523688422796" x2="1051.939375" y2="141.39523688422796" fill="rgb(0, 0, 0)" stroke="rgb(189, 189, 189)" stroke-width="1px" opacity="0.25"></line></g></g></g><g><g><line x1="131.492421875" y1="0" x2="131.492421875" y2="377" fill="rgb(0, 0, 0)" stroke="rgb(153, 153, 153)" stroke-width="1.5px"></line></g></g><g><g><g><g><g><path stroke="rgb(255, 112, 67)" stroke-width="2px" d="M132.80734609375,347.1882390777276L134.1222703125,347.1882390777276L135.43719453125,347.18828944885126L136.75211875,346.5766930540652L138.06704296875,343.8633602922916L139.3819671875,343.8633602922916L140.69689140625,343.8633602922916L142.011815625,342.70523747307396L143.32673984375,340.39767358255386L144.6416640625,340.39772338640023L145.95658828125,340.39772338640023L147.2715125,338.70846782645754L148.58643671874998,336.8871380652072L149.9013609375,336.88708855212207L151.21628515624997,336.88708855212207L152.53120937499997,335.0003933615155L153.84613359374998,333.75580348487364L155.1610578125,333.75580348487364L156.47598203124997,333.75580348487364L157.79090624999998,331.5497383043784L159.10583046874999,330.8542196440669L160.4207546875,330.85426866144434L161.73567890624997,330.8542196440669L163.05060312499998,327.7719535748341L164.36552734375,327.35846271527066L165.6804515625,327.3585114476836L166.99537578125,327.2933597489398L168.31029999999998,323.75182790917125L169.62522421875,323.75182790917125L170.9401484375,323.751779469029L172.25507265625,323.1428571428571L173.569996875,320.48570205688566L174.88492109375,320.48570205688566L176.1998453125,320.48570205688566L177.51476953125,319.27998541921374L178.82969375,317.1051324889268L180.14461796875,317.1051324889268L181.45954218749998,317.1050845828211L182.77446640624999,315.65509276879266L184.08939062499996,314.20797939759217L185.40431484374997,314.20797939759217L186.71923906249998,314.20797939759217L188.03416328125,312.1760300769985L189.34908749999997,311.12836216270614L190.66401171874998,311.12836216270614L191.97893593749998,311.1283147317819L193.29386015625,308.481826989884L194.60878437499997,307.92264852801617L195.92370859374998,307.9226013500163L197.2386328125,307.9226013500163L198.55355703125,304.60048930050914L199.86848125,304.54118874960506L201.18340546874998,304.5411418369341L202.4983296875,304.17542840226736L203.81325390625,301.04822633560457L205.128178125,301.0482729757679L206.44310234374998,301.0482729757679L207.7580265625,300.2766883760025L209.07295078125,297.9087623529388L210.387875,297.9087623529388L211.70279921875,297.9087623529388L213.0177234375,296.6324990503415L214.33264765624997,294.7831132475413L215.64757187499998,294.7831132475413L216.96249609374996,294.7831132475413L218.27742031249997,293.091692848791L219.59234453124998,291.8442787152126L220.90726875,291.84423278556244L222.22219296874997,291.8442787152126L223.53711718749997,289.5301297645361L224.85204140624998,288.8014117266332L226.166965625,288.8013660294919L227.48188984374997,288.8013660294919L228.79681406249998,285.9544408349179L230.11173828124998,285.5794790322398L231.4266625,285.5794790322398L232.74158671875,285.4148281966416L234.05651093749998,282.3712866956365L235.37143515625,282.3712414859637L236.686359375,282.37119627629426L238.00128359375,281.6409624982146L239.31620781249998,279.34649066666066L240.63113203125,279.34649066666066L241.94605625,279.34653564882854L243.26098046875,278.37929996735727L244.57590468749999,276.59106191510466L245.89082890625,276.59106191510466L247.20575312499997,276.59106191510466L248.52067734374998,275.25152077869393L249.83560156249996,274.01696549098943L251.15052578124997,274.01696549098943L252.46544999999998,274.01705465917837L253.78037421874998,272.1827311843575L255.09529843749996,271.3324237493721L256.41022265624997,271.3324237493721L257.72514687499995,271.3323793644613L259.04007109375,269.3075451428796L260.35499531249997,268.92414799631945L261.66991953125,268.9241037893327L262.98484375,268.7882269149658L264.29976796874996,266.1954131923349L265.6146921875,266.195369186086L266.92961640625,266.1954131923349L268.244540625,265.58597243070443L269.55946484374994,263.2739265457662L270.8743890625,263.2739703381111L272.18931328124995,263.2739703381111L273.5042375,262.32705211059243L274.81916171874997,260.4711651468714L276.1340859375,260.4711651468714L277.44901015625,260.4711215587668L278.763934375,259.33929215407096L280.07885859374994,257.8590924345501L281.3937828125,257.8590490359295L282.70870703124996,257.8590056373119L284.02363125,256.19320926230483L285.33855546875,255.10173158380826L286.6534796875,255.10168838431738L287.96840390625,255.10168838431738L289.283328125,253.03453170069935L290.59825234374995,252.36460509686398L291.9131765625,252.3646480995933L293.22810078124996,252.3646480995933L294.543025,250.15554430727974L295.85794921875,249.85763429338073L297.17287343749996,249.85759147008767L298.48779765625,249.71025462881613L299.802721875,247.39423867731136L301.11764609375,247.39423867731136L302.43257031249993,247.39423867731136L303.74749453124997,246.84740330640759L305.06241874999995,245.00637821608666L306.37734296875,245.006420694284L307.69226718749997,245.0064631724843L309.00719140625,244.12505150552244L310.322115625,242.61643956658443L311.63703984375,242.6163972573767L312.95196406249994,242.6163972573767L314.26688828125,241.40617998922752L315.58181249999996,240.17560389951336L316.89673671875,240.17556176219725L318.21166093749997,240.17564603683243L319.52658515625,238.60518196319262L320.841509375,237.77706391116453L322.15643359375,237.7771058802509L323.47135781249995,237.77706391116453L324.78628203125,235.894477523253L326.10120624999996,235.51442053756506L327.41613046875,235.5145041595702L328.7310546875,235.5145041595702L330.04597890624996,233.3598454437765L331.360903125,233.31976888350363L332.67582734375,233.31981054173883L333.9907515625,233.00050188322675L335.30567578124993,231.03658474596955L336.62059999999997,231.0365432460734L337.93552421874995,231.0365432460734L339.2504484375,230.34903531735728L340.56537265624996,228.62163726654774L341.880296875,228.62163726654774L343.19522109375,228.62163726654774L344.5101453125,227.3562386758216L345.82506953124994,225.79081476851806L347.13999375,225.79073249175232L348.45491796874995,225.79073249175232L349.7698421875,224.31440845146133L351.08476640624997,223.18887109754527L352.399690625,223.18899397828676L353.71461484375,223.1889120577896L355.0295390625,221.42015681397757L356.34446328124994,220.69789467200877L357.6593875,220.69789467200877L358.97431171874996,220.69789467200877L360.2892359375,218.88871653185416L361.60416015625,218.63573659353509L362.91908437499995,218.6357772439021L364.23400859375,218.52196701509044L365.54893281249997,216.40574471871813L366.86385703125,216.40578521817253L368.17878124999993,216.40570421926637L369.49370546874997,216.00121068683416L370.80862968749994,214.02042072304704L372.12355390625,214.02038038439972L373.43847812499996,214.02038038439972L374.75340234375,213.3626163141835L376.0683265625,211.76405359203272L377.38325078125,211.76397321778708L378.69817499999994,211.76401340490852L380.01309921874997,210.8650988602399L381.32802343749995,209.672550025245L382.64294765625,209.672550025245L383.95787187499997,209.6725900724282L385.27279609375,208.35748224182436L386.5877203125,207.4269499756909L387.90264453125,207.42691007822222L389.21756874999994,207.4268701807562L390.53249296875,205.7924659917381L391.84741718749996,205.2439888725361L393.16234140625,205.24402862500818L394.477265625,205.2439888725361L395.79218984374995,203.42937396162964L397.1071140625,203.14290059797887L398.42203828124997,203.14294021138758L399.7369625,203.0348053539791L401.0518867187499,201.08633649502895L402.36681093749996,201.08633649502895L403.68173515624994,201.0863759727924L404.996659375,200.6875858142232L406.31158359374996,199.02437023888666L407.6265078125,199.02437023888666L408.94143203125,199.02444892334546L410.25635625,198.32083270704734L411.57128046874993,197.08012513164428L412.88620468749997,197.08012513164428L414.20112890624995,197.08008591678976L415.516053125,196.01329352026056L416.83097734374996,194.97770335089973L418.1459015625,194.97778150607726L419.46082578125,194.97778150607726L420.77575,193.6349781062254L422.09067421874994,193.07319808153267L423.4055984375,193.07319808153267L424.72052265624995,193.07319808153267L426.035446875,191.59995159033244L427.35037109374997,191.29538181613856L428.66529531249995,191.29538181613856L429.98021953125,191.29545949278358L431.29514374999997,189.24210194016578L432.61006796875,189.24210194016578L433.9249921874999,189.24210194016578L435.23991640624996,188.98608075225073L436.55484062499994,187.3997262791659L437.86976484375,187.39968769238058L439.18468906249996,187.39968769238058L440.49961328125,186.77402086152603L441.8145375,185.42648456258L443.12946171875,185.42644610258014L444.44438593749993,185.4265230225824L445.75931015624997,184.58153709790705L447.07423437499995,183.72596647103606L448.38915859375,183.7258897688948L449.70408281249996,183.7259281199642L451.01900703125,182.3230011550566L452.33393125,181.55443907394454L453.64885546875,181.55451549879456L454.96377968749994,181.5544772863683L456.27870390625,179.7495961030146L457.59362812499995,179.3446795416646L458.90855234375,179.3446414698203L460.22347656249997,179.3446414698203L461.53840078124995,177.47074524437653L462.853325,177.369874555675L464.16824921874996,177.36983660902317L465.4831734375,177.1730016989331L466.7980976562499,175.42417086380942L468.11302187499996,175.42409521639775L469.42794609374994,175.42409521639775L470.7428703125,175.42409521639775L472.05779453124995,175.1109589142178L473.37271875,173.74869223589207L474.68764296874997,173.74872995405073L476.0025671875,173.74872995405073L477.3174914062499,173.1315637115729L478.63241562499996,171.91425000827502L479.94733984374994,171.91417480241935L481.2622640625,171.91417480241935L482.57718828124996,170.97633964429534L483.8921125,169.89431794496062L485.20703671875,169.8942429920475L486.5219609375,169.89428046850284L487.83688515624993,168.60307136653375L489.15180937499997,167.89394232153836L490.46673359374995,167.89394232153836L491.7816578125,167.89394232153836L493.09658203124997,166.17848520009386L494.41150624999995,165.89355482972013L495.72643046875,165.89351760250258L497.04135468749996,165.89355482972013L498.35627890625,163.83900948826104L499.6712031249999,163.83904658813134L500.98612734374996,163.83900948826104L502.30105156249994,163.55040487851124L503.61597578125,162.0685121360707L504.93089999999995,162.06862310750796L506.24582421875,162.0685491265475L507.56074843749997,161.42821610763338L508.87567265625,160.19930393861003L510.1905968749999,160.19934081394427L511.50552109374996,160.19926706327797L512.8204453124999,159.3231227890388L514.13536953125,158.3054310912742L515.4502937499999,158.30539433223848L516.76521796875,158.3054310912742L518.0801421875,157.34451161292242L519.39506640625,156.64889656509612L520.7099906249999,156.64893322271266L522.02491484375,156.6488599074818L523.3398390625,155.25605996648594L524.65476328125,154.8103696369986L525.9696875,154.81029654624484L527.2846117187499,154.81029654624484L528.5995359374999,153.3740672778999L529.91446015625,153.21928685995582L531.229384375,153.21917751438806L532.54430859375,153.13097858537503L533.8592328125,151.49861776160935L535.17415703125,151.4985450734671L536.48908125,151.49850872939933L537.8040054687499,151.06046837199813L539.1189296874999,149.55500121159994L540.43385390625,149.55500121159994L541.748778125,149.55500121159994L543.0637023437499,148.82468629826369L544.3786265624999,147.7517187115072L545.69355078125,147.7517187115072L547.008475,147.75164647620423L548.32339921875,146.79756369880457L549.6383234374999,146.02493060233118L550.95324765625,146.02489458855055L552.268171875,146.02485857477208L553.58309609375,144.88107228586398L554.8980203125,144.3965838285083L556.2129445312501,144.3965479124044L557.52786875,144.3965838285083L558.84279296875,142.86897239799043L560.1577171874999,142.56654481843162L561.4726414062499,142.56658062507861L562.787565625,142.56661643172777L564.1024898437499,140.93226723845459L565.4174140624999,140.9321958201033L566.7323382812499,140.9321958201033L568.0472625,140.6837828592901L569.36218671875,139.11827401803174L570.6771109375,139.11827401803174L571.9920351562499,139.11827401803174L573.306959375,138.5918906925319L574.62188359375,137.25324861965996L575.9368078125,137.25324861965996L577.25173203125,137.2531776382014L578.56665625,136.54321575344238L579.88158046875,135.56343408090228L581.1965046874999,135.56343408090228L582.5114289062499,135.56336329921686L583.826353125,134.52342108740748L585.14127734375,133.79064045024643L586.4562015624999,133.79056987753967L587.7711257812499,133.79064045024643L589.08605,132.42675210551153L590.40097421875,132.04685700899176L591.7158984375,132.04678664124202L593.0308226562499,132.04685700899176L594.3457468749999,130.36398365456878L595.66067109375,130.27087460412486L596.9755953125,130.27087460412486L598.29051953125,130.08771580483318L599.60544375,128.70359438236383L600.92036796875,128.70359438236383L602.2352921875,128.70359438236383L603.5502164062499,128.21969253466327L604.8651406249999,126.87970574691667L606.18006484375,126.87970574691667L607.4949890624999,126.87970574691667L608.8099132812499,126.20351672824346L610.1248374999999,125.20095704491256L611.43976171875,125.20102661377106L612.7546859375,125.20102661377106L614.06961015625,124.13228887639853L615.3845343749999,123.44927017238146L616.69945859375,123.44933953828392L618.0143828125,123.44933953828392L619.32930703125,122.22150313384032L620.64423125,121.84656476888877L621.95915546875,121.84656476888877L623.2740796875,121.84656476888877L624.5890039062499,120.48752893131605L625.9039281249999,120.38641716929752L627.2188523437499,120.38641716929752L628.5337765625,120.20549383039736L629.8487007812499,118.63770993439852L631.1636249999999,118.63770993439852L632.4785492187499,118.63777874585989L633.7934734375,118.11235825298257L635.10839765625,116.89525460926711L636.4233218749999,116.89518599750372L637.7382460937499,116.89525460926711L639.0531703125,116.22022051652814L640.36809453125,115.31172965586141L641.68301875,115.31166122507142L642.99794296875,115.31172965586141L644.3128671875,114.36860588083722L645.62779140625,113.68917480103434L646.9427156249999,113.68917480103434L648.2576398437499,113.68917480103434L649.5725640625,112.58672176790675L650.88748828125,112.24526291984655L652.2024124999999,112.24512675646592L653.5173367187499,112.24519483815239L654.8322609375,110.74845045594626L656.14718515625,110.64543688733718L657.462109375,110.64536898706449L658.7770335937499,110.43023163784413L660.0919578124999,109.37087848643343L661.40688203125,109.37094624252394L662.72180625,109.37087848643343L664.03673046875,108.90401759281714L665.3516546875,107.83789356471324L666.66657890625,107.83789356471324L667.981503125,107.83782598165021L669.2964273437499,107.10938537748885L670.6113515624999,106.31023387032516L671.92627578125,106.31023387032516L673.2411999999999,106.31023387032516L674.5561242187499,105.26263756307615L675.8710484374999,104.71653118894201L677.18597265625,104.71653118894201L678.500896875,104.71653118894201L679.81582109375,103.72728724630635L681.1307453124999,103.51951569960224L682.44566953125,103.51951569960224L683.76059375,103.51951569960224L685.07551796875,102.32073348144239L686.3904421875,102.23341875423189L687.70536640625,102.23341875423189L689.020290625,102.08761008265532L690.33521484375,100.79449176472379L691.6501390624999,100.7946253522915L692.9650632812499,100.7946253522915L694.2799875,100.33445917691415L695.5949117187499,99.20956832650232L696.9098359374999,99.20956832650232L698.2247601562499,99.20956832650232L699.539684375,98.56592311508422L700.85460859375,97.78285595825959L702.1695328124999,97.78278949915389L703.4844570312499,97.78285595825959L704.79938125,96.89269918099554L706.11430546875,96.31597199555286L707.4292296875,96.31590569884644L708.74415390625,96.31597199555286L710.059078125,95.22883030410118L711.37400234375,94.99348630368061L712.6889265624999,94.99342015304693L714.0038507812499,94.99342015304693L715.318775,93.92148189529742L716.6336992187499,93.90140836125508L717.9486234374999,93.90140836125508L719.2635476562499,93.70387837577834L720.578471875,92.74092789142881L721.89339609375,92.74092789142881L723.2083203125,92.74092789142881L724.5232445312499,92.35914404438844L725.8381687499999,91.55190715121857L727.15309296875,91.55190715121857L728.4680171875,91.55197292323321L729.78294140625,91.00197655927123L731.0978656249999,90.4972602652603L732.41278984375,90.4972602652603L733.7277140625,90.4972602652603L735.0426382812499,89.74196517443178L736.3575624999999,89.391772438293L737.67248671875,89.391772438293L738.9874109374999,89.391772438293L740.3023351562499,88.26450860694275L741.6172593749999,88.11211715140966L742.93218359375,88.11211715140966L744.2471078125,88.00219697739735L745.5620320312499,86.6686102300417L746.8769562499999,86.6685449915555L748.19188046875,86.6686102300417L749.5068046875,86.33729026297415L750.82172890625,85.38791222188517L752.136653125,85.38791222188517L753.45157734375,85.38791222188517L754.7665015625,84.7914438625767L756.0814257812499,84.03842658304791L757.3963499999999,84.03849153597771L758.7112742187498,84.03849153597771L760.0261984374999,83.03801231978234L761.3411226562499,82.49194499169793L762.6560468749999,82.49194499169793L763.9709710937499,82.49194499169793L765.2858953125,81.38164139952441L766.60081953125,81.17571637336566L767.9157437499999,81.17578101690664L769.2306679687499,81.17571637336566L770.5455921875,79.81309338687883L771.86051640625,79.78800466071269L773.175440625,79.78806915480679L774.49036484375,79.66038443863962L775.8052890625,78.35273112429206L777.12021328125,78.35273112429206L778.4351374999999,78.35273112429206L779.7500617187499,78.00783987626531L781.0649859375,77.04940021061819L782.3799101562499,77.04927181028194L783.6948343749999,77.04940021061819L785.0097585937499,76.54416516613412L786.3246828125,76.0142319288154L787.63960703125,76.01429601824553L788.95453125,76.01429601824553L790.2694554687499,75.45518421814957L791.5843796874999,75.16679980405051L792.89930390625,75.16679980405051L794.214228125,75.16686380295961L795.52915234375,74.27634061461474L796.8440765624999,74.08913134074126L798.15900078125,74.0891952247206L799.473925,74.03355485756754L800.7888492187499,72.7848264938258L802.1037734374999,72.7848264938258L803.41869765625,72.78476274867695L804.7336218749999,72.52996380624161L806.0485460937499,71.47769191541661L807.3634703124999,71.47769191541661L808.67839453125,71.47762830909002L809.99331875,70.9053174225824L811.3082429687499,69.99051368060393L812.6231671874999,69.99051368060393L813.93809140625,69.99051368060393L815.253015625,69.12791419485376L816.56793984375,68.57955214038172L817.8828640625,68.57955214038172L819.19778828125,68.57955214038172L820.5127125,67.22482626328168L821.82763671875,66.86740246318678L823.1425609374999,66.86740246318678L824.4574851562498,66.86746558230047L825.7724093749999,65.64357353984018L827.0873335937499,65.63009374511948L828.4022578124999,65.63003075613588L829.7171820312499,65.43725248300107L831.03210625,64.41626572745463L832.34703046875,64.41626572745463L833.6619546874999,64.41626572745463L834.9768789062499,63.882242939017466L836.291803125,63.23876786737395L837.60672734375,63.23876786737395L838.9216515625,63.23876786737395L840.2365757812499,62.48656901665206L841.5515,62.08943871460053L842.86642421875,62.08943871460053L844.1813484374999,62.08943871460053L845.4962726562499,61.258258780826075L846.811196875,61.078383041214906L848.1261210937499,61.07844555382152L849.4410453124999,60.98599653167935L850.7559695312499,60.14142647770102L852.07089375,60.14136406271503L853.38581796875,60.14136406271503L854.7007421874999,59.71821500598618L856.0156664062499,58.9801973881193L857.3305906249999,58.9801973881193L858.64551484375,58.98013509390111L859.9604390625,58.52039321354338L861.27536328125,58.10087434133231L862.5902874999999,58.10087434133231L863.90521171875,58.10093654426285L865.2201359375,57.629685756648676L866.5350601562499,57.419828219978335L867.8499843749998,57.419890352292526L869.1649085937499,57.419890352292526L870.4798328124999,56.36630690942389L871.7947570312499,56.27030263425272L873.1096812499999,56.27030263425272L874.42460546875,56.143498844595726L875.7395296875,55.0633751068474L877.0544539062499,55.06343699544337L878.3693781249999,55.0633751068474L879.68430234375,54.70613682048501L880.9992265625,53.85708109293879L882.31415078125,53.85708109293879L883.629075,53.85714285714283L884.94399921875,53.33873299400902L886.2589234375,52.88298666751386L887.5738476562499,52.88298666751386L888.8887718749999,52.88298666751386L890.2036960937498,52.04709833218685L891.5186203124999,51.6995295595689L892.8335445312499,51.6995295595689L894.1484687499999,51.6994680172326L895.4633929687499,50.404232654685536L896.7783171875,50.231512536175835L898.09324140625,50.23163531986604L899.4081656249999,50.12648030033232L900.7230898437499,49.09359027575304L902.0380140625,49.0935290003236L903.35293828125,49.09359027575304L904.6678625,48.75838482963929L905.9827867187499,47.92119020663966L907.2977109375,47.92119020663966L908.61263515625,47.92119020663966L909.9275593749999,47.45964213988255L911.2424835937499,47.05768186076806L912.5574078125,47.05774292848664L913.8723320312499,47.05768186076806L915.1872562499999,46.14456025151477L916.5021804687499,45.754936073613976L917.8171046875,45.75487513844699L919.13202890625,45.75487513844699L920.4469531249999,44.733132311170635" style="fill: none;" fill="none"></path></g></g></g></g></g></g><g transform="translate(20, 377)" clip-path="url(#clip_1)"><clipPath id="clip_1"><rect width="1051" height="23"></rect></clipPath><g><g><line x1="0" y1="0" x2="0" y2="5" style="visibility: inherit;" fill="rgb(0, 0, 0)" stroke="rgb(204, 204, 204)" stroke-width="1px"></line><line x1="131.492421875" y1="0" x2="131.492421875" y2="5" style="visibility: inherit;" fill="rgb(0, 0, 0)" stroke="rgb(204, 204, 204)" stroke-width="1px"></line><line x1="262.98484375" y1="0" x2="262.98484375" y2="5" style="visibility: inherit;" fill="rgb(0, 0, 0)" stroke="rgb(204, 204, 204)" stroke-width="1px"></line><line x1="394.477265625" y1="0" x2="394.477265625" y2="5" style="visibility: inherit;" fill="rgb(0, 0, 0)" stroke="rgb(204, 204, 204)" stroke-width="1px"></line><line x1="525.9696875" y1="0" x2="525.9696875" y2="5" style="visibility: inherit;" fill="rgb(0, 0, 0)" stroke="rgb(204, 204, 204)" stroke-width="1px"></line><line x1="657.462109375" y1="0" x2="657.462109375" y2="5" style="visibility: inherit;" fill="rgb(0, 0, 0)" stroke="rgb(204, 204, 204)" stroke-width="1px"></line><line x1="788.95453125" y1="0" x2="788.95453125" y2="5" style="visibility: inherit;" fill="rgb(0, 0, 0)" stroke="rgb(204, 204, 204)" stroke-width="1px"></line><line x1="920.4469531249999" y1="0" x2="920.4469531249999" y2="5" style="visibility: inherit;" fill="rgb(0, 0, 0)" stroke="rgb(204, 204, 204)" stroke-width="1px"></line><line x1="1051.939375" y1="0" x2="1051.939375" y2="5" style="visibility: inherit;" fill="rgb(0, 0, 0)" stroke="rgb(204, 204, 204)" stroke-width="1px"></line></g><g transform="translate(0, 8)"><text x="0" y="0" dx="0em" dy="0.95em" style="text-anchor: middle; visibility: hidden; font-family: Roboto, sans-serif; font-size: 12px; font-weight: 200;" fill="rgb(255, 255, 255)" stroke="none" stroke-width="1px">-500k</text><text x="131.492421875" y="0" dx="0em" dy="0.95em" style="text-anchor: middle; visibility: inherit; font-family: Roboto, sans-serif; font-size: 12px; font-weight: 200;" fill="rgb(255, 255, 255)" stroke="none" stroke-width="1px">0</text><text x="262.98484375" y="0" dx="0em" dy="0.95em" style="text-anchor: middle; visibility: inherit; font-family: Roboto, sans-serif; font-size: 12px; font-weight: 200;" fill="rgb(255, 255, 255)" stroke="none" stroke-width="1px">500k</text><text x="394.477265625" y="0" dx="0em" dy="0.95em" style="text-anchor: middle; visibility: inherit; font-family: Roboto, sans-serif; font-size: 12px; font-weight: 200;" fill="rgb(255, 255, 255)" stroke="none" stroke-width="1px">1M</text><text x="525.9696875" y="0" dx="0em" dy="0.95em" style="text-anchor: middle; visibility: inherit; font-family: Roboto, sans-serif; font-size: 12px; font-weight: 200;" fill="rgb(255, 255, 255)" stroke="none" stroke-width="1px">1.5M</text><text x="657.462109375" y="0" dx="0em" dy="0.95em" style="text-anchor: middle; visibility: inherit; font-family: Roboto, sans-serif; font-size: 12px; font-weight: 200;" fill="rgb(255, 255, 255)" stroke="none" stroke-width="1px">2M</text><text x="788.95453125" y="0" dx="0em" dy="0.95em" style="text-anchor: middle; visibility: inherit; font-family: Roboto, sans-serif; font-size: 12px; font-weight: 200;" fill="rgb(255, 255, 255)" stroke="none" stroke-width="1px">2.5M</text><text x="920.4469531249999" y="0" dx="0em" dy="0.95em" style="text-anchor: middle; visibility: inherit; font-family: Roboto, sans-serif; font-size: 12px; font-weight: 200;" fill="rgb(255, 255, 255)" stroke="none" stroke-width="1px">3M</text><text x="1051.939375" y="0" dx="0em" dy="0.95em" style="text-anchor: middle; visibility: hidden; font-family: Roboto, sans-serif; font-size: 12px; font-weight: 200;" fill="rgb(255, 255, 255)" stroke="none" stroke-width="1px">3.5M</text></g><line x1="0" y1="0" x2="1051.939375" y2="0" fill="rgb(0, 0, 0)" stroke="rgb(204, 204, 204)" stroke-width="1px"></line></g></g></g></g></svg>