<svg viewBox="0 0 1072.3333740234375 400" xmlns="http://www.w3.org/2000/svg"><g><g><g><g><g><line x1="41.171875" y1="353.8290122283792" x2="36.171875" y2="353.8290122283792" style="visibility: inherit;" fill="rgb(0, 0, 0)" stroke="rgb(204, 204, 204)" stroke-width="1px"></line><line x1="41.171875" y1="300.19839082488977" x2="36.171875" y2="300.19839082488977" style="visibility: inherit;" fill="rgb(0, 0, 0)" stroke="rgb(204, 204, 204)" stroke-width="1px"></line><line x1="41.171875" y1="252.22416521054885" x2="36.171875" y2="252.22416521054885" style="visibility: inherit;" fill="rgb(0, 0, 0)" stroke="rgb(204, 204, 204)" stroke-width="1px"></line></g><g transform="translate(31.171875, 0)"><text x="0" y="353.8290122283792" dx="0em" dy="0.3em" style="text-anchor: end; visibility: inherit; font-family: Roboto, sans-serif; font-size: 12px; font-weight: 200;" fill="rgb(255, 255, 255)" stroke="none" stroke-width="1px">0.8</text><text x="0" y="300.19839082488977" dx="0em" dy="0.3em" style="text-anchor: end; visibility: inherit; font-family: Roboto, sans-serif; font-size: 12px; font-weight: 200;" fill="rgb(255, 255, 255)" stroke="none" stroke-width="1px">0.9</text><text x="0" y="252.22416521054885" dx="0em" dy="0.3em" style="text-anchor: end; visibility: inherit; font-family: Roboto, sans-serif; font-size: 12px; font-weight: 200;" fill="rgb(255, 255, 255)" stroke="none" stroke-width="1px">1</text></g><line x1="41.171875" y1="0" x2="41.171875" y2="377" fill="rgb(0, 0, 0)" stroke="rgb(204, 204, 204)" stroke-width="1px"></line></g></g><g transform="translate(41, 0)" clip-path="url(#clip_0)"><clipPath id="clip_0"><rect width="1031" height="377"></rect></clipPath><g><g><g><line x1="0" y1="0" x2="0" y2="377" fill="rgb(0, 0, 0)" stroke="rgb(189, 189, 189)" stroke-width="1px" opacity="0.25"></line><line x1="128.894765625" y1="0" x2="128.894765625" y2="377" fill="rgb(0, 0, 0)" stroke="rgb(189, 189, 189)" stroke-width="1px" opacity="0.25"></line><line x1="257.78953125" y1="0" x2="257.78953125" y2="377" fill="rgb(0, 0, 0)" stroke="rgb(189, 189, 189)" stroke-width="1px" opacity="0.25"></line><line x1="386.684296875" y1="0" x2="386.684296875" y2="377" fill="rgb(0, 0, 0)" stroke="rgb(189, 189, 189)" stroke-width="1px" opacity="0.25"></line><line x1="515.5790625" y1="0" x2="515.5790625" y2="377" fill="rgb(0, 0, 0)" stroke="rgb(189, 189, 189)" stroke-width="1px" opacity="0.25"></line><line x1="644.473828125" y1="0" x2="644.473828125" y2="377" fill="rgb(0, 0, 0)" stroke="rgb(189, 189, 189)" stroke-width="1px" opacity="0.25"></line><line x1="773.36859375" y1="0" x2="773.36859375" y2="377" fill="rgb(0, 0, 0)" stroke="rgb(189, 189, 189)" stroke-width="1px" opacity="0.25"></line><line x1="902.2633593749999" y1="0" x2="902.2633593749999" y2="377" fill="rgb(0, 0, 0)" stroke="rgb(189, 189, 189)" stroke-width="1px" opacity="0.25"></line><line x1="1031.158125" y1="0" x2="1031.158125" y2="377" fill="rgb(0, 0, 0)" stroke="rgb(189, 189, 189)" stroke-width="1px" opacity="0.25"></line></g><g><line x1="0" y1="353.8290122283792" x2="1031.158125" y2="353.8290122283792" fill="rgb(0, 0, 0)" stroke="rgb(189, 189, 189)" stroke-width="1px" opacity="0.25"></line><line x1="0" y1="300.19839082488977" x2="1031.158125" y2="300.19839082488977" fill="rgb(0, 0, 0)" stroke="rgb(189, 189, 189)" stroke-width="1px" opacity="0.25"></line><line x1="0" y1="252.22416521054885" x2="1031.158125" y2="252.22416521054885" fill="rgb(0, 0, 0)" stroke="rgb(189, 189, 189)" stroke-width="1px" opacity="0.25"></line></g></g></g><g><g><line x1="128.894765625" y1="0" x2="128.894765625" y2="377" fill="rgb(0, 0, 0)" stroke="rgb(153, 153, 153)" stroke-width="1.5px"></line></g></g><g><g><g><g><g><path stroke="rgb(255, 112, 67)" stroke-width="2px" d="M140.49529453125,-32.197089631574066L141.7842421875,7.531753589866111L143.07318984375001,138.09784108000795L144.36213750000002,86.12204339379214L145.65108515624996,167.41137539566822L146.94003281249996,105.06206844487657L148.22898046874997,158.83199290566162L149.51792812499997,175.59048508757448L150.80687578124997,93.04424681533554L152.09582343749997,155.04622369170892L153.38477109374998,99.0222334509575L154.67371874999998,99.37694071377369L155.96266640624998,69.12130174851177L157.25161406249998,196.9245878672146L158.54056171874998,200.40047626452437L159.829509375,245.6927640038603L161.11845703125,269.47915916759285L162.4074046875,205.66349401664635L163.69635234375,143.73806215670243L164.9853,225.77682360688004L166.27424765625,215.94771790824558L167.5631953125,225.33969078108439L168.85214296875,211.8214712971848L170.141090625,267.7368557971013L171.43003828125,247.00697135928615L172.7189859375,181.2925131701584L174.00793359375,174.3258550885877L175.29688125,223.37560450551405L176.58582890625001,183.06169745358608L177.87477656249996,240.83804222691364L179.16372421874996,216.145246685613L180.45267187499996,249.86130838509325L181.74161953124997,224.04978486570758L183.03056718749997,119.46685123364959L184.31951484374997,247.87534685382138L185.60846249999997,209.48888793746644L186.89741015624998,144.11898420844398L188.18635781249998,216.13416475703775L189.47530546874998,293.7403714598673L190.76425312499998,333.1973490068128L192.05320078124998,242.33216842075117L193.3421484375,132.61611451788258L194.63109609375,233.77590067535323L195.92004375,259.4352104121276L197.20899140625,225.44178227114222L198.4979390625,235.72159619941567L199.78688671875,158.5357646294372L201.075834375,238.7959854428601L202.36478203125,223.45259299583248L203.6537296875,262.5850747267937L204.94267734375,256.0496997454956L206.231625,287.02141433565583L207.52057265625,328.1154662220687L208.8095203125,173.18038461251857L210.09846796874996,276.5809475540407L211.38741562499996,169.22164345792245L212.67636328124996,347.2976377751901L213.96531093749996,232.70511008133985L215.25425859374997,343.78952310479326L216.54320624999997,283.0858179488028L217.83215390624997,240.51146945361793L219.12110156249997,295.3189315165966L220.41004921874998,246.496452370086L221.69899687499998,160.4956314176509L222.98794453124998,206.62429802730114L224.27689218749998,194.48740953562302L225.56583984374998,344.8334314037101L226.8547875,297.90953677723604L228.14373515625,134.30016118307591L229.4326828125,290.0600315640342L230.72163046875,221.50193997251924L232.010578125,212.49635664459657L233.29952578125,209.075452361006L234.5884734375,192.09783316625314L235.87742109375,214.30393651707283L237.16636875,140.97449392188787L238.45531640625,187.13182355136374L239.7442640625,182.57508468047274L241.03321171875,240.82258414308265L242.32215937499996,186.0968283132847L243.61110703124996,255.5747395689997L244.90005468749996,177.925105261243L246.18900234374996,308.79372104552556L247.47794999999996,192.9617758895285L248.76689765624997,212.52341864379667L250.05584531249997,220.71206905804763L251.34479296874997,426.9450581858017L252.63374062499997,154.1888329668878L253.92268828124998,214.2388658120512L255.21163593749998,177.76495498819818L256.50058359375,320.77478369270386L257.78953125,221.97537316804502L259.0784789062499,174.31322971123475L260.3674265625,342.78598067551707L261.65637421874993,286.0315445616269L262.945321875,238.0364362340111L264.23426953124994,211.63136975609055L265.5232171875,198.12234742742862L266.81216484374994,121.43147031745386L268.1011125,230.0366949048265L269.39006015624994,283.35294935232963L270.6790078125,168.63139504205583L271.96795546874995,106.63830406690856L273.256903125,168.50604826330377L274.54585078124995,281.44918190837535L275.8347984375,185.1635311619008L277.12374609374996,223.230885076663L278.41269375,233.0357570965778L279.70164140624996,320.9438891816605L280.9905890625,260.16035751852667L282.27953671874997,222.51067217102838L283.568484375,200.89023361574135L284.85743203124997,137.93289969064662L286.14637968750003,203.9738410330446L287.43532734375,219.67951363349616L288.72427500000003,130.3457934210683L290.01322265625,173.1745440328992L291.3021703124999,286.8189694776957L292.59111796875,226.843130543129L293.88006562499993,310.4246647333922L295.16901328125,349.12938393862464L296.45796093749993,148.54750150306523L297.74690859375,90.75899305111679L299.03585624999994,146.97322235868776L300.32480390625,260.1070870521501L301.61375156249994,55.582304142819986L302.90269921875,257.0852604902691L304.19164687499995,269.0497166627042L305.48059453125,225.55536356147192L306.76954218749995,146.49488040793725L308.05848984375,147.40286663128865L309.34743749999996,38.187807425895585L310.63638515625,217.14930471083014L311.92533281249996,261.51414724043417L313.21428046875,123.66376680494835L314.50322812499996,241.59655613933793L315.79217578125,117.45737579550887L317.08112343749997,305.54147467753955L318.37007109375,268.91664409393366L319.65901875,141.26823219397923L320.94796640625003,278.8255555029697L322.2369140625,168.4661252200012L323.5258617187499,221.84760025567573L324.814809375,98.19818467576798L326.1037570312499,231.33586867835126L327.3927046875,171.14637653165707L328.68165234374993,202.40850490706399L329.9706,163.35063107338308L331.25954765624994,95.30472327860419L332.5484953125,191.43396996035375L333.83744296874994,145.45434012543078L335.126390625,190.55684796596847L336.41533828124994,220.69743128449892L337.7042859375,198.70868030336104L338.99323359374995,111.91141547348718L340.28218125,278.1620775490872L341.57112890624995,285.9646963607825L342.8600765625,37.32217049430355L344.14902421874996,158.01030340312602L345.437971875,274.2735355535166L346.72691953124996,238.99529779025372L348.0158671875,190.22887749088636L349.30481484374997,242.92546125016244L350.5937625,199.49959454394735L351.88271015624997,323.5319646852572L353.17165781250003,-31.460089201442205L354.46060546875,172.54547784115408L355.7495531249999,61.294051708955074L357.03850078125,232.53379454122881L358.3274484374999,-131.8213794444937L359.61639609375,186.95386985020548L360.90534374999993,262.16846230534117L362.19429140625,41.73818371461049L363.48323906249993,244.7924897426306L364.77218671875,143.96614064457918L366.06113437499994,105.3928894387724L367.35008203125,87.57923835950423L368.63902968749994,33.58295938837733L369.92797734375,-27.126934742229246L371.21692499999995,83.92447822888853L372.50587265625,256.7018498447514L373.79482031249995,84.0087651820402L375.08376796875,147.10342179415898L376.37271562499996,68.27126265470842L377.66166328125,202.1926257623461L378.95061093749996,131.130987093614L380.23955859375,90.3699603255162L381.52850624999996,263.42676042482503L382.81745390625,248.67385195619798L384.10640156249997,168.25265957074208L385.39534921875,99.43685514067204L386.684296875,278.2856947631498L387.9732445312499,176.2271284678006L389.2621921875,247.32271866375277L390.5511398437499,129.11032723148733L391.8400875,171.99696299364064L393.1290351562499,-49.897111793229925L394.4179828125,98.6073304446673L395.70693046874993,235.86232938718143L396.995878125,-45.013533490498716L398.28482578124994,144.08354013469318L399.5737734375,218.71111551499632L400.86272109374994,79.21247020945626L402.15166875,228.5572153352006L403.44061640624994,101.10333426963585L404.7295640625,52.323741427673184L406.01851171874995,93.60626496493929L407.307459375,7.257476376310216L408.59640703124995,144.95713256909505L409.8853546875,3.3727094109694162L411.17430234374996,320.0563993226432L412.46325,3.859662203623892L413.75219765624996,188.7452792670702L415.0411453125,196.9477112797841L416.33009296874997,187.51181314890985L417.619040625,126.50420921926198L418.90798828124997,303.5380777315694L420.1969359374999,278.22931287520584L421.48588359375,156.89634052581383L422.7748312499999,77.2595197277161L424.06377890625,297.9748609875643L425.3527265624999,75.89252364874199L426.64167421875,225.97333475873273L427.93062187499993,206.9329446902437L429.21956953125,325.6860249866415L430.50851718749993,207.45890688405515L431.79746484375,287.0993467931765L433.08641249999994,272.27580018383935L434.37536015625,66.01671501301603L435.66430781249994,241.48309077680702L436.95325546875,292.1682724472822L438.24220312499995,154.85929301799848L439.53115078125,173.84825594154654L440.82009843749995,292.1731019066389L442.10904609375,134.69104427046773L443.39799374999996,139.9427882974511L444.68694140625,297.8547520841239L445.97588906249996,233.08290789982533L447.26483671875,145.61408354250113L448.55378437499996,261.7191969221904L449.84273203125,149.22861821214826L451.13167968749997,244.52070480703279L452.4206273437499,235.81279555924354L453.709575,290.569488290097L454.9985226562499,243.04864926209927L456.2874703125,264.2771668893481M462.73220859374993,1227.177960197389L464.02115625,173.0481229726541L465.31010390624994,211.10984247591193L466.5990515625,76.6618975101032L467.88799921874994,136.6651220617627L469.176946875,158.16307903878288L470.46589453124994,242.70108515425153L471.7548421875,227.5836550222655L473.04378984374995,107.03936297493516L474.3327375,342.5895024376743L475.62168515624995,323.14285714285717L476.9106328125,325.60636649891154L478.19958046874996,131.2815793819437L479.488528125,170.9400963557313L480.77747578124996,106.24468857219702L482.0664234375,209.22853288197373L483.35537109374997,297.618287461571L484.6443187499999,97.81883281728251L485.93326640624997,269.0422820445507L487.2222140624999,256.01434036809763L488.51116171875,181.52607739581862L489.8001093749999,240.6086600397213L491.08905703125,290.3701819656199L492.3780046874999,249.74349759457888L493.66695234375,183.73587244504722L494.95589999999993,174.84324764285805L496.24484765625,171.05734940532525L497.53379531249993,185.526831010721L498.82274296875,140.50410803751262L500.11169062499994,180.39992216720321L501.40063828125,259.5120359810662L502.68958593749994,229.69995204088778L503.97853359375,179.9849658370419L505.26748124999995,163.76455069823822L506.55642890625,266.8134922633945L507.84537656249995,324.8393864453332L509.13432421875,269.84640261178265L510.42327187499995,260.9236182904836L511.71221953125,297.4995615917569L513.0011671875,126.55878139243251L514.29011484375,242.12592214008254L515.5790625,126.35564130693731L516.86801015625,260.6405700077873L518.1569578124999,120.99113064233546L519.44590546875,210.48410385331385L520.734853125,257.56646796889555L522.02380078125,170.67173595508862L523.3127484374999,278.678435076301L524.60169609375,199.24537066081677L525.89064375,292.43681480590084L527.17959140625,238.90793964021833L528.4685390624999,284.1197995208249L529.75748671875,336.39163703871304L531.046434375,318.35396496459447L532.33538203125,247.44742453614825L533.6243296874999,179.47104640272025L534.91327734375,209.47519953362962L536.202225,320.7549710002028L537.49117265625,290.8856586415397L538.7801203124999,96.93500854814431L540.06906796875,257.83549383160215L541.358015625,216.23180532641376L542.64696328125,293.99401694528154L543.9359109374999,247.76584256783073L545.22485859375,316.1451550650106L546.51380625,290.7806675109947L547.80275390625,285.8614473078731L549.0917015624999,251.67691712351316L550.3806492187499,196.9269434210131L551.669596875,281.6826065205788L552.9585445312499,264.1121344618751L554.2474921874999,208.34374746891896L555.5364398437499,282.8258095290967L556.8253875,225.04132594640177L558.1143351562499,288.8071268525443L559.4032828124999,73.12048922597042L560.6922304687499,244.16988252836236L561.981178125,259.44138686311663L563.2701257812499,257.7291994586698L564.5590734374999,308.13190427215636L565.8480210937499,175.1417571846888L567.13696875,307.9850359964166L568.4259164062499,70.64477423193973L569.7148640624999,89.03697724017393L571.00381171875,234.07623852132943L572.2927593750001,269.9678106394947L573.58170703125,334.4799585403569L574.8706546875,169.72878202010872L576.15960234375,310.2754519979789L577.4485500000001,263.84441489382783L578.73749765625,256.2234987030452L580.0264453125,130.72119889106662L581.31539296875,109.31766938072154L582.6043406249998,288.80853855991023L583.89328828125,170.2506310258241L585.1822359375,268.29760509440115L586.47118359375,353.8941122238245L587.7601312499999,244.31666577635013L589.04907890625,310.3898779766065L590.3380265625,251.5276339134345L591.62697421875,280.97696733353183L592.9159218749999,193.7852504771279L594.20486953125,279.1564480324572L595.4938171875,199.47440747913828L596.78276484375,337.4749590990394L598.0717124999999,239.93795438089862L599.36066015625,184.40197396541882L600.6496078125,205.52130680708316L601.93855546875,87.36056189411057L603.2275031249999,290.6532572229273L604.51645078125,415.427505698617L605.8053984375,285.49058094625303L607.09434609375,176.44698608418722L608.3832937499999,264.0052004233904L609.67224140625,254.01062887215627L610.9611890625,177.02104588448208L612.2501367187499,261.6461541818618L613.5390843749999,330.1821404801648L614.8280320312499,271.83507110835086L616.1169796875,217.79932442564674L617.4059273437499,233.90967254650351L618.6948749999999,237.7210144799652L619.9838226562499,355.1331853144478L621.2727703125,230.9300418609221L622.5617179687499,323.2178353730618L623.8506656249999,239.20202956573766L625.1396132812499,282.6637532162403L626.4285609375,245.49841456577303L627.7175085937499,243.56170585515028L629.0064562499999,197.46606072430404L630.2954039062499,145.01816541544784L631.5843515625,238.71425096414697L632.8732992187499,128.19349748758745L634.1622468749999,275.8355972573876L635.4511945312499,246.5371377438715L636.7401421875,269.1095359626423L638.02908984375,216.09279794920408L639.3180375,126.64310311125016L640.60698515625,190.21026119926978L641.8959328125001,241.33546907116457L643.18488046875,334.55920110557355L644.473828125,248.9824038689053L645.76277578125,209.8151099491188L647.0517234374998,267.5546773567608L648.34067109375,282.41433868499547L649.62961875,179.26757392299348L650.91856640625,237.39750951638283L652.2075140624999,240.89347330112682L653.49646171875,308.005926629637L654.785409375,227.42844229691198L656.07435703125,105.54350301161845L657.3633046874999,228.39739487281673L658.65225234375,182.57359408899825L659.9412,308.84765579797966L661.23014765625,200.85711416397703L662.5190953124999,239.52006287814947L663.80804296875,342.72807120065573L665.096990625,212.6352156747562L666.38593828125,222.04206699291728L667.6748859374999,203.5498692439295L668.96383359375,187.71170205056507L670.25278125,220.93447928064722L671.54172890625,271.990172020453L672.8306765624999,189.588734151362L674.11962421875,123.59337614644954L675.408571875,220.78344127582855L676.69751953125,159.7824434031617L677.9864671874999,285.14744016444615L679.2754148437499,315.8583941259442L680.5643625,268.8872810099034L681.8533101562499,229.34492606921077L683.1422578124999,189.9558201148748L684.4312054687499,264.897318250604L685.720153125,247.5705527257762L687.0091007812499,333.31664573730404L688.2980484374999,147.26340006294666L689.5869960937499,234.75554465679593L690.87594375,331.0175164902159L692.1648914062499,176.98607481809844L693.4538390624999,352.63248268946495L694.7427867187499,198.2107530180774L696.031734375,177.8564098458378L697.3206820312499,325.540558309245L698.6096296874999,155.55650881954105L699.8985773437499,239.46939063076056L701.187525,226.65209367584237L702.4764726562499,134.23640103508646L703.7654203124999,267.6325203129064L705.05436796875,351.7822002850426L706.3433156250001,195.05098025243683L707.63226328125,259.76193280735384L708.9212109375,171.42883489837817L710.21015859375,205.95359168190606L711.4991062499998,224.30395130282068L712.78805390625,234.55619943824746L714.0770015625,252.16011926392113L715.36594921875,180.22379177256926L716.6548968749998,223.29862903031326L717.94384453125,131.83139968495124L719.2327921875,254.747321685579L720.52173984375,40.01796062904227L721.8106874999999,297.580777534783L723.09963515625,232.78904962493465L724.3885828125,136.6302955758031L725.67753046875,188.72724289371962L726.9664781249999,133.08397490620226L728.25542578125,312.93743782469L729.5443734375,254.55788085998356L730.83332109375,258.0619844195511L732.1222687499999,217.8404439111703L733.41121640625,287.4496508732097L734.7001640625,156.8858622671844L735.98911171875,235.0896709861955L737.2780593749999,277.81014484690957L738.56700703125,260.6550845694535L739.8559546875,235.97403590254194L741.1449023437499,270.52654102378636L742.4338499999999,180.96232670887682L743.7227976562499,230.32764359062313L745.0117453125,195.79144224915208L746.3006929687499,176.4559020913478L747.5896406249999,225.073541773886L748.8785882812499,224.2042072372819L750.1675359375,177.252060428168L751.4564835937499,190.5578908727591L752.7454312499999,193.1579695851301L754.0343789062499,250.53371540520322L755.3233265625,176.13953662807745L756.6122742187499,216.81095776912164L757.9012218749999,193.1906290749174L759.1901695312499,171.29403641427362L760.4791171875,223.81763749280273L761.7680648437499,171.7988495411123L763.0570124999999,193.0402241581594L764.3459601562499,181.2879610893577L765.6349078125,193.36874795148935L766.9238554687499,121.47281091585096L768.2128031249999,276.9723915216137L769.5017507812499,168.61973972434023L770.7906984375,88.00596923061516L772.07964609375,87.22880191712724L773.36859375,258.9532093888126L774.65754140625,181.48471753091042L775.9464890624998,27.550663906214556L777.23543671875,52.894688974670814L778.524384375,66.77881478126108L779.81333203125,62.22019023408455L781.1022796874998,236.22488623930408L782.39122734375,145.79897491543377L783.680175,148.9746538856388L784.96912265625,264.8103714229831L786.2580703124999,139.83251566836705L787.54701796875,226.5912887070885L788.835965625,90.0465649834681L790.12491328125,235.75724658739202L791.4138609374999,122.99316502733697L792.70280859375,108.6997722116558L793.99175625,207.3316014490745L795.28070390625,264.8583910296402L796.5696515624999,245.5546298919381L797.85859921875,167.1960167266992L799.147546875,106.73999476227146L800.43649453125,165.23002782657224L801.7254421874999,218.27834252688612L803.01438984375,222.3146328503176L804.3033375,154.79052850347227L805.59228515625,18.49145634608147L806.8812328124999,159.33587319088312L808.1701804687499,163.9286143255495L809.459128125,131.09229637183978L810.7480757812499,169.8618494897497L812.0370234374999,266.52029069648285L813.3259710937499,137.59070493430016L814.61491875,286.9143229139371L815.9038664062499,179.1640455462785L817.1928140624999,128.01582372997476L818.4817617187499,124.95482631417984L819.770709375,312.8700245402282L821.0596570312499,70.00668851455623L822.3486046874999,108.25119189203176L823.6375523437499,103.51073059613472L824.9265,2.74085943765837L826.2154476562499,115.42204101803613L827.5043953124999,167.75879450374228L828.7933429687499,253.73867892386932L830.082290625,-92.21912846741571L831.3712382812499,71.06390418839626L832.6601859374999,226.04235918961172L833.9491335937499,230.38755265834575L835.23808125,316.81625983886687L836.5270289062499,124.29584660095408L837.8159765624999,207.52439351853664L839.1049242187499,217.34172449001807L840.3938718749998,194.3000102401235L841.68281953125,48.82615402972015L842.9717671875,8.6639945870907L844.26071484375,34.32581965757124L845.5496624999998,133.6936284467995L846.83861015625,203.5905022872847L848.1275578125,180.63975442537378L849.41650546875,194.44695918110142L850.7054531249998,167.0617900378092L851.99440078125,200.35155370779876L853.2833484375,207.05124182654063L854.57229609375,88.4646181899592L855.8612437499999,80.29829883508165L857.15019140625,127.19699915460822L858.4391390625,134.75059055035877L859.72808671875,195.19055726900942L861.0170343749999,171.50693265370907L862.30598203125,53.85714285714283L863.5949296875,99.80202237019449L864.88387734375,134.30849841962475L866.1728249999999,51.81897276397477L867.46177265625,159.8863989056248L868.7507203125,140.78908601870816L870.0396679687499,92.05014344250127L871.3286156249999,27.90579446065108L872.6175632812499,116.8720482298671L873.9065109375,102.35209200511153L875.1954585937499,192.20758000763178L876.4844062499999,264.4337564013445L877.7733539062499,177.93561795727277L879.0623015625,172.7792014956759L880.3512492187499,100.14295666251004L881.6401968749999,186.2035416517073L882.9291445312499,214.0161576801493L884.2180921875,127.38677391645805L885.5070398437499,90.79310920623017L886.7959874999999,191.6401976809057L888.0849351562499,142.0802617425233L889.3738828125,129.41648600358084L890.6628304687499,229.29134764648444L891.9517781249999,279.6764718060276L893.2407257812499,105.4236766219837L894.5296734375,61.60975747598635L895.8186210937499,215.2221595419632L897.1075687499999,137.95591609249075L898.3965164062499,113.06071842046093L899.6854640625,322.08157847375816L900.9744117187499,80.98560035533299L902.2633593749999,203.91403748892247" style="fill: none;" fill="none"></path></g></g></g></g></g></g><g transform="translate(41, 377)" clip-path="url(#clip_1)"><clipPath id="clip_1"><rect width="1031" height="23"></rect></clipPath><g><g><line x1="0" y1="0" x2="0" y2="5" style="visibility: inherit;" fill="rgb(0, 0, 0)" stroke="rgb(204, 204, 204)" stroke-width="1px"></line><line x1="128.894765625" y1="0" x2="128.894765625" y2="5" style="visibility: inherit;" fill="rgb(0, 0, 0)" stroke="rgb(204, 204, 204)" stroke-width="1px"></line><line x1="257.78953125" y1="0" x2="257.78953125" y2="5" style="visibility: inherit;" fill="rgb(0, 0, 0)" stroke="rgb(204, 204, 204)" stroke-width="1px"></line><line x1="386.684296875" y1="0" x2="386.684296875" y2="5" style="visibility: inherit;" fill="rgb(0, 0, 0)" stroke="rgb(204, 204, 204)" stroke-width="1px"></line><line x1="515.5790625" y1="0" x2="515.5790625" y2="5" style="visibility: inherit;" fill="rgb(0, 0, 0)" stroke="rgb(204, 204, 204)" stroke-width="1px"></line><line x1="644.473828125" y1="0" x2="644.473828125" y2="5" style="visibility: inherit;" fill="rgb(0, 0, 0)" stroke="rgb(204, 204, 204)" stroke-width="1px"></line><line x1="773.36859375" y1="0" x2="773.36859375" y2="5" style="visibility: inherit;" fill="rgb(0, 0, 0)" stroke="rgb(204, 204, 204)" stroke-width="1px"></line><line x1="902.2633593749999" y1="0" x2="902.2633593749999" y2="5" style="visibility: inherit;" fill="rgb(0, 0, 0)" stroke="rgb(204, 204, 204)" stroke-width="1px"></line><line x1="1031.158125" y1="0" x2="1031.158125" y2="5" style="visibility: inherit;" fill="rgb(0, 0, 0)" stroke="rgb(204, 204, 204)" stroke-width="1px"></line></g><g transform="translate(0, 8)"><text x="0" y="0" dx="0em" dy="0.95em" style="text-anchor: middle; visibility: hidden; font-family: Roboto, sans-serif; font-size: 12px; font-weight: 200;" fill="rgb(255, 255, 255)" stroke="none" stroke-width="1px">-500k</text><text x="128.894765625" y="0" dx="0em" dy="0.95em" style="text-anchor: middle; visibility: inherit; font-family: Roboto, sans-serif; font-size: 12px; font-weight: 200;" fill="rgb(255, 255, 255)" stroke="none" stroke-width="1px">0</text><text x="257.78953125" y="0" dx="0em" dy="0.95em" style="text-anchor: middle; visibility: inherit; font-family: Roboto, sans-serif; font-size: 12px; font-weight: 200;" fill="rgb(255, 255, 255)" stroke="none" stroke-width="1px">500k</text><text x="386.684296875" y="0" dx="0em" dy="0.95em" style="text-anchor: middle; visibility: inherit; font-family: Roboto, sans-serif; font-size: 12px; font-weight: 200;" fill="rgb(255, 255, 255)" stroke="none" stroke-width="1px">1M</text><text x="515.5790625" y="0" dx="0em" dy="0.95em" style="text-anchor: middle; visibility: inherit; font-family: Roboto, sans-serif; font-size: 12px; font-weight: 200;" fill="rgb(255, 255, 255)" stroke="none" stroke-width="1px">1.5M</text><text x="644.473828125" y="0" dx="0em" dy="0.95em" style="text-anchor: middle; visibility: inherit; font-family: Roboto, sans-serif; font-size: 12px; font-weight: 200;" fill="rgb(255, 255, 255)" stroke="none" stroke-width="1px">2M</text><text x="773.36859375" y="0" dx="0em" dy="0.95em" style="text-anchor: middle; visibility: inherit; font-family: Roboto, sans-serif; font-size: 12px; font-weight: 200;" fill="rgb(255, 255, 255)" stroke="none" stroke-width="1px">2.5M</text><text x="902.2633593749999" y="0" dx="0em" dy="0.95em" style="text-anchor: middle; visibility: inherit; font-family: Roboto, sans-serif; font-size: 12px; font-weight: 200;" fill="rgb(255, 255, 255)" stroke="none" stroke-width="1px">3M</text><text x="1031.158125" y="0" dx="0em" dy="0.95em" style="text-anchor: middle; visibility: hidden; font-family: Roboto, sans-serif; font-size: 12px; font-weight: 200;" fill="rgb(255, 255, 255)" stroke="none" stroke-width="1px">3.5M</text></g><line x1="0" y1="0" x2="1031.158125" y2="0" fill="rgb(0, 0, 0)" stroke="rgb(204, 204, 204)" stroke-width="1px"></line></g></g></g></g></svg>