{
  "accessors": [
    {
      "bufferView": 2,
      "componentType": 5126,
      "count": 21822,
      "max": [
        1.1161808967590332,
        1.615517020225525,
        0.38124483823776245
      ],
      "min": [
        -1.1161810159683228,
        -1.6073462963104248,
        -0.2403000146150589
      ],
      "type": "VEC3"
    },
    {
      "bufferView": 2,
      "byteOffset": 261864,
      "componentType": 5126,
      "count": 21822,
      "max": [
        1.0,
        1.0,
        1.0
      ],
      "min": [
        -1.0,
        -1.0,
        -1.0
      ],
      "type": "VEC3"
    },
    {
      "bufferView": 3,
      "componentType": 5126,
      "count": 21822,
      "max": [
        1.0,
        1.0,
        1.0,
        1.0
      ],
      "min": [
        0.9882352948188782,
        0.9882352948188782,
        0.9882352948188782,
        0.9882352948188782
      ],
      "type": "VEC4"
    },
    {
      "bufferView": 1,
      "componentType": 5126,
      "count": 21822,
      "max": [
        0.9209800958633423,
        0.941005289554596
      ],
      "min": [
        0.04900907725095749,
        0.45899468660354614
      ],
      "type": "VEC2"
    },
    {
      "bufferView": 1,
      "byteOffset": 174576,
      "componentType": 5126,
      "count": 21822,
      "max": [
        0.9209800958633423,
        0.941005289554596
      ],
      "min": [
        0.04900907725095749,
        0.45899468660354614
      ],
      "type": "VEC2"
    },
    {
      "bufferView": 1,
      "byteOffset": 349152,
      "componentType": 5126,
      "count": 21822,
      "max": [
        0.9209800958633423,
        0.941005289554596
      ],
      "min": [
        0.04900907725095749,
        0.45899468660354614
      ],
      "type": "VEC2"
    },
    {
      "bufferView": 0,
      "componentType": 5125,
      "count": 72789,
      "type": "SCALAR"
    },
    {
      "bufferView": 2,
      "byteOffset": 523728,
      "componentType": 5126,
      "count": 8009,
      "max": [
        1.0561141967773438,
        1.5379225015640259,
        0.35622379183769226
      ],
      "min": [
        -1.0434134006500244,
        -1.5041204690933228,
        0.23145100474357605
      ],
      "type": "VEC3"
    },
    {
      "bufferView": 2,
      "byteOffset": 619836,
      "componentType": 5126,
      "count": 8009,
      "max": [
        0.9999929070472717,
        0.9990490674972534,
        1.0
      ],
      "min": [
        -0.9999890327453613,
        -0.9997493028640747,
        -1.0
      ],
      "type": "VEC3"
    },
    {
      "bufferView": 3,
      "byteOffset": 349152,
      "componentType": 5126,
      "count": 8009,
      "max": [
        1.0,
        1.0,
        1.0,
        1.0
      ],
      "min": [
        1.0,
        1.0,
        1.0,
        1.0
      ],
      "type": "VEC4"
    },
    {
      "bufferView": 1,
      "byteOffset": 523728,
      "componentType": 5126,
      "count": 8009,
      "max": [
        0.9451456069946289,
        0.9687324166297913
      ],
      "min": [
        0.06192179396748543,
        0.011885274201631546
      ],
      "type": "VEC2"
    },
    {
      "bufferView": 1,
      "byteOffset": 587800,
      "componentType": 5126,
      "count": 8009,
      "max": [
        0.8605265617370605,
        0.8442644476890564
      ],
      "min": [
        0.13782998919487,
        0.1354343444108963
      ],
      "type": "VEC2"
    },
    {
      "bufferView": 0,
      "byteOffset": 291156,
      "componentType": 5125,
      "count": 30012,
      "type": "SCALAR"
    },
    {
      "bufferView": 2,
      "byteOffset": 715944,
      "componentType": 5126,
      "count": 20999,
      "max": [
        1.0773957967758179,
        1.3462644815444946,
        0.25849515199661255
      ],
      "min": [
        -1.0925759077072144,
        -1.5631800889968872,
        0.21591207385063171
      ],
      "type": "VEC3"
    },
    {
      "bufferView": 2,
      "byteOffset": 967932,
      "componentType": 5126,
      "count": 20999,
      "max": [
        0.9977126717567444,
        0.9977129697799683,
        1.0
      ],
      "min": [
        -0.9977126717567444,
        -0.9977129697799683,
        -1.0
      ],
      "type": "VEC3"
    },
    {
      "bufferView": 3,
      "byteOffset": 477296,
      "componentType": 5126,
      "count": 20999,
      "max": [
        1.0,
        1.0,
        1.0,
        1.0
      ],
      "min": [
        1.0,
        1.0,
        1.0,
        1.0
      ],
      "type": "VEC4"
    },
    {
      "bufferView": 1,
      "byteOffset": 651872,
      "componentType": 5126,
      "count": 20999,
      "max": [
        0.0,
        0.0
      ],
      "min": [
        0.0,
        0.0
      ],
      "type": "VEC2"
    },
    {
      "bufferView": 1,
      "byteOffset": 819864,
      "componentType": 5126,
      "count": 20999,
      "max": [
        0.6370558142662048,
        0.9226126670837402
      ],
      "min": [
        0.0823800191283226,
        0.45946022868156433
      ],
      "type": "VEC2"
    },
    {
      "bufferView": 0,
      "byteOffset": 411204,
      "componentType": 5125,
      "count": 32400,
      "type": "SCALAR"
    },
    {
      "bufferView": 2,
      "byteOffset": 1219920,
      "componentType": 5126,
      "count": 12115,
      "max": [
        1.0295006036758423,
        -0.09873455762863159,
        -0.1212657168507576
      ],
      "min": [
        -1.0051170587539673,
        -1.202711820602417,
        -0.16994664072990417
      ],
      "type": "VEC3"
    },
    {
      "bufferView": 2,
      "byteOffset": 1365300,
      "componentType": 5126,
      "count": 12115,
      "max": [
        1.0,
        1.0,
        1.0
      ],
      "min": [
        -0.9999583959579468,
        -1.0,
        -1.0
      ],
      "type": "VEC3"
    },
    {
      "bufferView": 3,
      "byteOffset": 813280,
      "componentType": 5126,
      "count": 12115,
      "max": [
        1.0,
        1.0,
        1.0,
        1.0
      ],
      "min": [
        0.9882352948188782,
        0.9882352948188782,
        0.9882352948188782,
        0.9882352948188782
      ],
      "type": "VEC4"
    },
    {
      "bufferView": 1,
      "byteOffset": 987856,
      "componentType": 5126,
      "count": 12115,
      "max": [
        0.0,
        0.0
      ],
      "min": [
        0.0,
        0.0
      ],
      "type": "VEC2"
    },
    {
      "bufferView": 1,
      "byteOffset": 1084776,
      "componentType": 5126,
      "count": 12115,
      "max": [
        0.6372647881507874,
        0.922607421875
      ],
      "min": [
        0.18111953139305115,
        0.46641746163368225
      ],
      "type": "VEC2"
    },
    {
      "bufferView": 0,
      "byteOffset": 540804,
      "componentType": 5125,
      "count": 52584,
      "type": "SCALAR"
    },
    {
      "bufferView": 2,
      "byteOffset": 1510680,
      "componentType": 5126,
      "count": 1488,
      "max": [
        0.6281121373176575,
        -1.4072136878967285,
        -0.08214010298252106
      ],
      "min": [
        -0.7891241312026978,
        -1.603475570678711,
        -0.1588228940963745
      ],
      "type": "VEC3"
    },
    {
      "bufferView": 2,
      "byteOffset": 1528536,
      "componentType": 5126,
      "count": 1488,
      "max": [
        1.0,
        1.0,
        1.0
      ],
      "min": [
        -1.0,
        -1.0,
        -1.0
      ],
      "type": "VEC3"
    },
    {
      "bufferView": 3,
      "byteOffset": 1007120,
      "componentType": 5126,
      "count": 1488,
      "max": [
        1.0,
        1.0,
        1.0,
        1.0
      ],
      "min": [
        1.0,
        1.0,
        1.0,
        1.0
      ],
      "type": "VEC4"
    },
    {
      "bufferView": 1,
      "byteOffset": 1181696,
      "componentType": 5126,
      "count": 1488,
      "max": [
        0.0,
        0.0
      ],
      "min": [
        0.0,
        0.0
      ],
      "type": "VEC2"
    },
    {
      "bufferView": 1,
      "byteOffset": 1193600,
      "componentType": 5126,
      "count": 1488,
      "max": [
        0.6363166570663452,
        0.9002361297607422
      ],
      "min": [
        0.0,
        0.0
      ],
      "type": "VEC2"
    },
    {
      "bufferView": 0,
      "byteOffset": 751140,
      "componentType": 5125,
      "count": 2424,
      "type": "SCALAR"
    },
    {
      "bufferView": 2,
      "byteOffset": 1546392,
      "componentType": 5126,
      "count": 711,
      "max": [
        1.1139415502548218,
        -1.3345353603363037,
        -0.031696271151304245
      ],
      "min": [
        -1.1139644384384155,
        -1.6043684482574463,
        -0.20479954779148102
      ],
      "type": "VEC3"
    },
    {
      "bufferView": 2,
      "byteOffset": 1554924,
      "componentType": 5126,
      "count": 711,
      "max": [
        1.0,
        1.0,
        1.0
      ],
      "min": [
        -1.0,
        -1.0,
        -1.0
      ],
      "type": "VEC3"
    },
    {
      "bufferView": 3,
      "byteOffset": 1030928,
      "componentType": 5126,
      "count": 711,
      "max": [
        1.0,
        1.0,
        1.0,
        1.0
      ],
      "min": [
        1.0,
        1.0,
        1.0,
        1.0
      ],
      "type": "VEC4"
    },
    {
      "bufferView": 1,
      "byteOffset": 1205504,
      "componentType": 5126,
      "count": 711,
      "max": [
        0.0,
        0.0
      ],
      "min": [
        0.0,
        0.0
      ],
      "type": "VEC2"
    },
    {
      "bufferView": 1,
      "byteOffset": 1211192,
      "componentType": 5126,
      "count": 711,
      "max": [
        0.6347289681434631,
        0.8367313742637634
      ],
      "min": [
        0.0,
        0.0
      ],
      "type": "VEC2"
    },
    {
      "bufferView": 0,
      "byteOffset": 760836,
      "componentType": 5125,
      "count": 1404,
      "type": "SCALAR"
    },
    {
      "bufferView": 2,
      "byteOffset": 1563456,
      "componentType": 5126,
      "count": 384,
      "max": [
        1.0940799713134766,
        1.566116452217102,
        0.23145624995231628
      ],
      "min": [
        -1.1099414825439453,
        -1.580368995666504,
        0.23136626183986664
      ],
      "type": "VEC3"
    },
    {
      "bufferView": 2,
      "byteOffset": 1568064,
      "componentType": 5126,
      "count": 384,
      "max": [
        0.9951863884925842,
        0.995186984539032,
        1.0
      ],
      "min": [
        -0.9951860904693604,
        -0.995186984539032,
        -1.0
      ],
      "type": "VEC3"
    },
    {
      "bufferView": 3,
      "byteOffset": 1042304,
      "componentType": 5126,
      "count": 384,
      "max": [
        1.0,
        1.0,
        1.0,
        1.0
      ],
      "min": [
        1.0,
        1.0,
        1.0,
        1.0
      ],
      "type": "VEC4"
    },
    {
      "bufferView": 1,
      "byteOffset": 1216880,
      "componentType": 5126,
      "count": 384,
      "max": [
        0.0,
        0.0
      ],
      "min": [
        0.0,
        0.0
      ],
      "type": "VEC2"
    },
    {
      "bufferView": 1,
      "byteOffset": 1219952,
      "componentType": 5126,
      "count": 384,
      "max": [
        0.6224836707115173,
        0.6464976668357849
      ],
      "min": [
        0.181808739900589,
        0.47346293926239014
      ],
      "type": "VEC2"
    },
    {
      "bufferView": 0,
      "byteOffset": 766452,
      "componentType": 5125,
      "count": 912,
      "type": "SCALAR"
    },
    {
      "bufferView": 2,
      "byteOffset": 1572672,
      "componentType": 5126,
      "count": 360,
      "max": [
        1.1009327173233032,
        0.23511207103729248,
        -0.13735704123973846
      ],
      "min": [
        -1.1207603216171265,
        -1.4310039281845093,
        -0.15417981147766113
      ],
      "type": "VEC3"
    },
    {
      "bufferView": 2,
      "byteOffset": 1576992,
      "componentType": 5126,
      "count": 360,
      "max": [
        1.0,
        1.0,
        1.0
      ],
      "min": [
        -1.0,
        -1.0,
        -1.0
      ],
      "type": "VEC3"
    },
    {
      "bufferView": 3,
      "byteOffset": 1048448,
      "componentType": 5126,
      "count": 360,
      "max": [
        1.0,
        1.0,
        1.0,
        1.0
      ],
      "min": [
        1.0,
        1.0,
        1.0,
        1.0
      ],
      "type": "VEC4"
    },
    {
      "bufferView": 1,
      "byteOffset": 1223024,
      "componentType": 5126,
      "count": 360,
      "max": [
        1.0,
        1.0
      ],
      "min": [
        0.0,
        0.0
      ],
      "type": "VEC2"
    },
    {
      "bufferView": 1,
      "byteOffset": 1225904,
      "componentType": 5126,
      "count": 360,
      "max": [
        0.891015350818634,
        0.8475552797317505
      ],
      "min": [
        0.0905282199382782,
        0.44877076148986816
      ],
      "type": "VEC2"
    },
    {
      "bufferView": 0,
      "byteOffset": 770100,
      "componentType": 5125,
      "count": 1164,
      "type": "SCALAR"
    }
  ],
  "asset": {
    "extras": {
      "author": "johnrock (https://sketchfab.com/johnrock)",
      "license": "CC-BY-4.0 (http://creativecommons.org/licenses/by/4.0/)",
      "source": "https://sketchfab.com/3d-models/hard-drive-sf-e03abb1edf7a42d69f99ae5aa7a852c0",
      "title": "Hard Drive-SF"
    },
    "generator": "Sketchfab-12.67.0",
    "version": "2.0"
  },
  "bufferViews": [
    {
      "buffer": 0,
      "byteLength": 774756,
      "name": "floatBufferViews",
      "target": 34963
    },
    {
      "buffer": 0,
      "byteLength": 1228784,
      "byteOffset": 774756,
      "byteStride": 8,
      "name": "floatBufferViews",
      "target": 34962
    },
    {
      "buffer": 0,
      "byteLength": 1581312,
      "byteOffset": 2003540,
      "byteStride": 12,
      "name": "floatBufferViews",
      "target": 34962
    },
    {
      "buffer": 0,
      "byteLength": 1054208,
      "byteOffset": 3584852,
      "byteStride": 16,
      "name": "floatBufferViews",
      "target": 34962
    }
  ],
  "buffers": [
    {
      "byteLength": 4639060,
      "uri": "scene.bin"
    }
  ],
  "images": [
    {
      "uri": "textures/material_baseColor.jpeg"
    },
    {
      "uri": "textures/TextureUp_baseColor.jpeg"
    },
    {
      "uri": "textures/Material.001_baseColor.png"
    }
  ],
  "materials": [
    {
      "doubleSided": true,
      "name": "material",
      "pbrMetallicRoughness": {
        "baseColorTexture": {
          "index": 0
        },
        "metallicFactor": 0.0,
        "roughnessFactor": 0.8211145618
      }
    },
    {
      "doubleSided": true,
      "name": "TextureUp",
      "pbrMetallicRoughness": {
        "baseColorTexture": {
          "index": 1
        },
        "metallicFactor": 0.0,
        "roughnessFactor": 0.8211145618
      }
    },
    {
      "doubleSided": true,
      "name": "prox_alum",
      "pbrMetallicRoughness": {
        "baseColorFactor": [
          0.321713,
          0.321713,
          0.321713,
          1.0
        ],
        "roughnessFactor": 0.093059884
      }
    },
    {
      "doubleSided": true,
      "name": "prox_alum.001",
      "pbrMetallicRoughness": {
        "baseColorFactor": [
          0.321713,
          0.321713,
          0.321713,
          1.0
        ],
        "metallicFactor": 0.0,
        "roughnessFactor": 0.906940116
      }
    },
    {
      "doubleSided": true,
      "name": "gold",
      "pbrMetallicRoughness": {
        "baseColorFactor": [
          0.4788319434779161,
          0.42444473334560456,
          0.07323120082615253,
          1.0
        ],
        "roughnessFactor": 0.22122713414634146
      }
    },
    {
      "doubleSided": true,
      "name": "BlackPlastick",
      "pbrMetallicRoughness": {
        "baseColorFactor": [
          0.0177319702793015,
          0.01759664966430021,
          0.01759664966430021,
          1.0
        ],
        "metallicFactor": 0.0
      }
    },
    {
      "doubleSided": true,
      "name": "An.Metal",
      "pbrMetallicRoughness": {
        "baseColorFactor": [
          0.708517,
          0.708517,
          0.708517,
          1.0
        ],
        "roughnessFactor": 0.0
      }
    },
    {
      "doubleSided": true,
      "name": "Material.001",
      "pbrMetallicRoughness": {
        "baseColorTexture": {
          "index": 2
        },
        "metallicFactor": 0.0,
        "roughnessFactor": 0.8211145618
      }
    }
  ],
  "meshes": [
    {
      "name": "HDD BODY_hdd_0",
      "primitives": [
        {
          "attributes": {
            "COLOR_0": 2,
            "NORMAL": 1,
            "POSITION": 0,
            "TEXCOORD_0": 3,
            "TEXCOORD_1": 4,
            "TEXCOORD_2": 5
          },
          "indices": 6,
          "material": 0,
          "mode": 4
        }
      ]
    },
    {
      "name": "TOP_TextureUp_0",
      "primitives": [
        {
          "attributes": {
            "COLOR_0": 9,
            "NORMAL": 8,
            "POSITION": 7,
            "TEXCOORD_0": 10,
            "TEXCOORD_1": 11
          },
          "indices": 12,
          "material": 1,
          "mode": 4
        }
      ]
    },
    {
      "name": "screws_prox_alum_0",
      "primitives": [
        {
          "attributes": {
            "COLOR_0": 15,
            "NORMAL": 14,
            "POSITION": 13,
            "TEXCOORD_0": 16,
            "TEXCOORD_1": 17
          },
          "indices": 18,
          "material": 2,
          "mode": 4
        }
      ]
    },
    {
      "name": "screws_prox_alum.001_0",
      "primitives": [
        {
          "attributes": {
            "COLOR_0": 21,
            "NORMAL": 20,
            "POSITION": 19,
            "TEXCOORD_0": 22,
            "TEXCOORD_1": 23
          },
          "indices": 24,
          "material": 3,
          "mode": 4
        }
      ]
    },
    {
      "name": "PINS_gold_0",
      "primitives": [
        {
          "attributes": {
            "COLOR_0": 27,
            "NORMAL": 26,
            "POSITION": 25,
            "TEXCOORD_0": 28,
            "TEXCOORD_1": 29
          },
          "indices": 30,
          "material": 4,
          "mode": 4
        }
      ]
    },
    {
      "name": "PLASTIC_BlackPlastick_0",
      "primitives": [
        {
          "attributes": {
            "COLOR_0": 33,
            "NORMAL": 32,
            "POSITION": 31,
            "TEXCOORD_0": 34,
            "TEXCOORD_1": 35
          },
          "indices": 36,
          "material": 5,
          "mode": 4
        }
      ]
    },
    {
      "name": "DISCS_An.Metal_0",
      "primitives": [
        {
          "attributes": {
            "COLOR_0": 39,
            "NORMAL": 38,
            "POSITION": 37,
            "TEXCOORD_0": 40,
            "TEXCOORD_1": 41
          },
          "indices": 42,
          "material": 6,
          "mode": 4
        }
      ]
    },
    {
      "name": "ELECTRONICS_Material.001_0",
      "primitives": [
        {
          "attributes": {
            "COLOR_0": 45,
            "NORMAL": 44,
            "POSITION": 43,
            "TEXCOORD_0": 46,
            "TEXCOORD_1": 47
          },
          "indices": 48,
          "material": 7,
          "mode": 4
        }
      ]
    }
  ],
  "nodes": [
    {
      "children": [
        1
      ],
      "matrix": [
        1.0,
        0.0,
        0.0,
        0.0,
        0.0,
        2.220446049250313e-16,
        -1.0,
        0.0,
        0.0,
        1.0,
        2.220446049250313e-16,
        0.0,
        0.0,
        0.0,
        0.0,
        1.0
      ],
      "name": "Sketchfab_model"
    },
    {
      "children": [
        2
      ],
      "matrix": [
        1.0,
        0.0,
        0.0,
        0.0,
        0.0,
        0.0,
        1.0,
        0.0,
        0.0,
        -1.0,
        0.0,
        0.0,
        0.0,
        0.0,
        0.0,
        1.0
      ],
      "name": "bc8955ae2961412b800d7a1b1e2fa9c0.fbx"
    },
    {
      "children": [
        3
      ],
      "name": "RootNode"
    },
    {
      "children": [
        4,
        5,
        7,
        10,
        12,
        14,
        16
      ],
      "matrix": [
        19.28747940061838,
        -2.5138641416385607e-05,
        -2.042141315228284e-21,
        0.0,
        -4.0956045396394124e-12,
        -3.1423292477073694e-06,
        -19.28747940063451,
        0.0,
        2.5138641416385275e-05,
        19.28747940061813,
        -3.1423292477073694e-06,
        0.0,
        29.298437118530273,
        311.0709228515625,
        44.986305236816406,
        1.0
      ],
      "name": "HDD BODY"
    },
    {
      "mesh": 0,
      "name": "HDD BODY_hdd_0"
    },
    {
      "children": [
        6
      ],
      "matrix": [
        1.0,
        6.374942361975587e-29,
        -2.1175823681358124e-22,
        0.0,
        -6.374942361975587e-29,
        1.0,
        2.646977960169689e-23,
        0.0,
        2.1175823681358124e-22,
        -2.646977960169689e-23,
        1.0,
        0.0,
        1.1920928955078125e-07,
        0.0,
        -0.008327411487698555,
        1.0
      ],
      "name": "TOP"
    },
    {
      "mesh": 1,
      "name": "TOP_TextureUp_0"
    },
    {
      "children": [
        8,
        9
      ],
      "matrix": [
        1.0,
        6.374942361975587e-29,
        -2.1175823681358124e-22,
        0.0,
        -6.374942361975587e-29,
        1.0,
        2.646977960169689e-23,
        0.0,
        2.1175823681358124e-22,
        -2.646977960169689e-23,
        1.0,
        0.0,
        1.1920928955078125e-07,
        0.0,
        7.25146946933819e-08,
        1.0
      ],
      "name": "screws"
    },
    {
      "mesh": 2,
      "name": "screws_prox_alum_0"
    },
    {
      "mesh": 3,
      "name": "screws_prox_alum.001_0"
    },
    {
      "children": [
        11
      ],
      "matrix": [
        1.0,
        6.374942361975587e-29,
        -2.1175823681358124e-22,
        0.0,
        -6.374942361975587e-29,
        1.0,
        2.646977960169689e-23,
        0.0,
        2.1175823681358124e-22,
        -2.646977960169689e-23,
        1.0,
        0.0,
        1.1920928955078125e-07,
        0.0,
        7.25146946933819e-08,
        1.0
      ],
      "name": "PINS"
    },
    {
      "mesh": 4,
      "name": "PINS_gold_0"
    },
    {
      "children": [
        13
      ],
      "matrix": [
        1.0,
        6.374942361975587e-29,
        -2.1175823681358124e-22,
        0.0,
        -6.374942361975587e-29,
        1.0,
        2.646977960169689e-23,
        0.0,
        2.1175823681358124e-22,
        -2.646977960169689e-23,
        1.0,
        0.0,
        1.1920928955078125e-07,
        0.0,
        7.25146946933819e-08,
        1.0
      ],
      "name": "PLASTIC"
    },
    {
      "mesh": 5,
      "name": "PLASTIC_BlackPlastick_0"
    },
    {
      "children": [
        15
      ],
      "matrix": [
        1.0,
        6.374942361975587e-29,
        -2.1175823681358124e-22,
        0.0,
        -6.374942361975587e-29,
        1.0,
        2.646977960169689e-23,
        0.0,
        2.1175823681358124e-22,
        -2.646977960169689e-23,
        1.0,
        0.0,
        1.1920928955078125e-07,
        0.0,
        7.25146946933819e-08,
        1.0
      ],
      "name": "DISCS"
    },
    {
      "mesh": 6,
      "name": "DISCS_An.Metal_0"
    },
    {
      "children": [
        17
      ],
      "matrix": [
        1.0,
        6.374942361975587e-29,
        -2.1175823681358124e-22,
        0.0,
        -6.374942361975587e-29,
        1.0,
        2.646977960169689e-23,
        0.0,
        2.1175823681358124e-22,
        -2.646977960169689e-23,
        1.0,
        0.0,
        1.1920928955078125e-07,
        0.0,
        7.25146946933819e-08,
        1.0
      ],
      "name": "ELECTRONICS"
    },
    {
      "mesh": 7,
      "name": "ELECTRONICS_Material.001_0"
    }
  ],
  "samplers": [
    {
      "magFilter": 9729,
      "minFilter": 9987,
      "wrapS": 10497,
      "wrapT": 10497
    }
  ],
  "scene": 0,
  "scenes": [
    {
      "name": "Sketchfab_Scene",
      "nodes": [
        0
      ]
    }
  ],
  "textures": [
    {
      "sampler": 0,
      "source": 0
    },
    {
      "sampler": 0,
      "source": 1
    },
    {
      "sampler": 0,
      "source": 2
    }
  ]
}
