{
  "accessors": [
    {
      "bufferView": 3,
      "componentType": 5126,
      "count": 7587,
      "max": [
        1.9243799448013306,
        2.4514400959014893,
        2.770400047302246
      ],
      "min": [
        -1.6980500221252441,
        -2.4523699283599854,
        0.0
      ],
      "type": "VEC3"
    },
    {
      "bufferView": 3,
      "byteOffset": 91044,
      "componentType": 5126,
      "count": 7587,
      "max": [
        1.0,
        1.0,
        1.0
      ],
      "min": [
        -1.0,
        -1.0,
        -1.0
      ],
      "type": "VEC3"
    },
    {
      "bufferView": 2,
      "componentType": 5126,
      "count": 7587,
      "max": [
        0.989109992980957,
        0.9462800025939941
      ],
      "min": [
        0.0036899999249726534,
        0.011210000142455101
      ],
      "type": "VEC2"
    },
    {
      "bufferView": 1,
      "componentType": 5125,
      "count": 37392,
      "type": "SCALAR"
    },
    {
      "bufferView": 3,
      "byteOffset": 182088,
      "componentType": 5126,
      "count": 706,
      "max": [
        1.7350200414657593,
        1.5271300077438354,
        2.617759943008423
      ],
      "min": [
        1.6796200275421143,
        -1.9820799827575684,
        0.2057799994945526
      ],
      "type": "VEC3"
    },
    {
      "bufferView": 3,
      "byteOffset": 190560,
      "componentType": 5126,
      "count": 706,
      "max": [
        0.999988853931427,
        0.9999117851257324,
        0.9993178844451904
      ],
      "min": [
        -0.999988853931427,
        -0.9990452527999878,
        -0.9997345209121704
      ],
      "type": "VEC3"
    },
    {
      "bufferView": 2,
      "byteOffset": 60696,
      "componentType": 5126,
      "count": 706,
      "max": [
        0.2779400050640106,
        0.8519300222396851
      ],
      "min": [
        0.06848999857902527,
        0.39184999465942383
      ],
      "type": "VEC2"
    },
    {
      "bufferView": 1,
      "byteOffset": 149568,
      "componentType": 5125,
      "count": 2976,
      "type": "SCALAR"
    },
    {
      "bufferView": 3,
      "byteOffset": 199032,
      "componentType": 5126,
      "count": 816,
      "max": [
        1.1066399812698364,
        0.5495799779891968,
        0.32168999314308167
      ],
      "min": [
        -0.7914400100708008,
        -1.3484899997711182,
        0.2416599988937378
      ],
      "type": "VEC3"
    },
    {
      "bufferView": 3,
      "byteOffset": 208824,
      "componentType": 5126,
      "count": 816,
      "max": [
        1.0,
        1.0,
        0.9999498724937439
      ],
      "min": [
        -1.0,
        -1.0,
        -0.9999498724937439
      ],
      "type": "VEC3"
    },
    {
      "bufferView": 2,
      "byteOffset": 66344,
      "componentType": 5126,
      "count": 816,
      "max": [
        0.2978000044822693,
        0.9819300174713135
      ],
      "min": [
        0.22628000378608704,
        0.9130399823188782
      ],
      "type": "VEC2"
    },
    {
      "bufferView": 1,
      "byteOffset": 161472,
      "componentType": 5125,
      "count": 4608,
      "type": "SCALAR"
    },
    {
      "bufferView": 3,
      "byteOffset": 218616,
      "componentType": 5126,
      "count": 898,
      "max": [
        1.4253400564193726,
        0.8682799935340881,
        0.4830999970436096
      ],
      "min": [
        -1.1101399660110474,
        -1.667199969291687,
        0.3332799971103668
      ],
      "type": "VEC3"
    },
    {
      "bufferView": 3,
      "byteOffset": 229392,
      "componentType": 5126,
      "count": 898,
      "max": [
        1.0,
        1.0,
        1.0
      ],
      "min": [
        -1.0,
        -1.0,
        -1.0
      ],
      "type": "VEC3"
    },
    {
      "bufferView": 2,
      "byteOffset": 72872,
      "componentType": 5126,
      "count": 898,
      "max": [
        0.21646000444889069,
        0.9948300123214722
      ],
      "min": [
        0.012520000338554382,
        0.8913499712944031
      ],
      "type": "VEC2"
    },
    {
      "bufferView": 1,
      "byteOffset": 179904,
      "componentType": 5125,
      "count": 5088,
      "type": "SCALAR"
    },
    {
      "bufferView": 5,
      "componentType": 5126,
      "count": 3,
      "max": [
        1.0,
        0.0,
        0.0,
        0.0,
        0.0,
        1.0,
        0.0,
        0.0,
        0.0,
        1.0,
        1.0,
        0.0,
        0.0,
        2.4514400959014893,
        0.0,
        1.0
      ],
      "min": [
        1.0,
        0.0,
        0.0,
        0.0,
        0.0,
        0.0,
        -1.0,
        0.0,
        0.0,
        0.0,
        0.0,
        0.0,
        -1.5196199417114258,
        0.0,
        -1.385200023651123,
        1.0
      ],
      "type": "MAT4"
    },
    {
      "bufferView": 0,
      "componentType": 5123,
      "count": 7587,
      "type": "VEC4"
    },
    {
      "bufferView": 4,
      "componentType": 5126,
      "count": 7587,
      "max": [
        1.0,
        0.0,
        0.0,
        0.0
      ],
      "min": [
        1.0,
        0.0,
        0.0,
        0.0
      ],
      "type": "VEC4"
    },
    {
      "bufferView": 0,
      "byteOffset": 60696,
      "componentType": 5123,
      "count": 706,
      "type": "VEC4"
    },
    {
      "bufferView": 4,
      "byteOffset": 121392,
      "componentType": 5126,
      "count": 706,
      "max": [
        1.0,
        0.0,
        0.0,
        0.0
      ],
      "min": [
        1.0,
        0.0,
        0.0,
        0.0
      ],
      "type": "VEC4"
    },
    {
      "bufferView": 6,
      "componentType": 5126,
      "count": 1,
      "max": [
        0.0
      ],
      "min": [
        0.0
      ],
      "type": "SCALAR"
    },
    {
      "bufferView": 7,
      "componentType": 5126,
      "count": 1,
      "max": [
        0.7071067690849304,
        0.0,
        0.0,
        0.7071067690849304
      ],
      "min": [
        0.7071067690849304,
        0.0,
        0.0,
        0.7071067690849304
      ],
      "type": "VEC4"
    },
    {
      "bufferView": 6,
      "byteOffset": 4,
      "componentType": 5126,
      "count": 80,
      "max": [
        5.875
      ],
      "min": [
        0.0
      ],
      "type": "SCALAR"
    },
    {
      "bufferView": 7,
      "byteOffset": 16,
      "componentType": 5126,
      "count": 80,
      "max": [
        -0.5000022649765015,
        0.0,
        0.0,
        0.7071067690849304
      ],
      "min": [
        -0.7071067690849304,
        -0.5000022649765015,
        -0.5000022649765015,
        0.5000022649765015
      ],
      "type": "VEC4"
    }
  ],
  "animations": [
    {
      "channels": [
        {
          "sampler": 0,
          "target": {
            "node": 4,
            "path": "rotation"
          }
        },
        {
          "sampler": 1,
          "target": {
            "node": 5,
            "path": "rotation"
          }
        }
      ],
      "name": "ArmatureAction.002",
      "samplers": [
        {
          "input": 21,
          "interpolation": "LINEAR",
          "output": 22
        },
        {
          "input": 23,
          "interpolation": "LINEAR",
          "output": 24
        }
      ]
    }
  ],
  "asset": {
    "extras": {
      "author": "3DHaupt (https://sketchfab.com/dennish2010)",
      "license": "CC-BY-4.0 (http://creativecommons.org/licenses/by/4.0/)",
      "source": "https://sketchfab.com/3d-models/microwave-rigged-free-noncommercial-951cea7c961541d6a27a9d1abca27ee9",
      "title": "Microwave Rigged (Free - NonCommercial)"
    },
    "generator": "Sketchfab-12.64.0",
    "version": "2.0"
  },
  "bufferViews": [
    {
      "buffer": 0,
      "byteLength": 66344,
      "byteStride": 8,
      "name": "shortBufferViews",
      "target": 34962
    },
    {
      "buffer": 0,
      "byteLength": 200256,
      "byteOffset": 66344,
      "name": "floatBufferViews",
      "target": 34963
    },
    {
      "buffer": 0,
      "byteLength": 80056,
      "byteOffset": 266600,
      "byteStride": 8,
      "name": "floatBufferViews",
      "target": 34962
    },
    {
      "buffer": 0,
      "byteLength": 240168,
      "byteOffset": 346656,
      "byteStride": 12,
      "name": "floatBufferViews",
      "target": 34962
    },
    {
      "buffer": 0,
      "byteLength": 132688,
      "byteOffset": 586824,
      "byteStride": 16,
      "name": "floatBufferViews",
      "target": 34962
    },
    {
      "buffer": 0,
      "byteLength": 192,
      "byteOffset": 719512,
      "name": "floatBufferViews"
    },
    {
      "buffer": 0,
      "byteLength": 324,
      "byteOffset": 719704,
      "name": "floatBufferViews"
    },
    {
      "buffer": 0,
      "byteLength": 1296,
      "byteOffset": 720028,
      "byteStride": 16,
      "name": "floatBufferViews"
    }
  ],
  "buffers": [
    {
      "byteLength": 721324,
      "uri": "scene.bin"
    }
  ],
  "images": [
    {
      "uri": "textures/microwave_baseColor.jpeg"
    }
  ],
  "materials": [
    {
      "doubleSided": true,
      "name": "microwave",
      "pbrMetallicRoughness": {
        "baseColorFactor": [
          0.9263103173213935,
          0.9263103173213935,
          0.9263103173213935,
          1.0
        ],
        "baseColorTexture": {
          "index": 0
        },
        "metallicFactor": 0.0,
        "roughnessFactor": 0.6
      }
    },
    {
      "alphaMode": "BLEND",
      "doubleSided": true,
      "name": "glass",
      "pbrMetallicRoughness": {
        "baseColorFactor": [
          1.0,
          1.0,
          1.0,
          0.43846955689244305
        ],
        "baseColorTexture": {
          "index": 0
        },
        "roughnessFactor": 0.0
      }
    },
    {
      "doubleSided": true,
      "name": "Material.005",
      "pbrMetallicRoughness": {
        "baseColorFactor": [
          0.8000000119,
          0.8000000119,
          0.8000000119,
          1.0
        ],
        "metallicFactor": 0.0,
        "roughnessFactor": 0.6
      }
    },
    {
      "alphaMode": "BLEND",
      "doubleSided": true,
      "name": "Glas_2",
      "pbrMetallicRoughness": {
        "baseColorFactor": [
          0.8000000119,
          0.8000000119,
          0.8000000119,
          0.40702301601193996
        ],
        "roughnessFactor": 0.0835430217239092
      }
    }
  ],
  "meshes": [
    {
      "name": "Cube",
      "primitives": [
        {
          "attributes": {
            "JOINTS_0": 17,
            "NORMAL": 1,
            "POSITION": 0,
            "TEXCOORD_0": 2,
            "WEIGHTS_0": 18
          },
          "indices": 3,
          "material": 0,
          "mode": 4
        }
      ]
    },
    {
      "name": "Cube",
      "primitives": [
        {
          "attributes": {
            "JOINTS_0": 19,
            "NORMAL": 5,
            "POSITION": 4,
            "TEXCOORD_0": 6,
            "WEIGHTS_0": 20
          },
          "indices": 7,
          "material": 1,
          "mode": 4
        }
      ]
    },
    {
      "name": "Cube",
      "primitives": [
        {
          "attributes": {
            "NORMAL": 9,
            "POSITION": 8,
            "TEXCOORD_0": 10
          },
          "indices": 11,
          "material": 2,
          "mode": 4
        }
      ]
    },
    {
      "name": "Cube",
      "primitives": [
        {
          "attributes": {
            "NORMAL": 13,
            "POSITION": 12,
            "TEXCOORD_0": 14
          },
          "indices": 15,
          "material": 3,
          "mode": 4
        }
      ]
    }
  ],
  "nodes": [
    {
      "children": [
        1
      ],
      "matrix": [
        0.12178967148065567,
        0.0,
        0.0,
        0.0,
        0.0,
        2.704273948787154e-17,
        -0.12178967148065567,
        0.0,
        0.0,
        0.12178967148065567,
        2.704273948787154e-17,
        0.0,
        0.0,
        0.0,
        0.0,
        1.0
      ],
      "name": "Sketchfab_model"
    },
    {
      "children": [
        2
      ],
      "name": "Root"
    },
    {
      "children": [
        3,
        7,
        8,
        6
      ],
      "name": "Armature"
    },
    {
      "children": [
        4
      ],
      "name": "Armature_rootJoint"
    },
    {
      "children": [
        5
      ],
      "name": "Bone_Armature",
      "rotation": [
        0.7071068286895752,
        0.0,
        0.0,
        0.7071068286895752
      ],
      "scale": [
        1.0,
        1.0,
        1.0
      ],
      "translation": [
        0.0,
        0.0,
        0.0
      ]
    },
    {
      "name": "Bone.001_Armature",
      "rotation": [
        -0.7071068286895752,
        0.0,
        0.0,
        0.7071068286895752
      ],
      "scale": [
        1.0,
        1.0,
        1.0
      ],
      "translation": [
        1.5196199417114258,
        1.385200023651123,
        2.4514400959014893
      ]
    },
    {
      "children": [
        9,
        10
      ],
      "name": "Cube"
    },
    {
      "mesh": 0,
      "name": "Cube_0",
      "skin": 0
    },
    {
      "mesh": 1,
      "name": "Cube_3",
      "skin": 0
    },
    {
      "mesh": 2,
      "name": "Cube"
    },
    {
      "mesh": 3,
      "name": "Cube"
    }
  ],
  "samplers": [
    {
      "magFilter": 9729,
      "minFilter": 9987,
      "wrapS": 10497,
      "wrapT": 10497
    }
  ],
  "scene": 0,
  "scenes": [
    {
      "name": "Sketchfab_Scene",
      "nodes": [
        0
      ]
    }
  ],
  "skins": [
    {
      "inverseBindMatrices": 16,
      "joints": [
        3,
        4,
        5
      ],
      "skeleton": 3
    }
  ],
  "textures": [
    {
      "sampler": 0,
      "source": 0
    }
  ]
}
