{
  "accessors": [
    {
      "bufferView": 2,
      "componentType": 5126,
      "count": 5144,
      "max": [
        18.036605834960938,
        158.14236450195313,
        19.66279411315918
      ],
      "min": [
        -18.036605834960938,
        3.808509158541827e-15,
        -19.66279411315918
      ],
      "type": "VEC3"
    },
    {
      "bufferView": 2,
      "byteOffset": 61728,
      "componentType": 5126,
      "count": 5144,
      "max": [
        1.0,
        1.0,
        1.0
      ],
      "min": [
        -1.0,
        -1.0,
        -1.0
      ],
      "type": "VEC3"
    },
    {
      "bufferView": 3,
      "componentType": 5126,
      "count": 5144,
      "max": [
        1.0,
        0.9999922513961792,
        1.0,
        1.0
      ],
      "min": [
        -1.0,
        -0.9999140501022339,
        -1.0,
        -1.0
      ],
      "type": "VEC4"
    },
    {
      "bufferView": 1,
      "componentType": 5126,
      "count": 5144,
      "max": [
        0.9780799746513367,
        0.9813159704208374
      ],
      "min": [
        0.016032768413424492,
        0.006492972373962402
      ],
      "type": "VEC2"
    },
    {
      "bufferView": 0,
      "componentType": 5125,
      "count": 19326,
      "type": "SCALAR"
    },
    {
      "bufferView": 2,
      "byteOffset": 123456,
      "componentType": 5126,
      "count": 5144,
      "max": [
        18.036605834960938,
        158.14236450195313,
        19.66279411315918
      ],
      "min": [
        -18.036605834960938,
        3.808509158541827e-15,
        -19.66279411315918
      ],
      "type": "VEC3"
    },
    {
      "bufferView": 2,
      "byteOffset": 185184,
      "componentType": 5126,
      "count": 5144,
      "max": [
        1.0,
        1.0,
        1.0
      ],
      "min": [
        -1.0,
        -1.0,
        -1.0
      ],
      "type": "VEC3"
    },
    {
      "bufferView": 3,
      "byteOffset": 82304,
      "componentType": 5126,
      "count": 5144,
      "max": [
        1.0,
        0.9999922513961792,
        1.0,
        1.0
      ],
      "min": [
        -1.0,
        -0.9999140501022339,
        -1.0,
        -1.0
      ],
      "type": "VEC4"
    },
    {
      "bufferView": 1,
      "byteOffset": 41152,
      "componentType": 5126,
      "count": 5144,
      "max": [
        0.9780799746513367,
        0.9813159704208374
      ],
      "min": [
        0.016032768413424492,
        0.006492972373962402
      ],
      "type": "VEC2"
    },
    {
      "bufferView": 0,
      "byteOffset": 77304,
      "componentType": 5125,
      "count": 19326,
      "type": "SCALAR"
    }
  ],
  "asset": {
    "extras": {
      "author": "Mehdi Shahsavan (https://sketchfab.com/ahmagh2e)",
      "license": "CC-BY-4.0 (http://creativecommons.org/licenses/by/4.0/)",
      "source": "https://sketchfab.com/3d-models/water-cooler-8mb-9aef3e2a5d00481eb2864550bc781e7c",
      "title": "Water Cooler_8MB"
    },
    "generator": "Sketchfab-16.17.0",
    "version": "2.0"
  },
  "bufferViews": [
    {
      "buffer": 0,
      "byteLength": 154608,
      "name": "floatBufferViews",
      "target": 34963
    },
    {
      "buffer": 0,
      "byteLength": 82304,
      "byteOffset": 154608,
      "byteStride": 8,
      "name": "floatBufferViews",
      "target": 34962
    },
    {
      "buffer": 0,
      "byteLength": 246912,
      "byteOffset": 236912,
      "byteStride": 12,
      "name": "floatBufferViews",
      "target": 34962
    },
    {
      "buffer": 0,
      "byteLength": 164608,
      "byteOffset": 483824,
      "byteStride": 16,
      "name": "floatBufferViews",
      "target": 34962
    }
  ],
  "buffers": [
    {
      "byteLength": 648432,
      "uri": "scene.bin"
    }
  ],
  "extensionsUsed": [
    "KHR_materials_emissive_strength"
  ],
  "images": [
    {
      "uri": "textures/Scene_-_Root_baseColor.png"
    },
    {
      "uri": "textures/Scene_-_Root_metallicRoughness.png"
    },
    {
      "uri": "textures/Scene_-_Root_emissive.png"
    },
    {
      "uri": "textures/Scene_-_Root_normal.png"
    }
  ],
  "materials": [
    {
      "alphaCutoff": 0.18185252517396264,
      "alphaMode": "MASK",
      "doubleSided": true,
      "emissiveFactor": [
        1.0,
        1.0,
        1.0
      ],
      "emissiveTexture": {
        "index": 2
      },
      "extensions": {
        "KHR_materials_emissive_strength": {
          "emissiveStrength": 5.35039428029296
        }
      },
      "name": "Scene_-_Root",
      "normalTexture": {
        "index": 3
      },
      "pbrMetallicRoughness": {
        "baseColorTexture": {
          "index": 0
        },
        "metallicRoughnessTexture": {
          "index": 1
        }
      }
    }
  ],
  "meshes": [
    {
      "name": "Water_cooler_1__0",
      "primitives": [
        {
          "attributes": {
            "NORMAL": 1,
            "POSITION": 0,
            "TANGENT": 2,
            "TEXCOORD_0": 3
          },
          "indices": 4,
          "material": 0,
          "mode": 4
        }
      ]
    },
    {
      "name": "Water_cooler__0",
      "primitives": [
        {
          "attributes": {
            "NORMAL": 6,
            "POSITION": 5,
            "TANGENT": 7,
            "TEXCOORD_0": 8
          },
          "indices": 9,
          "material": 0,
          "mode": 4
        }
      ]
    }
  ],
  "nodes": [
    {
      "children": [
        1
      ],
      "matrix": [
        1.0,
        0.0,
        0.0,
        0.0,
        0.0,
        2.220446049250313e-16,
        -1.0,
        0.0,
        0.0,
        1.0,
        2.220446049250313e-16,
        0.0,
        0.0,
        0.0,
        0.0,
        1.0
      ],
      "name": "Sketchfab_model"
    },
    {
      "children": [
        2
      ],
      "matrix": [
        1.0,
        0.0,
        0.0,
        0.0,
        0.0,
        0.0,
        1.0,
        0.0,
        0.0,
        -1.0,
        0.0,
        0.0,
        0.0,
        0.0,
        0.0,
        1.0
      ],
      "name": "465061508e984cea8d5da7a95d1e3be3.fbx"
    },
    {
      "children": [
        3,
        5,
        7
      ],
      "name": "RootNode"
    },
    {
      "children": [
        4
      ],
      "matrix": [
        0.13851837414830448,
        -0.1772772893498446,
        -0.9743641119746159,
        0.0,
        0.024951368022398876,
        0.9841609434847389,
        -0.1755125823211525,
        0.0,
        0.9900454985792931,
        -2.7755575615628914e-17,
        0.1407476846803486,
        0.0,
        -12.726147651672363,
        134.70791625976563,
        305.47247314453125,
        1.0
      ],
      "name": "CINEMA_4D_Editor"
    },
    {
      "name": "Object_4"
    },
    {
      "children": [
        6
      ],
      "matrix": [
        -1.0,
        1.2246467991473535e-16,
        -1.224646799147353e-16,
        0.0,
        1.2246467991473535e-16,
        1.0,
        -1.2246467991473535e-16,
        0.0,
        1.224646799147353e-16,
        -1.2246467991473535e-16,
        -1.0,
        0.0,
        82.56507873535156,
        0.16134382784366608,
        1.7020611763000488,
        1.0
      ],
      "name": "Water_cooler_1"
    },
    {
      "mesh": 0,
      "name": "Water_cooler_1__0"
    },
    {
      "children": [
        8
      ],
      "matrix": [
        1.0,
        0.0,
        0.0,
        0.0,
        0.0,
        1.0,
        0.0,
        0.0,
        0.0,
        0.0,
        1.0,
        0.0,
        0.0,
        0.16134382784366608,
        1.7020611763000488,
        1.0
      ],
      "name": "Water_cooler"
    },
    {
      "mesh": 1,
      "name": "Water_cooler__0"
    }
  ],
  "samplers": [
    {
      "magFilter": 9729,
      "minFilter": 9987,
      "wrapS": 10497,
      "wrapT": 10497
    }
  ],
  "scene": 0,
  "scenes": [
    {
      "name": "Sketchfab_Scene",
      "nodes": [
        0
      ]
    }
  ],
  "textures": [
    {
      "sampler": 0,
      "source": 0
    },
    {
      "sampler": 0,
      "source": 1
    },
    {
      "sampler": 0,
      "source": 2
    },
    {
      "sampler": 0,
      "source": 3
    }
  ]
}
