{
  "accessors": [
    {
      "bufferView": 2,
      "componentType": 5126,
      "count": 833,
      "max": [
        0.7233061790466309,
        0.48739004135131836,
        2.680039882659912
      ],
      "min": [
        -0.7244198322296143,
        -0.5615770816802979,
        -0.08657371997833252
      ],
      "type": "VEC3"
    },
    {
      "bufferView": 2,
      "byteOffset": 9996,
      "componentType": 5126,
      "count": 833,
      "max": [
        1.0,
        1.0,
        1.0
      ],
      "min": [
        -1.0,
        -1.0,
        -1.0
      ],
      "type": "VEC3"
    },
    {
      "bufferView": 3,
      "componentType": 5126,
      "count": 833,
      "max": [
        1.0,
        1.0,
        1.0,
        1.0
      ],
      "min": [
        -1.0,
        -1.0,
        -1.0,
        1.0
      ],
      "type": "VEC4"
    },
    {
      "bufferView": 1,
      "componentType": 5126,
      "count": 833,
      "max": [
        0.9931420087814331,
        0.9958410263061523
      ],
      "min": [
        0.0041526854038238525,
        0.004155242815613747
      ],
      "type": "VEC2"
    },
    {
      "bufferView": 1,
      "byteOffset": 6664,
      "componentType": 5126,
      "count": 833,
      "max": [
        0.9931420087814331,
        0.9958410263061523
      ],
      "min": [
        0.0041526854038238525,
        0.004155242815613747
      ],
      "type": "VEC2"
    },
    {
      "bufferView": 1,
      "byteOffset": 13328,
      "componentType": 5126,
      "count": 833,
      "max": [
        0.9931420087814331,
        0.9958410263061523
      ],
      "min": [
        0.0041526854038238525,
        0.004155242815613747
      ],
      "type": "VEC2"
    },
    {
      "bufferView": 0,
      "componentType": 5125,
      "count": 1704,
      "type": "SCALAR"
    }
  ],
  "asset": {
    "extras": {
      "author": "DoobiDooba (https://sketchfab.com/DoobiDooba)",
      "license": "CC-BY-4.0 (http://creativecommons.org/licenses/by/4.0/)",
      "source": "https://sketchfab.com/3d-models/vending-machine-coca-cola-bf0b77b88ece4400965bcbde346a1c7c",
      "title": "Vending Machine Coca Cola"
    },
    "generator": "Sketchfab-12.99.0",
    "version": "2.0"
  },
  "bufferViews": [
    {
      "buffer": 0,
      "byteLength": 6816,
      "name": "floatBufferViews",
      "target": 34963
    },
    {
      "buffer": 0,
      "byteLength": 19992,
      "byteOffset": 6816,
      "byteStride": 8,
      "name": "floatBufferViews",
      "target": 34962
    },
    {
      "buffer": 0,
      "byteLength": 19992,
      "byteOffset": 26808,
      "byteStride": 12,
      "name": "floatBufferViews",
      "target": 34962
    },
    {
      "buffer": 0,
      "byteLength": 13328,
      "byteOffset": 46800,
      "byteStride": 16,
      "name": "floatBufferViews",
      "target": 34962
    }
  ],
  "buffers": [
    {
      "byteLength": 60128,
      "uri": "scene.bin"
    }
  ],
  "images": [
    {
      "uri": "textures/Vending_machine_baseColor.png"
    },
    {
      "uri": "textures/Vending_machine_metallicRoughness.png"
    },
    {
      "uri": "textures/Vending_machine_normal.png"
    }
  ],
  "materials": [
    {
      "doubleSided": true,
      "name": "Vending_machine",
      "normalTexture": {
        "index": 2
      },
      "pbrMetallicRoughness": {
        "baseColorTexture": {
          "index": 0
        },
        "metallicRoughnessTexture": {
          "index": 1
        }
      }
    }
  ],
  "meshes": [
    {
      "name": "Vending_machine_Vending_machine_0",
      "primitives": [
        {
          "attributes": {
            "NORMAL": 1,
            "POSITION": 0,
            "TANGENT": 2,
            "TEXCOORD_0": 3,
            "TEXCOORD_1": 4,
            "TEXCOORD_2": 5
          },
          "indices": 6,
          "material": 0,
          "mode": 4
        }
      ]
    }
  ],
  "nodes": [
    {
      "children": [
        1
      ],
      "matrix": [
        0.7704711556434631,
        0.0,
        0.0,
        0.0,
        0.0,
        1.7107896336098508e-16,
        -0.7704711556434631,
        0.0,
        0.0,
        0.7704711556434631,
        1.7107896336098508e-16,
        0.0,
        0.0,
        0.0,
        0.0,
        1.0
      ],
      "name": "Sketchfab_model"
    },
    {
      "children": [
        2
      ],
      "matrix": [
        0.009999999776482582,
        0.0,
        0.0,
        0.0,
        0.0,
        0.0,
        0.009999999776482582,
        0.0,
        0.0,
        -0.009999999776482582,
        0.0,
        0.0,
        0.0,
        0.0,
        0.0,
        1.0
      ],
      "name": "vending machine.fbx"
    },
    {
      "children": [
        3
      ],
      "name": "RootNode"
    },
    {
      "children": [
        4
      ],
      "matrix": [
        100.0,
        0.0,
        0.0,
        0.0,
        -0.0,
        -1.629206793918314e-05,
        -99.99999999999868,
        0.0,
        0.0,
        99.99999999999868,
        -1.629206793918314e-05,
        0.0,
        -256.7874450683594,
        -143.5107879638672,
        248.21633911132813,
        1.0
      ],
      "name": "Vending_machine"
    },
    {
      "mesh": 0,
      "name": "Vending_machine_Vending_machine_0"
    }
  ],
  "samplers": [
    {
      "magFilter": 9729,
      "minFilter": 9987,
      "wrapS": 10497,
      "wrapT": 10497
    }
  ],
  "scene": 0,
  "scenes": [
    {
      "name": "Sketchfab_Scene",
      "nodes": [
        0
      ]
    }
  ],
  "textures": [
    {
      "sampler": 0,
      "source": 0
    },
    {
      "sampler": 0,
      "source": 1
    },
    {
      "sampler": 0,
      "source": 2
    }
  ]
}
