{
  "accessors": [
    {
      "bufferView": 2,
      "componentType": 5126,
      "count": 47133,
      "max": [
        0.5599600076675415,
        0.12039999663829803,
        1.352620005607605
      ],
      "min": [
        -0.5920500159263611,
        -0.09932000190019608,
        -0.03513000160455704
      ],
      "type": "VEC3"
    },
    {
      "bufferView": 2,
      "byteOffset": 565596,
      "componentType": 5126,
      "count": 47133,
      "max": [
        0.9996044039726257,
        0.989623486995697,
        0.9948985576629639
      ],
      "min": [
        -0.9999964237213135,
        -0.9999992847442627,
        -0.9999977350234985
      ],
      "type": "VEC3"
    },
    {
      "bufferView": 1,
      "componentType": 5126,
      "count": 47133,
      "max": [
        0.9963780045509338,
        0.9958230257034302
      ],
      "min": [
        0.002088000066578388,
        0.27105700969696045
      ],
      "type": "VEC2"
    },
    {
      "bufferView": 0,
      "componentType": 5125,
      "count": 264627,
      "type": "SCALAR"
    }
  ],
  "asset": {
    "extras": {
      "author": "AnDeNan (https://sketchfab.com/saladeen)",
      "license": "CC-BY-NC-SA-4.0 (http://creativecommons.org/licenses/by-nc-sa/4.0/)",
      "source": "https://sketchfab.com/3d-models/la-cathedrale-de-rouen-monet-7a03823aa82047b8bf6d53c870b11dcb",
      "title": "La cathédrale de Rouen, Monet"
    },
    "generator": "Sketchfab-15.44.0",
    "version": "2.0"
  },
  "bufferViews": [
    {
      "buffer": 0,
      "byteLength": 1058508,
      "name": "floatBufferViews",
      "target": 34963
    },
    {
      "buffer": 0,
      "byteLength": 377064,
      "byteOffset": 1058508,
      "byteStride": 8,
      "name": "floatBufferViews",
      "target": 34962
    },
    {
      "buffer": 0,
      "byteLength": 1131192,
      "byteOffset": 1435572,
      "byteStride": 12,
      "name": "floatBufferViews",
      "target": 34962
    }
  ],
  "buffers": [
    {
      "byteLength": 2566764,
      "uri": "scene.bin"
    }
  ],
  "extensionsUsed": [
    "KHR_materials_unlit"
  ],
  "images": [
    {
      "uri": "textures/main_baseColor.jpeg"
    }
  ],
  "materials": [
    {
      "doubleSided": true,
      "extensions": {
        "KHR_materials_unlit": {}
      },
      "name": "main",
      "pbrMetallicRoughness": {
        "baseColorTexture": {
          "index": 0
        },
        "metallicFactor": 0.0
      }
    }
  ],
  "meshes": [
    {
      "name": "Object_0",
      "primitives": [
        {
          "attributes": {
            "NORMAL": 1,
            "POSITION": 0,
            "TEXCOORD_0": 2
          },
          "indices": 3,
          "material": 0,
          "mode": 4
        }
      ]
    }
  ],
  "nodes": [
    {
      "children": [
        1
      ],
      "matrix": [
        1.0,
        0.0,
        0.0,
        0.0,
        0.0,
        2.220446049250313e-16,
        -1.0,
        0.0,
        0.0,
        1.0,
        2.220446049250313e-16,
        0.0,
        0.0,
        0.0,
        0.0,
        1.0
      ],
      "name": "Sketchfab_model"
    },
    {
      "children": [
        2
      ],
      "name": "Scaniverse.obj.cleaner.materialmerger.gles"
    },
    {
      "mesh": 0,
      "name": "Object_2"
    }
  ],
  "samplers": [
    {
      "magFilter": 9729,
      "minFilter": 9987,
      "wrapS": 10497,
      "wrapT": 10497
    }
  ],
  "scene": 0,
  "scenes": [
    {
      "name": "Sketchfab_Scene",
      "nodes": [
        0
      ]
    }
  ],
  "textures": [
    {
      "sampler": 0,
      "source": 0
    }
  ]
}
