{
  "accessors": [
    {
      "bufferView": 2,
      "componentType": 5126,
      "count": 574,
      "max": [
        0.09234700351953506,
        0.8075270056724548,
        0.21252700686454773
      ],
      "min": [
        -0.13093699514865875,
        0.506974995136261,
        -0.0011490000179037452
      ],
      "type": "VEC3"
    },
    {
      "bufferView": 2,
      "byteOffset": 6888,
      "componentType": 5126,
      "count": 574,
      "max": [
        0.9999616146087646,
        0.9999934434890747,
        0.9999915361404419
      ],
      "min": [
        -0.9998868703842163,
        -0.9999940395355225,
        -0.9999996423721313
      ],
      "type": "VEC3"
    },
    {
      "bufferView": 1,
      "componentType": 5126,
      "count": 574,
      "max": [
        1.0,
        0.47238200902938843
      ],
      "min": [
        0.0,
        0.007300000172108412
      ],
      "type": "VEC2"
    },
    {
      "bufferView": 0,
      "componentType": 5125,
      "count": 2895,
      "type": "SCALAR"
    },
    {
      "bufferView": 2,
      "byteOffset": 13776,
      "componentType": 5126,
      "count": 476,
      "max": [
        0.08923900127410889,
        0.9937260150909424,
        0.08789599686861038
      ],
      "min": [
        -0.12800200283527374,
        0.5117769837379456,
        0.02241400070488453
      ],
      "type": "VEC3"
    },
    {
      "bufferView": 2,
      "byteOffset": 19488,
      "componentType": 5126,
      "count": 476,
      "max": [
        0.9452349543571472,
        0.9452349543571472,
        0.32741251587867737
      ],
      "min": [
        -0.9452349543571472,
        -0.9452349543571472,
        -0.3946130871772766
      ],
      "type": "VEC3"
    },
    {
      "bufferView": 1,
      "byteOffset": 4592,
      "componentType": 5126,
      "count": 476,
      "max": [
        1.1024199724197388,
        0.9738940000534058
      ],
      "min": [
        -0.09309100359678268,
        0.02610599994659424
      ],
      "type": "VEC2"
    },
    {
      "bufferView": 0,
      "byteOffset": 11580,
      "componentType": 5125,
      "count": 1344,
      "type": "SCALAR"
    },
    {
      "bufferView": 2,
      "byteOffset": 25200,
      "componentType": 5126,
      "count": 6512,
      "max": [
        0.08923900127410889,
        0.9937260150909424,
        0.19457599520683289
      ],
      "min": [
        -0.12800200283527374,
        0.5117719769477844,
        -0.004525000229477882
      ],
      "type": "VEC3"
    },
    {
      "bufferView": 2,
      "byteOffset": 103344,
      "componentType": 5126,
      "count": 6512,
      "max": [
        0.9999339580535889,
        0.9999339580535889,
        0.32871320843696594
      ],
      "min": [
        -0.9999339580535889,
        -0.9999339580535889,
        -1.0
      ],
      "type": "VEC3"
    },
    {
      "bufferView": 1,
      "byteOffset": 8400,
      "componentType": 5126,
      "count": 6512,
      "max": [
        1.0,
        1.0
      ],
      "min": [
        0.0,
        0.0
      ],
      "type": "VEC2"
    },
    {
      "bufferView": 0,
      "byteOffset": 16956,
      "componentType": 5125,
      "count": 25440,
      "type": "SCALAR"
    },
    {
      "bufferView": 2,
      "byteOffset": 181488,
      "componentType": 5126,
      "count": 5600,
      "max": [
        0.08844999969005585,
        0.9929479956626892,
        0.17557799816131592
      ],
      "min": [
        -0.1272130012512207,
        0.5125589966773987,
        -0.003920000046491623
      ],
      "type": "VEC3"
    },
    {
      "bufferView": 2,
      "byteOffset": 248688,
      "componentType": 5126,
      "count": 5600,
      "max": [
        0.9962816834449768,
        0.9962816834449768,
        1.0
      ],
      "min": [
        -0.9962816834449768,
        -0.9962816834449768,
        -0.8319113254547119
      ],
      "type": "VEC3"
    },
    {
      "bufferView": 1,
      "byteOffset": 60496,
      "componentType": 5126,
      "count": 5600,
      "max": [
        1.0,
        1.0
      ],
      "min": [
        0.0,
        0.0
      ],
      "type": "VEC2"
    },
    {
      "bufferView": 0,
      "byteOffset": 118716,
      "componentType": 5125,
      "count": 21336,
      "type": "SCALAR"
    },
    {
      "bufferView": 2,
      "byteOffset": 315888,
      "componentType": 5126,
      "count": 800,
      "max": [
        0.06831400096416473,
        0.9731159806251526,
        0.2087090015411377
      ],
      "min": [
        -0.10707700252532959,
        0.5326430201530457,
        0.1875620037317276
      ],
      "type": "VEC3"
    },
    {
      "bufferView": 2,
      "byteOffset": 325488,
      "componentType": 5126,
      "count": 800,
      "max": [
        0.9999339580535889,
        0.9999339580535889,
        1.0
      ],
      "min": [
        -0.9999339580535889,
        -0.9999339580535889,
        0.0
      ],
      "type": "VEC3"
    },
    {
      "bufferView": 1,
      "byteOffset": 105296,
      "componentType": 5126,
      "count": 800,
      "max": [
        1.0,
        1.0
      ],
      "min": [
        0.0,
        1.0
      ],
      "type": "VEC2"
    },
    {
      "bufferView": 0,
      "byteOffset": 204060,
      "componentType": 5125,
      "count": 2208,
      "type": "SCALAR"
    }
  ],
  "asset": {
    "extras": {
      "author": "HGowl (https://sketchfab.com/hgowl22)",
      "license": "CC-BY-4.0 (http://creativecommons.org/licenses/by/4.0/)",
      "source": "https://sketchfab.com/3d-models/water-bottles-300baac43615474c8fa3e4da94c78ce1",
      "title": "Water Bottles"
    },
    "generator": "Sketchfab-15.8.0",
    "version": "2.0"
  },
  "bufferViews": [
    {
      "buffer": 0,
      "byteLength": 212892,
      "name": "floatBufferViews",
      "target": 34963
    },
    {
      "buffer": 0,
      "byteLength": 111696,
      "byteOffset": 212892,
      "byteStride": 8,
      "name": "floatBufferViews",
      "target": 34962
    },
    {
      "buffer": 0,
      "byteLength": 335088,
      "byteOffset": 324588,
      "byteStride": 12,
      "name": "floatBufferViews",
      "target": 34962
    }
  ],
  "buffers": [
    {
      "byteLength": 659676,
      "uri": "scene.bin"
    }
  ],
  "extensionsUsed": [
    "KHR_materials_clearcoat",
    "KHR_materials_specular",
    "KHR_materials_transmission"
  ],
  "images": [
    {
      "uri": "textures/Labels_baseColor.jpeg"
    }
  ],
  "materials": [
    {
      "alphaMode": "BLEND",
      "doubleSided": true,
      "extensions": {
        "KHR_materials_clearcoat": {
          "clearcoatFactor": 1.0,
          "clearcoatRoughnessFactor": 0.0426179604261796
        },
        "KHR_materials_specular": {
          "specularColorFactor": [
            1.0,
            1.0,
            1.0
          ],
          "specularFactor": 1.0
        }
      },
      "name": "Acrylic",
      "pbrMetallicRoughness": {
        "baseColorFactor": [
          0.27028464916786893,
          0.3632817007712158,
          0.45203821373807884,
          0.6818873668188736
        ],
        "metallicFactor": 0.0,
        "roughnessFactor": 0.0669710806697108
      }
    },
    {
      "doubleSided": true,
      "extensions": {
        "KHR_materials_specular": {
          "specularColorFactor": [
            1.0,
            1.0,
            1.0
          ],
          "specularFactor": 0.8280060882800608
        }
      },
      "name": "Labels",
      "pbrMetallicRoughness": {
        "baseColorFactor": [
          0.4018264840182648,
          0.4018264840182648,
          0.4018264840182648,
          1.0
        ],
        "baseColorTexture": {
          "index": 0
        },
        "metallicFactor": 0.0,
        "roughnessFactor": 0.2070015220700152
      }
    },
    {
      "doubleSided": true,
      "name": "material",
      "pbrMetallicRoughness": {
        "baseColorFactor": [
          0.16213137174147285,
          0.19992618113968494,
          0.7926760664667007,
          1.0
        ],
        "metallicFactor": 0.0,
        "roughnessFactor": 0.6
      }
    },
    {
      "alphaMode": "BLEND",
      "doubleSided": true,
      "extensions": {
        "KHR_materials_specular": {
          "specularColorFactor": [
            1.0,
            1.0,
            1.0
          ],
          "specularFactor": 1.0
        },
        "KHR_materials_transmission": {
          "transmissionFactor": 1.0
        }
      },
      "name": "Water",
      "pbrMetallicRoughness": {
        "baseColorFactor": [
          1.0,
          1.0,
          1.0,
          0.25
        ],
        "roughnessFactor": 0.0365296803652968
      }
    },
    {
      "alphaMode": "BLEND",
      "doubleSided": true,
      "extensions": {
        "KHR_materials_specular": {
          "specularColorFactor": [
            1.0,
            1.0,
            1.0
          ],
          "specularFactor": 0.7671232876712328
        },
        "KHR_materials_transmission": {
          "transmissionFactor": 0.7442922374429224
        }
      },
      "name": "Wrap",
      "pbrMetallicRoughness": {
        "baseColorFactor": [
          0.43952610991469726,
          0.4455221435354053,
          0.855605185835103,
          0.2557077625570776
        ],
        "metallicFactor": 0.5966514459665144,
        "roughnessFactor": 0.1400304414003044
      }
    }
  ],
  "meshes": [
    {
      "name": "Object_0",
      "primitives": [
        {
          "attributes": {
            "NORMAL": 1,
            "POSITION": 0,
            "TEXCOORD_0": 2
          },
          "indices": 3,
          "material": 4,
          "mode": 4
        }
      ]
    },
    {
      "name": "Object_1",
      "primitives": [
        {
          "attributes": {
            "NORMAL": 5,
            "POSITION": 4,
            "TEXCOORD_0": 6
          },
          "indices": 7,
          "material": 1,
          "mode": 4
        }
      ]
    },
    {
      "name": "Object_2",
      "primitives": [
        {
          "attributes": {
            "NORMAL": 9,
            "POSITION": 8,
            "TEXCOORD_0": 10
          },
          "indices": 11,
          "material": 0,
          "mode": 4
        }
      ]
    },
    {
      "name": "Object_3",
      "primitives": [
        {
          "attributes": {
            "NORMAL": 13,
            "POSITION": 12,
            "TEXCOORD_0": 14
          },
          "indices": 15,
          "material": 3,
          "mode": 4
        }
      ]
    },
    {
      "name": "Object_4",
      "primitives": [
        {
          "attributes": {
            "NORMAL": 17,
            "POSITION": 16,
            "TEXCOORD_0": 18
          },
          "indices": 19,
          "material": 2,
          "mode": 4
        }
      ]
    }
  ],
  "nodes": [
    {
      "children": [
        1
      ],
      "matrix": [
        1.0,
        0.0,
        0.0,
        0.0,
        0.0,
        2.220446049250313e-16,
        -1.0,
        0.0,
        0.0,
        1.0,
        2.220446049250313e-16,
        0.0,
        0.0,
        0.0,
        0.0,
        1.0
      ],
      "name": "Sketchfab_model"
    },
    {
      "children": [
        2,
        3,
        4,
        5,
        6
      ],
      "name": "Water_Bottles_.obj.cleaner.materialmerger.gles"
    },
    {
      "mesh": 0,
      "name": "Object_2"
    },
    {
      "mesh": 1,
      "name": "Object_3"
    },
    {
      "mesh": 2,
      "name": "Object_4"
    },
    {
      "mesh": 3,
      "name": "Object_5"
    },
    {
      "mesh": 4,
      "name": "Object_6"
    }
  ],
  "samplers": [
    {
      "magFilter": 9729,
      "minFilter": 9987,
      "wrapS": 10497,
      "wrapT": 10497
    }
  ],
  "scene": 0,
  "scenes": [
    {
      "name": "Sketchfab_Scene",
      "nodes": [
        0
      ]
    }
  ],
  "textures": [
    {
      "sampler": 0,
      "source": 0
    }
  ]
}
